<svg width="76" height="76" viewBox="0 0 76 76" fill="#1E2330" xmlns="http://www.w3.org/2000/svg">
<path d="M7.55265 41.0336C7.19165 40.8014 6.97526 40.4795 6.90348 40.0678C6.8317 39.6562 6.90559 39.2635 7.12515 38.8898L16.1153 24.4688C17.0315 22.9868 18.3457 22.1899 20.0578 22.078C21.7678 21.9661 23.1875 22.5656 24.317 23.8766L27.1606 27.17C27.6082 27.6978 28.1666 27.9321 28.8358 27.873C29.505 27.8118 30.0022 27.4972 30.3273 26.9293L36.8126 16.3811C37.7838 14.7809 39.2035 13.9576 41.0718 13.9111C42.9423 13.8647 44.3884 14.6353 45.4101 16.2228L48.4153 20.8398C48.8206 21.4077 49.378 21.6916 50.0873 21.6916C50.7966 21.6916 51.335 21.3876 51.7023 20.7796L59.8406 7.78365C60.0708 7.39731 60.4138 7.16298 60.8698 7.08065C61.3258 6.99831 61.7417 7.10387 62.1175 7.39731C62.4363 7.62954 62.6315 7.93143 62.7033 8.30298C62.7751 8.67454 62.7012 9.04715 62.4817 9.42081L54.3433 22.4168C53.3743 24.0044 51.9546 24.7981 50.0841 24.7981C48.2137 24.7981 46.7676 24.0308 45.7458 22.496L42.804 17.9993C42.3986 17.3913 41.8403 17.0979 41.1288 17.119C40.4195 17.1401 39.8811 17.4546 39.5138 18.0626L33.0316 28.5475C32.126 30.0295 30.8065 30.8401 29.0733 30.9795C27.3422 31.1167 25.913 30.5298 24.7856 29.2188L21.923 25.8463C21.4754 25.3185 20.9265 25.0842 20.2763 25.1433C19.6282 25.2066 19.1426 25.5212 18.8196 26.087L9.82631 40.5903C9.5962 40.9745 9.25315 41.2184 8.79715 41.3218C8.34115 41.4253 7.92631 41.3292 7.55265 41.0336ZM44.6976 57C47.2394 57 49.3875 56.1239 51.1418 54.3717C52.8961 52.6194 53.7723 50.4703 53.7701 47.9243C53.7701 45.3847 52.894 43.2377 51.1418 41.4833C49.3896 39.729 47.2426 38.8529 44.7008 38.855C42.159 38.8571 40.011 39.7332 38.2566 41.4833C36.5023 43.2334 35.6251 45.3815 35.6251 47.9275C35.6251 50.4735 36.5013 52.6205 38.2535 54.3685C40.0057 56.1165 42.1548 56.9936 44.7008 57M44.7008 60.1667C41.3104 60.1667 38.4224 58.9739 36.0368 56.5883C33.6513 54.2028 32.4585 51.3158 32.4585 47.9275C32.4585 44.5391 33.6513 41.6512 36.0368 39.2635C38.4224 36.8758 41.3093 35.683 44.6976 35.6851C48.086 35.6873 50.974 36.88 53.3616 39.2635C55.7493 41.6469 56.9421 44.5349 56.94 47.9275C56.94 49.3398 56.7141 50.6825 56.2623 51.9555C55.8126 53.2285 55.1783 54.379 54.3591 55.4071L62.1523 63.2605C62.4479 63.556 62.5956 63.9097 62.5956 64.3213C62.5956 64.733 62.4479 65.0855 62.1523 65.379C61.8568 65.6724 61.4937 65.8202 61.063 65.8223C60.6323 65.8244 60.2692 65.6767 59.9736 65.379L52.1171 57.5858C51.089 58.4049 49.949 59.0404 48.6971 59.4922C47.4453 59.9439 46.1131 60.1688 44.7008 60.1667Z" fill="#1E2330"/>
</svg>
