<svg xmlns="http://www.w3.org/2000/svg"  fill="#1E2330" xmlns:xlink="http://www.w3.org/1999/xlink" version="1.1" x="0px" y="0px" viewBox="0 0 100 100" xml:space="preserve"><g><path d="M92.5,39.4H56.8V11c0-0.6-0.4-1-1-1H44.2c-0.6,0-1,0.4-1,1v28.4H7.5c-0.6,0-1,0.4-1,1v11.5c0,0.6,0.4,1,1,1h5.7v30.2   c0,3.8,3.1,6.9,6.9,6.9h59.8c3.8,0,6.9-3.1,6.9-6.9V52.9h5.7c0.6,0,1-0.4,1-1V40.4C93.5,39.9,93.1,39.4,92.5,39.4z M45.2,12h9.5   v42.8h-9.5V12z M8.5,41.4h34.8v9.5H8.5V41.4z M84.8,83.1c0,2.7-2.2,4.9-4.9,4.9H20.1c-2.7,0-4.9-2.2-4.9-4.9V52.9h28v2.8   c0,0.6,0.4,1,1,1h11.5c0.6,0,1-0.4,1-1v-2.8h28V83.1z M91.5,50.9H56.8v-9.5h34.8V50.9z"/><circle cx="50" cy="46.2" r="0.6"/></g></svg>
