<svg width="23" height="36" viewBox="0 0 23 36" fill="none" xmlns="http://www.w3.org/2000/svg">
<g clip-path="url(#clip0_80_219)">
<path d="M11.5013 15.9183C12.6345 15.9183 13.659 15.4554 14.3995 14.7084C15.14 13.9569 15.5993 12.9213 15.5993 11.7758C15.5993 10.6317 15.14 9.59461 14.3995 8.84607C13.659 8.09753 12.633 7.63317 11.5013 7.63317C10.3695 7.63317 9.3436 8.09753 8.60311 8.84607L8.56833 8.87976C7.84813 9.62538 7.40327 10.6464 7.40327 11.7758C7.40327 12.9228 7.86119 13.9569 8.60023 14.7055C9.34217 15.4555 10.3667 15.9183 11.5013 15.9183ZM16.6919 28.3226C16.3021 28.1995 16.0833 27.7791 16.205 27.3851C16.3267 26.991 16.7426 26.7699 17.1324 26.8929C18.4366 27.3031 19.5219 27.8582 20.2827 28.5101C21.1116 29.2205 21.5811 30.057 21.5811 30.971C21.5811 32.4359 20.3653 33.7059 18.4004 34.5746C16.6209 35.3612 14.1791 35.8475 11.5011 35.8475C8.82309 35.8475 6.38138 35.3612 4.60185 34.5746C2.63687 33.7059 1.4211 32.4359 1.4211 30.971C1.4211 30.0555 1.89059 29.2205 2.71948 28.5101C3.48171 27.8582 4.56564 27.303 5.86982 26.8929C6.25963 26.7699 6.67552 26.9911 6.79724 27.3851C6.91896 27.7791 6.70015 28.1996 6.31034 28.3226C5.1931 28.6742 4.28597 29.1312 3.67588 29.6527C3.18464 30.0746 2.90497 30.5243 2.90497 30.971C2.90497 31.784 3.78023 32.5794 5.1931 33.2034C6.79145 33.9095 9.02148 34.3475 11.501 34.3475C13.9806 34.3475 16.2105 33.9095 17.809 33.2034C19.2233 32.5794 20.0971 31.7855 20.0971 30.971C20.0971 30.5257 19.8189 30.0746 19.3262 29.6527C18.7161 29.1312 17.8092 28.6742 16.6919 28.3226ZM11.5013 0.150722C14.6763 0.150722 17.5514 1.45298 19.6307 3.55501C21.71 5.65703 22.9955 8.56313 22.9955 11.7743C22.9984 16.3358 19.1337 21.492 15.8773 25.8338C14.3051 27.9299 12.8792 29.8313 12.1632 31.3005C11.9821 31.6711 11.5386 31.8234 11.172 31.6404C11.0199 31.5642 10.9054 31.4426 10.8358 31.3005C10.12 29.8313 8.69409 27.9299 7.1217 25.8338C3.86561 21.492 0.000976562 16.3373 0.000976562 11.7743C0.00387493 8.56332 1.29068 5.65726 3.37011 3.55501L3.41213 3.51546C5.49014 1.43537 8.34807 0.150722 11.5013 0.150722ZM18.5831 4.61547C16.7717 2.78442 14.2676 1.65065 11.5013 1.65065C8.75235 1.65065 6.26137 2.7698 4.4529 4.58033L4.42102 4.61549C2.60677 6.44947 1.48515 8.98086 1.48515 11.7742C1.48805 15.8377 5.18904 20.7727 8.30762 24.9315C9.53789 26.5736 10.6827 28.0985 11.5029 29.4401C12.323 28.0969 13.4664 26.572 14.6981 24.93C17.8166 20.7712 21.5176 15.8362 21.5176 11.7727C21.5205 8.97929 20.3989 6.44812 18.5847 4.61399L18.5831 4.61547ZM15.4472 15.7642C14.4358 16.7852 13.0388 17.418 11.5013 17.418C9.96378 17.418 8.56976 16.7867 7.55824 15.7657L7.55389 15.7613C6.54386 14.7389 5.91785 13.3282 5.91785 11.774C5.91785 10.2403 6.52646 8.84573 7.51475 7.82633L7.55388 7.78385C8.56391 6.76283 9.95938 6.13002 11.5013 6.13002C13.0417 6.13002 14.4387 6.76283 15.4488 7.78385C16.4588 8.80486 17.0849 10.217 17.0849 11.7742C17.0849 13.3313 16.4588 14.7435 15.4488 15.7631L15.4472 15.7642Z" fill="black"/>
</g>
<defs>
<clipPath id="clip0_80_219">
<rect width="23" height="36" fill="white"/>
</clipPath>
</defs>
</svg>
