<?xml version="1.0" encoding="UTF-8"?>
<svg id="Layer_2" data-name="Layer 2" xmlns="http://www.w3.org/2000/svg" viewBox="0 0 96.99 87.96">
  <defs>
    <style>
      .cls-1 {
        fill: #1E2330;
        stroke-width: 0px;
      }
    </style>
  </defs>
  <g id="Layer_1-2" data-name="Layer 1">
    <g id="Layer_19" data-name="Layer 19">
      <g>
        <path class="cls-1" d="M96.87,85.29l-27.27-48.69c-.3-.47-.91-.94-1.51-.94s-1.21.31-1.51.94l-12.12,21.83-7.27-13.04c0-.16-.15-.16-.15-.31l-10.6-19.32c-.61-1.1-2.27-1.1-2.88,0l-10.6,19.16c-.15.16-.3.47-.45.63L.23,85.29c-.3.47-.3,1.26,0,1.73.3.47.91.94,1.51.94h93.62c.61,0,1.21-.31,1.51-.94.15-.47.15-1.1,0-1.73ZM68.24,41l5.6,10.05-1.82,1.88-2.88-2.98c-.61-.63-1.67-.63-2.42,0l-2.73,2.83-1.51-1.57,5.76-10.21ZM34.92,30l8.79,15.71-3.33,3.46-4.7-4.87c-.61-.63-1.67-.63-2.42,0l-4.24,4.4-2.88-2.98,8.79-15.71ZM24.46,48.85l3.48,3.61c.61.63,1.67.63,2.42,0l4.24-4.4,4.7,4.87c.3.31.76.47,1.21.47s.91-.16,1.21-.47l3.94-4.08,19.54,35.19.3.47H4.62l19.84-35.66ZM69.15,84.51l-12.57-22.62,4.24-7.7,2.12,2.2c.61.63,1.67.63,2.42,0l2.73-2.83,2.88,2.98c.3.31.76.47,1.21.47s.91-.16,1.21-.47l2.27-2.36,16.81,30.32h-23.33Z"/>
        <path class="cls-1" d="M59.31,19.79c3.03,0,5.45-2.51,5.45-5.65s-2.42-5.65-5.45-5.65-5.45,2.51-5.45,5.65,2.42,5.65,5.45,5.65ZM59.31,11.94c1.21,0,2.12.94,2.12,2.2s-.91,2.2-2.12,2.2-2.12-.94-2.12-2.2,1.06-2.2,2.12-2.2Z"/>
        <path class="cls-1" d="M59.31,6.44c.91,0,1.67-.79,1.67-1.73V1.73c0-.94-.76-1.73-1.67-1.73s-1.67.79-1.67,1.73v2.98c0,.94.76,1.73,1.67,1.73Z"/>
        <path class="cls-1" d="M57.64,23.56v2.98c0,.94.76,1.73,1.67,1.73s1.67-.79,1.67-1.73v-2.98c0-.94-.76-1.73-1.67-1.73s-1.67.79-1.67,1.73Z"/>
        <path class="cls-1" d="M66.73,14.14c0,.94.76,1.73,1.67,1.73h2.88c.91,0,1.67-.79,1.67-1.73s-.76-1.73-1.67-1.73h-2.88c-.91,0-1.67.79-1.67,1.73Z"/>
        <path class="cls-1" d="M47.34,15.86h2.88c.91,0,1.67-.79,1.67-1.73s-.76-1.73-1.67-1.73h-2.88c-.91,0-1.67.79-1.67,1.73,0,.94.76,1.73,1.67,1.73Z"/>
        <path class="cls-1" d="M65.82,9.27c.45,0,.91-.16,1.21-.47l2.12-2.2c.61-.63.61-1.73,0-2.51-.61-.63-1.67-.63-2.42,0l-2.12,2.2c-.61.63-.61,1.73,0,2.51.3.31.76.47,1.21.47Z"/>
        <path class="cls-1" d="M51.73,19.63l-2.12,2.2c-.61.63-.61,1.73,0,2.51.3.31.76.47,1.21.47s.91-.16,1.21-.47l2.12-2.2c.61-.63.61-1.73,0-2.51-.76-.79-1.82-.79-2.42,0Z"/>
        <path class="cls-1" d="M64.61,19.63c-.61.63-.61,1.73,0,2.51l2.12,2.2c.3.31.76.47,1.21.47s.91-.16,1.21-.47c.61-.63.61-1.73,0-2.51l-2.12-2.2c-.76-.79-1.82-.79-2.42,0Z"/>
        <path class="cls-1" d="M51.73,8.8c.3.31.76.47,1.21.47s.91-.16,1.21-.47c.61-.63.61-1.73,0-2.51l-2.12-2.2c-.61-.63-1.67-.63-2.42,0-.61.63-.61,1.73,0,2.51l2.12,2.2Z"/>
      </g>
    </g>
  </g>
</svg>