<svg width="44" height="45" viewBox="0 0 44 45" fill="none" xmlns="http://www.w3.org/2000/svg">
<g clip-path="url(#clip0_124_225)">
<path d="M43.644 19.0917H41.8463L41.8446 10.8914L39.761 10.8984L39.7575 8.60975H37.667V6.32987H35.6062V4.13613L33.4929 4.14843V2.13045L27.5929 2.15154L27.5999 0.00351562L16.2896 0C16.2896 0.71721 16.2809 1.43613 16.2896 2.15154L10.4457 2.1656C10.4422 2.84938 10.444 3.53144 10.4527 4.21522H8.29726L8.29376 6.35447H6.29791V8.60798H4.31432L4.31081 10.8685H2.22202L2.21325 19.0932C1.59415 19.0932 0.975055 19.0861 0.355957 19.0932L0.359464 27.3232L4.9633 27.3162C4.96155 29.4326 4.92822 31.5578 4.96681 33.676H10.509L10.502 44.9962L27.702 44.9927L33.4089 44.9997L33.416 33.5405L38.9721 33.537V27.3198L43.6495 27.3215V19.0879L43.644 19.0917ZM24.8358 14.189C25.4321 14.1679 26.0372 14.1855 26.6352 14.1855L30.1235 14.1749C30.127 12.4399 30.1235 10.7085 30.1113 8.97336C28.3627 9.00325 26.5966 9.01555 24.8461 8.98039L24.8426 4.0691H30.1199L30.1234 4.29937V8.95597C31.9772 8.94894 33.8362 8.91378 35.6916 8.94894V14.1838L30.1337 14.1803H30.1232C30.1109 15.8185 30.1092 17.4551 30.1127 19.0934H24.8196C24.8407 17.4586 24.8442 15.8256 24.8337 14.1906L24.8358 14.189ZM24.8077 19.3343C24.7849 19.9231 24.7989 20.5155 24.7989 21.1044V24.1225L19.1216 24.1155C19.0813 22.5247 19.1216 20.9269 19.1216 19.3361H24.8093L24.8077 19.3343ZM8.29379 8.98428H11.7716C12.4311 8.98076 13.0923 8.99306 13.7499 8.97021L13.7429 4.11517L13.7675 4.07122C14.0621 4.00267 14.8917 4.05364 15.2495 4.05364H19.1026L19.0991 8.97574C17.3207 9.00738 15.5248 9.00914 13.7464 8.97926L13.7376 14.1876H19.0939L19.1062 19.0935L13.7377 19.097C13.7377 17.4605 13.7062 15.8204 13.7342 14.1857C11.9208 14.2331 10.1003 14.205 8.28677 14.2068L8.29378 8.98586L8.29379 8.98428ZM3.28138 23.8815V19.0967C4.93525 19.0721 6.59436 19.0967 8.248 19.1055C8.25852 20.1566 8.24449 21.2078 8.24624 22.259C8.24624 22.7283 8.29886 23.4561 8.23221 23.8885L3.28311 23.8797L3.28138 23.8815ZM35.757 30.4452H30.2009C30.1816 31.1624 30.1991 31.8813 30.1991 32.5968V36.4305L30.1956 41.9853H13.727L13.7183 30.4437H8.18682C8.17981 29.4049 8.17981 28.3642 8.18682 27.3254C11.1946 27.3658 14.2094 27.3218 17.2207 27.3183L35.769 27.3254L35.7585 30.442L35.757 30.4452ZM40.6518 23.873L35.7341 23.8765V19.1024L40.6657 19.1112C40.6534 20.7003 40.6481 22.2858 40.6534 23.8731L40.6518 23.873Z" fill="white"/>
<path d="M26.574 33.2541C26.5845 32.3172 26.5775 31.3803 26.5757 30.4434C25.7128 30.4434 24.85 30.4399 23.9854 30.4522V33.2629C24.8447 33.2699 25.7146 33.2928 26.5705 33.2541H26.574Z" fill="white"/>
<path d="M20.0201 33.2244C20.0201 32.298 20.0394 31.3682 20.0201 30.4435L17.3999 30.4471V33.2262C18.2733 33.2385 19.1485 33.2385 20.0236 33.2262L20.0201 33.2244Z" fill="white"/>
</g>
<defs>
<clipPath id="clip0_124_225">
<rect width="44" height="45" fill="white"/>
</clipPath>
</defs>
</svg>
