<svg xmlns="http://www.w3.org/2000/svg" version="1.1" viewBox="-5.0 -10.0 110.0 135.0" fill="white">
 <path d="m89.438 24.012c-0.35547-0.24219-0.80469-0.29297-1.2031-0.13281l-18.879 7.4336-18.879-7.4336c-0.30469-0.12109-0.64453-0.12109-0.94922 0l-8.9766 3.5352c-0.027343 0.007813-0.050781 0.019532-0.074219 0.03125l-0.48437 0.19141c-0.54297 0.21094-0.875 0.76172-0.8125 1.3398 0.066406 0.57813 0.50781 1.043 1.0859 1.1328 2.0195 4.3086 5.2539 13.273 1.5859 20.66-2.5 5.043-7.8125 8.3555-15.777 9.8359-2.9844 0.55859-4.8008 2.2539-6.7148 4.0469-0.4375 0.41016-0.89453 0.83594-1.3711 1.2578l-0.003906-0.003906c-1.6836 1.293-3.4961 2.4102-5.4023 3.3398v-42.273l7.4531 2.9375c0.66016 0.24609 1.3984-0.078125 1.6562-0.73438 0.25781-0.65625-0.058594-1.3984-0.71094-1.668l-9.2188-3.6328v0.003906c-0.39453-0.15625-0.84375-0.10547-1.1992 0.13281-0.35156 0.23828-0.5625 0.64062-0.5625 1.0664v51.414c0 0.52734 0.32422 1.0039 0.81641 1.1992l19.355 7.6211c0.30469 0.12109 0.64062 0.12109 0.94531 0l18.883-7.4336 3.543 1.3945 0.066406 0.027343 15.273 6.0156v-0.003906c0.30078 0.12109 0.64063 0.12109 0.94531 0l19.355-7.6211h-0.003906c0.49219-0.19531 0.81641-0.66797 0.81641-1.1992v-51.414c0.003906-0.42578-0.20703-0.82422-0.55859-1.0664zm-45.277 27.906c4.0664-8.1836 0.78516-17.781-1.4141-22.594l5.9688-2.3516v48.641l-16.781 6.6055v-20.465c5.875-2.0117 9.9727-5.3047 12.227-9.8359zm-31.578 20.25c2.5117-1.1953 4.8906-2.6445 7.1094-4.3242 0.50781-0.44531 0.97656-0.88672 1.4297-1.3086 1.7773-1.6602 3.1797-2.9727 5.4258-3.3945 0.97266-0.17969 1.9062-0.39062 2.8086-0.62109v19.699l-16.773-6.6055zm56.773 10.559-13.984-5.5078c0.27734-5.0977 2.2305-9.9648 5.5547-13.84 0.42188-0.55469 0.32422-1.3477-0.22266-1.7852-0.54297-0.4375-1.3398-0.35938-1.793 0.17188-3.4453 4.0898-5.5586 9.1367-6.0625 14.461l-1.5547-0.61328v-48.641l16.773 6.6055v11.414c0 0.71484 0.57812 1.293 1.2891 1.293 0.71484 0 1.2891-0.57812 1.2891-1.293v-11.414l16.773-6.6055v14.438c-1.3867 0.83203-3.0078 1.7383-4.707 2.6914-1.8672 1.0469-3.8008 2.125-5.8281 3.3242-0.61328 0.36328-0.81641 1.1562-0.45312 1.7695 0.36328 0.61328 1.1562 0.81641 1.7695 0.45313 2-1.1836 3.9219-2.2578 5.7734-3.3008 1.207-0.67578 2.3711-1.3281 3.4492-1.9492v31.211zm-32.523-65.52c-2.5508-2.5586-6.3945-3.3242-9.7344-1.9414s-5.5156 4.6445-5.5117 8.2578c0 3.418 2.3008 7.1719 4.9531 10.371-2.4414 0.55078-4.4844 1.6758-4.4844 3.5664 0 2.7383 4.3828 3.9844 8.4531 3.9844 4.0703 0 8.4609-1.2461 8.4609-3.9844 0-1.8906-2.043-3.0195-4.4844-3.5664 2.6602-3.1992 4.957-6.9492 4.957-10.371 0.007813-2.3672-0.92969-4.6445-2.6094-6.3164zm-10.812 1.8242c1.8164-1.8203 4.5508-2.3633 6.9258-1.3789 2.3711 0.98438 3.918 3.3008 3.9141 5.8711 0 2.7891-2.2461 6.6484-6.3477 10.949-4.1016-4.3047-6.3477-8.168-6.3477-10.949-0.007812-1.6836 0.66016-3.3047 1.8555-4.4922zm10.332 18.434c-0.38672 0.46094-2.3945 1.3984-5.8398 1.3984-3.4453 0-5.4492-0.94141-5.8359-1.3984 0.27734-0.32031 1.4883-1.0195 3.8906-1.293 0.34766 0.36719 0.69531 0.72266 1.0352 1.0625h-0.003906c0.50391 0.50391 1.3203 0.50391 1.8242 0 0.33984-0.33984 0.6875-0.69922 1.0352-1.0625 2.4023 0.27344 3.6172 0.97266 3.8945 1.293zm-2.6484-10.746c1.2891-1.293 1.6758-3.2305 0.97656-4.918-0.69922-1.6836-2.3398-2.7812-4.1641-2.7852-1.5078 0-2.9141 0.75391-3.7539 2.0078-0.83594 1.25-0.99219 2.8398-0.41406 4.2305 0.57812 1.3945 1.8086 2.4062 3.2891 2.6992 1.4766 0.29297 3.0039-0.17188 4.0664-1.2344zm-5.1211-3.1914c-0.003906-0.51172 0.19922-1.0039 0.5625-1.3672 0.75391-0.75 1.9766-0.75 2.7305 0 0.74219 0.75781 0.73438 1.9688-0.015625 2.7188s-1.9609 0.75391-2.7188 0.015625c-0.36328-0.36328-0.5625-0.85547-0.55859-1.3672zm47.102 26.348c-2.5547-2.5625-6.4062-3.332-9.7461-1.9453-3.3438 1.3867-5.5195 4.6523-5.5117 8.2695 0 3.4141 2.3008 7.168 4.957 10.367-2.4414 0.55078-4.4805 1.6758-4.4805 3.5664 0 2.7344 4.3828 3.9844 8.4531 3.9844 4.0703 0 8.4531-1.2461 8.4531-3.9844 0-1.8906-2.0391-3.0195-4.4805-3.5664 2.6602-3.1992 4.957-6.9531 4.957-10.367 0.011719-2.3711-0.92969-4.6484-2.6094-6.3242zm-10.824 1.8242c1.8164-1.8203 4.5547-2.3672 6.9297-1.3789 2.375 0.98438 3.9219 3.3086 3.918 5.8789 0 2.7812-2.2461 6.6406-6.3516 10.949-4.1016-4.3086-6.3516-8.168-6.3516-10.949h0.003906c-0.011718-1.6875 0.65625-3.3086 1.8516-4.5zm10.332 18.434c-0.37891 0.46094-2.3867 1.3984-5.8359 1.3984s-5.457-0.94141-5.8359-1.3984c0.27344-0.32031 1.4844-1.0195 3.8867-1.3008 0.35156 0.36719 0.69531 0.72266 1.0391 1.0664 0.24219 0.24219 0.57031 0.37891 0.91016 0.37891 0.34375 0 0.67188-0.13672 0.91406-0.37891 0.34375-0.33984 0.6875-0.69531 1.0391-1.0664 2.3984 0.28125 3.6094 0.98438 3.8828 1.3008zm-2.6406-10.746c1.7617-1.7656 1.7617-4.625 0-6.3867-1.7656-1.7617-4.625-1.7617-6.3867 0-1.7617 1.7656-1.7617 4.6211 0.003907 6.3867 1.7617 1.7617 4.6211 1.7617 6.3828-0.003907zm-4.5625-4.5586h-0.003906c0.55469-0.55469 1.3867-0.72266 2.1094-0.42188 0.72656 0.29688 1.1953 1.0039 1.1953 1.7891 0 0.78125-0.46875 1.4883-1.1953 1.7852-0.72266 0.30078-1.5547 0.13281-2.1094-0.42188-0.74609-0.75781-0.74609-1.9727 0-2.7305z"/>
</svg>