<?xml version="1.0" encoding="UTF-8"?>
<svg id="Layer_2" data-name="Layer 2" xmlns="http://www.w3.org/2000/svg" viewBox="0 0 79.99 70.82">
  <defs>
    <style>
      .cls-1 {
        fill: #fff;
        stroke-width: 0px;
      }
    </style>
  </defs>
  <g id="Layer_1-2" data-name="Layer 1">
    <path class="cls-1" d="M79.44,9.43c-.36-.24-.8-.29-1.2-.13l-18.88,7.43-18.88-7.43c-.3-.12-.64-.12-.95,0l-8.98,3.54s-.05.02-.07.03l-.48.19c-.54.21-.88.76-.81,1.34.07.58.51,1.04,1.09,1.13,2.02,4.31,5.25,13.27,1.59,20.66-2.5,5.04-7.81,8.36-15.78,9.84-2.98.56-4.8,2.25-6.71,4.05-.44.41-.89.84-1.37,1.26h0c-1.68,1.29-3.5,2.41-5.4,3.34V12.39l7.45,2.94c.66.25,1.4-.08,1.66-.73.26-.66-.06-1.4-.71-1.67L1.76,9.29h0c-.39-.15-.84-.1-1.2.14-.35.24-.56.64-.56,1.07v51.41c0,.53.32,1,.82,1.2l19.35,7.62c.3.12.64.12.95,0l18.88-7.43,3.54,1.39.07.03,15.27,6.02h0c.3.12.64.12.95,0l19.35-7.62h0c.49-.2.82-.67.82-1.2V10.49c0-.43-.21-.82-.56-1.07h0ZM34.16,37.33c4.07-8.18.79-17.78-1.41-22.59l5.97-2.35v48.64l-16.78,6.61v-20.47c5.87-2.01,9.97-5.3,12.23-9.84h0ZM2.58,57.58c2.51-1.2,4.89-2.64,7.11-4.32.51-.45.98-.89,1.43-1.31,1.78-1.66,3.18-2.97,5.43-3.39.97-.18,1.91-.39,2.81-.62v19.7l-16.77-6.61v-3.45ZM59.36,68.14l-13.98-5.51c.28-5.1,2.23-9.96,5.55-13.84.42-.55.32-1.35-.22-1.79-.54-.44-1.34-.36-1.79.17-3.45,4.09-5.56,9.14-6.06,14.46l-1.55-.61V12.39l16.77,6.61v11.41c0,.71.58,1.29,1.29,1.29s1.29-.58,1.29-1.29v-11.41l16.77-6.61v14.44c-1.39.83-3.01,1.74-4.71,2.69-1.87,1.05-3.8,2.12-5.83,3.32-.61.36-.82,1.16-.45,1.77.36.61,1.16.82,1.77.45,2-1.18,3.92-2.26,5.77-3.3,1.21-.68,2.37-1.33,3.45-1.95v31.21l-18.07,7.12ZM26.83,2.62C24.28.06,20.44-.7,17.1.68s-5.52,4.64-5.51,8.26c0,3.42,2.3,7.17,4.95,10.37-2.44.55-4.48,1.68-4.48,3.57,0,2.74,4.38,3.98,8.45,3.98s8.46-1.25,8.46-3.98c0-1.89-2.04-3.02-4.48-3.57,2.66-3.2,4.96-6.95,4.96-10.37,0-2.37-.93-4.64-2.61-6.32h0ZM16.02,4.45c1.82-1.82,4.55-2.36,6.93-1.38,2.37.98,3.92,3.3,3.91,5.87,0,2.79-2.25,6.65-6.35,10.95-4.1-4.3-6.35-8.17-6.35-10.95,0-1.68.66-3.3,1.86-4.49ZM26.35,22.88c-.39.46-2.39,1.4-5.84,1.4s-5.45-.94-5.84-1.4c.28-.32,1.49-1.02,3.89-1.29.35.37.7.72,1.04,1.06h0c.5.5,1.32.5,1.82,0,.34-.34.69-.7,1.04-1.06,2.4.27,3.62.97,3.89,1.29h0ZM23.7,12.13c1.29-1.29,1.68-3.23.98-4.92-.7-1.68-2.34-2.78-4.16-2.79-1.51,0-2.91.75-3.75,2.01-.84,1.25-.99,2.84-.41,4.23.58,1.39,1.81,2.41,3.29,2.7,1.48.29,3-.17,4.07-1.23h0ZM18.58,8.94c0-.51.2-1,.56-1.37.75-.75,1.98-.75,2.73,0,.74.76.73,1.97-.02,2.72s-1.96.75-2.72.02c-.36-.36-.56-.86-.56-1.37h0ZM65.68,35.29c-2.55-2.56-6.41-3.33-9.75-1.95-3.34,1.39-5.52,4.65-5.51,8.27,0,3.41,2.3,7.17,4.96,10.37-2.44.55-4.48,1.68-4.48,3.57,0,2.73,4.38,3.98,8.45,3.98s8.45-1.25,8.45-3.98c0-1.89-2.04-3.02-4.48-3.57,2.66-3.2,4.96-6.95,4.96-10.37.01-2.37-.93-4.65-2.61-6.32h0ZM54.86,37.11c1.82-1.82,4.55-2.37,6.93-1.38,2.38.98,3.92,3.31,3.92,5.88,0,2.78-2.25,6.64-6.35,10.95-4.1-4.31-6.35-8.17-6.35-10.95h0c-.01-1.69.66-3.31,1.85-4.5ZM65.19,55.55c-.38.46-2.39,1.4-5.84,1.4s-5.46-.94-5.84-1.4c.27-.32,1.48-1.02,3.89-1.3.35.37.7.72,1.04,1.07.24.24.57.38.91.38s.67-.14.91-.38c.34-.34.69-.7,1.04-1.07,2.4.28,3.61.98,3.88,1.3h0ZM62.55,44.8c1.76-1.77,1.76-4.62,0-6.39-1.77-1.76-4.62-1.76-6.39,0-1.76,1.77-1.76,4.62,0,6.39,1.76,1.76,4.62,1.76,6.38,0h0ZM57.99,40.24h0c.55-.55,1.39-.72,2.11-.42.73.3,1.2,1,1.2,1.79s-.47,1.49-1.2,1.79c-.72.3-1.55.13-2.11-.42-.75-.76-.75-1.97,0-2.73h0Z"/>
  </g>
</svg>