<?xml version="1.0" standalone="no"?>
<!DOCTYPE svg PUBLIC "-//W3C//DTD SVG 1.1//EN" "http://www.w3.org/Graphics/SVG/1.1/DTD/svg11.dtd" >
<svg xmlns="http://www.w3.org/2000/svg" xmlns:xlink="http://www.w3.org/1999/xlink" version="1.1">
<metadata>
Created by FontForge 20201107 at Thu Jul 10 16:16:33 2025
 By 
copyright missing
</metadata>
<defs>
<font id="LinkSans-Medium" horiz-adv-x="1329" >
  <font-face 
    font-family="Link Sans Medium"
    font-weight="500"
    font-stretch="normal"
    units-per-em="2048"
    panose-1="0 0 0 0 0 0 0 0 0 0"
    ascent="1638"
    descent="-410"
    x-height="1126"
    cap-height="1561"
    bbox="-172 -518 9247 2099"
    underline-thickness="102"
    underline-position="-255"
    unicode-range="U+0020-A78C"
  />
<missing-glyph horiz-adv-x="1255" 
d="M102 584l172 491h175l90 -264h307q-94 48 -94 127q0 67 52 108t136 41t138 -35.5t71 -101.5l-141 -28q-12 55 -64 55q-45 0 -45 -43q0 -30 53 -45l52 -15q78 -22 113.5 -56.5t35.5 -88.5q0 -72 -50.5 -113t-141.5 -41q-78 0 -136 28.5t-77 92.5h-5v-370h-129v370h-39
l39 -112h-133l-35 112h-172l-36 -112h-136zM311 811h99l-50 158zM885 743q0 -29 22 -43t56 -14q25 0 39 11t14 30q0 14 -16 24t-62 25l-37 12l-16 7v-52z" />
    <glyph glyph-name="f_f" unicode="ff" horiz-adv-x="1492" 
d="M193 1262q0 154 117 241.5t323 87.5q204 0 362 -96q83 96 238 96q72 0 135 -24t98 -62v-209q-69 66 -159 66q-69 0 -99 -36.5t-30 -121.5v-78h288v-215h-288v-911h-260v911h-465v-911h-260v911h-173v215h173v136zM453 1126h465v136q0 23 4 59q-108 41 -256 41
q-213 0 -213 -158v-78z" />
    <glyph glyph-name="f_f_i" unicode="ffi" horiz-adv-x="1986" 
d="M193 1262q0 154 117 241.5t323 87.5q205 0 360 -96q120 96 334 96q218 0 375 -104v-211q-123 86 -342 86q-213 0 -213 -158v-78h711v-1126h-259v911h-452v-911h-260v911h-434v-911h-260v911h-173v215h173v136zM453 1126h434v136q0 34 6 69q-96 31 -227 31
q-213 0 -213 -158v-78z" />
    <glyph glyph-name="f_f_l" unicode="ffl" horiz-adv-x="2013" 
d="M193 1262q0 154 117 241.5t323 87.5q205 0 360 -96q120 96 334 96q165 0 299 -61v31h258v-1561h-258v911h-479v-911h-260v911h-434v-911h-260v911h-173v215h173v136zM453 1126h434v136q0 34 6 69q-96 31 -227 31q-213 0 -213 -158v-78zM1147 1126h479v191
q-108 45 -266 45q-213 0 -213 -158v-78z" />
    <glyph glyph-name="f_i" unicode="fi" horiz-adv-x="1292" 
d="M193 1262q0 154 117 241.5t323 87.5q218 0 375 -104v-211q-123 86 -342 86q-213 0 -213 -158v-78h710v-1126h-258v911h-452v-911h-260v911h-173v215h173v136z" />
    <glyph glyph-name="f_l" unicode="fl" horiz-adv-x="1316" 
d="M193 1262q0 154 117 241.5t323 87.5q165 0 299 -61v31h258v-1561h-258v911h-479v-911h-260v911h-173v215h173v136zM453 1126h479v191q-108 45 -266 45q-213 0 -213 -158v-78z" />
    <glyph glyph-name=".notdef" horiz-adv-x="1255" 
d="M102 584l172 491h175l90 -264h307q-94 48 -94 127q0 67 52 108t136 41t138 -35.5t71 -101.5l-141 -28q-12 55 -64 55q-45 0 -45 -43q0 -30 53 -45l52 -15q78 -22 113.5 -56.5t35.5 -88.5q0 -72 -50.5 -113t-141.5 -41q-78 0 -136 28.5t-77 92.5h-5v-370h-129v370h-39
l39 -112h-133l-35 112h-172l-36 -112h-136zM311 811h99l-50 158zM885 743q0 -29 22 -43t56 -14q25 0 39 11t14 30q0 14 -16 24t-62 25l-37 12l-16 7v-52z" />
    <glyph glyph-name=".null" horiz-adv-x="0" 
 />
    <glyph glyph-name="nonmarkingreturn" horiz-adv-x="682" 
 />
    <glyph glyph-name="space" unicode=" " horiz-adv-x="634" 
 />
    <glyph glyph-name="space" unicode="&#xa0;" horiz-adv-x="634" 
 />
    <glyph glyph-name="exclam" unicode="!" horiz-adv-x="634" 
d="M190 512v1049h259v-1049h-259zM127 160q0 82 55 137t137 55t137.5 -55t55.5 -137q0 -80 -56 -136.5t-137 -56.5t-136.5 56.5t-55.5 136.5z" />
    <glyph glyph-name="quotedbl" unicode="&#x22;" horiz-adv-x="937" 
d="M193 1067l-66 565h313l-65 -565h-182zM504 1632h313l-65 -565h-183z" />
    <glyph glyph-name="numbersign" unicode="#" horiz-adv-x="1540" 
d="M692 0l109 406h-258l-109 -406h-266l108 406h-264l56 239h274l74 273h-285l53 239h295l109 404h266l-109 -404h259l108 404h266l-108 -404h264l-53 -239h-275l-73 -273h282l-53 -239h-295l-109 -406h-266zM608 645h258l74 273h-258z" />
    <glyph glyph-name="dollar" unicode="$" horiz-adv-x="1433" 
d="M600 -258v240q-231 35 -365 175t-135 353h301q3 -94 55 -163t144 -103v448l-10 2q-244 52 -347.5 155t-103.5 286q0 173 127 294t334 152v225h268v-229q201 -41 336.5 -184t141.5 -314h-299q-4 73 -52.5 130t-126.5 87v-415l93 -25q206 -54 306.5 -160t100.5 -284
q0 -184 -133 -299.5t-367 -137.5v-233h-268zM422 1135q0 -62 43 -105.5t135 -75.5v361q-82 -18 -130 -63.5t-48 -116.5zM868 221q111 17 173.5 70.5t62.5 132.5q0 35 -8.5 62t-32 56t-72.5 52t-123 41v-414z" />
    <glyph glyph-name="percent" unicode="%" horiz-adv-x="1552" 
d="M371 967q-126 0 -213.5 90.5t-87.5 222.5q0 130 87.5 220.5t213.5 90.5q129 0 217 -90t88 -221q0 -132 -88 -222.5t-217 -90.5zM78 0l1091 1561h306l-1100 -1561h-297zM236 1280q0 -61 40 -103t99 -42t99 42t40 103q0 60 -41 101.5t-100 41.5q-57 0 -97 -41.5t-40 -101.5
zM877 283q0 132 87.5 221.5t213.5 89.5q129 0 217 -89.5t88 -221.5t-88 -223t-217 -91q-126 0 -213.5 91t-87.5 223zM1042 283q0 -60 41 -102t99 -42t98.5 42t40.5 102q0 61 -41 103t-100 42q-57 0 -97.5 -42t-40.5 -103z" />
    <glyph glyph-name="ampersand" unicode="&#x26;" horiz-adv-x="1613" 
d="M657 -33q-262 0 -415.5 127t-153.5 344q0 134 93 258t255 211q-82 78 -129 167t-47 167q0 161 108 255.5t294 94.5q188 0 297.5 -94.5t109.5 -255.5q0 -113 -76.5 -212t-220.5 -175l313 -367q31 70 45.5 161.5t8.5 174.5h221q12 -118 -20.5 -257t-100.5 -244l287 -322
h-301l-131 150q-90 -86 -205 -134.5t-232 -48.5zM330 449q1 -112 87 -184t218 -72q84 0 167.5 29t147.5 79l-379 455q-111 -57 -176.5 -140.5t-64.5 -166.5zM504 1260q0 -102 145 -244q84 54 134.5 119t50.5 120q0 63 -46 99.5t-126 36.5q-72 0 -115 -35.5t-43 -95.5z" />
    <glyph glyph-name="quotesingle" unicode="'" horiz-adv-x="473" 
d="M145 1067l-65 565h313l-65 -565h-183z" />
    <glyph glyph-name="parenleft" unicode="(" horiz-adv-x="868" 
d="M371 -233q-283 417 -283 935q0 520 283 928h315q-334 -404 -334 -930q0 -530 330 -933h-311z" />
    <glyph glyph-name="parenright" unicode=")" horiz-adv-x="868" 
d="M186 -233q330 403 330 933q0 526 -334 930h316q282 -406 282 -928q0 -520 -282 -935h-312z" />
    <glyph glyph-name="asterisk" unicode="*" horiz-adv-x="1085" 
d="M463 662v280l-187 -192l-116 114l194 187h-274v163h276l-200 187l120 112l187 -198v276h160v-274l184 196l115 -112l-195 -187h277v-163h-275l193 -189l-115 -112l-184 186v-274h-160z" />
    <glyph glyph-name="plus" unicode="+" horiz-adv-x="1478" 
d="M612 150v485h-485v217h485v483h258v-483h486v-217h-486v-485h-258z" />
    <glyph glyph-name="comma" unicode="," horiz-adv-x="477" 
d="M80 -289v576h315l-129 -576h-186z" />
    <glyph glyph-name="hyphen" unicode="-" horiz-adv-x="1017" 
d="M127 578v245h764v-245h-764z" />
    <glyph glyph-name="period" unicode="." horiz-adv-x="546" 
d="M272 -33q-81 0 -136.5 56.5t-55.5 136.5q0 82 55 137t137 55t137.5 -55t55.5 -137q0 -80 -56 -136.5t-137 -56.5z" />
    <glyph glyph-name="slash" unicode="/" horiz-adv-x="1077" 
d="M80 -297l647 1929h268l-653 -1929h-262z" />
    <glyph glyph-name="zero" unicode="0" horiz-adv-x="1472" 
d="M735 -31q-292 0 -463.5 217.5t-171.5 589.5q0 376 171.5 595.5t463.5 219.5q293 0 464 -217.5t171 -591.5q0 -375 -171 -594t-464 -219zM377 776q0 -257 96 -406t262 -149t263.5 151t97.5 410q0 256 -97.5 406.5t-263.5 150.5t-262 -151.5t-96 -411.5z" />
    <glyph glyph-name="one" unicode="1" horiz-adv-x="831" 
d="M457 0v1169q-107 -122 -293 -122h-64v262h58q138 0 218.5 65.5t80.5 177.5v9h274v-1561h-274z" />
    <glyph glyph-name="two" unicode="2" horiz-adv-x="1363" 
d="M111 270q449 254 656.5 451.5t207.5 368.5q0 115 -77 181t-208 66q-138 0 -224.5 -80t-84.5 -206h-279q-2 150 75 274t212.5 195t300.5 71q249 0 406 -140t157 -361q0 -210 -185.5 -428t-528.5 -414h723v-248h-1151v270z" />
    <glyph glyph-name="three" unicode="3" horiz-adv-x="1374" 
d="M686 -33q-270 0 -429 137t-157 367h275q1 -116 86 -184t227 -68q143 0 227 62.5t84 169.5q0 116 -115 183.5t-313 67.5v222q170 0 264.5 59.5t94.5 165.5q0 82 -69.5 137t-172.5 55q-122 0 -198 -58t-76 -150h-264q0 201 150.5 329.5t385.5 128.5q144 0 263 -57.5
t187 -158t68 -222.5q0 -110 -49 -191.5t-141 -127.5q122 -48 190 -148.5t68 -239.5q0 -220 -158.5 -349.5t-427.5 -129.5z" />
    <glyph glyph-name="four" unicode="4" horiz-adv-x="1409" 
d="M100 287v241l453 1033h283l-459 -1026h424v383h272v-383h234v-248h-234v-287h-272v287h-701z" />
    <glyph glyph-name="five" unicode="5" horiz-adv-x="1349" 
d="M676 -31q-168 0 -300 65.5t-204.5 182.5t-71.5 266h267q0 -121 85.5 -197.5t219.5 -76.5q138 0 224.5 88.5t86.5 226.5t-86.5 226t-224.5 88q-93 0 -172 -51t-119 -136l-264 49l133 861h889v-248h-682l-60 -355q121 115 326 115q232 0 379 -152t147 -395
q0 -246 -160.5 -401.5t-412.5 -155.5z" />
    <glyph glyph-name="six" unicode="6" horiz-adv-x="1372" 
d="M702 -33q-277 0 -439.5 208.5t-162.5 563.5q0 411 161 632.5t456 219.5q218 -2 368.5 -124t184.5 -326h-269q-19 95 -96 151t-190 56q-149 0 -242.5 -110.5t-124.5 -324.5q66 75 162 116.5t211 41.5q244 0 397.5 -152.5t153.5 -396.5q0 -246 -159 -400.5t-411 -154.5z
M387 524q0 -138 86 -227.5t219 -89.5q138 0 227 89.5t89 227.5q0 135 -89 223.5t-227 88.5q-133 0 -219 -88.5t-86 -223.5z" />
    <glyph glyph-name="seven" unicode="7" horiz-adv-x="1257" 
d="M303 0l574 1313h-777v248h1055v-218l-571 -1343h-281z" />
    <glyph glyph-name="eight" unicode="8" horiz-adv-x="1390" 
d="M694 -31q-261 0 -427.5 142t-166.5 346q0 129 64 227.5t186 157.5q-89 56 -134.5 136.5t-45.5 176.5q0 122 68 221t188 155t268 56t268 -56t188.5 -155t68.5 -221q0 -95 -45.5 -176.5t-133.5 -136.5q121 -60 184.5 -158.5t63.5 -226.5q0 -204 -166.5 -346t-427.5 -142z
M367 461q0 -111 88.5 -180.5t238.5 -69.5q151 0 240.5 69.5t89.5 180.5q0 114 -88.5 184t-241.5 70q-152 0 -239.5 -70t-87.5 -184zM434 1153q0 -86 70.5 -144.5t189.5 -58.5t190.5 58.5t71.5 144.5t-70.5 140.5t-191.5 54.5q-119 0 -189.5 -57t-70.5 -138z" />
    <glyph glyph-name="nine" unicode="9" horiz-adv-x="1372" 
d="M670 1593q277 0 439.5 -208.5t162.5 -563.5q0 -411 -161 -632.5t-456 -219.5q-218 1 -368.5 124t-184.5 327h269q19 -95 96 -151t190 -56q149 0 242.5 110.5t124.5 323.5q-66 -75 -162 -116.5t-211 -41.5q-244 0 -397.5 152.5t-153.5 396.5q0 246 159 400.5t411 154.5z
M365 1036q0 -135 88.5 -223t226.5 -88q133 0 219 88t86 223q0 138 -86 228t-219 90q-138 0 -226.5 -90t-88.5 -228z" />
    <glyph glyph-name="colon" unicode=":" horiz-adv-x="546" 
d="M272 -31q-81 0 -136.5 56.5t-55.5 136.5q0 82 55 137t137 55t137.5 -55t55.5 -137q0 -80 -56 -136.5t-137 -56.5zM82 924q0 81 55 136.5t135 55.5q82 0 137.5 -55t55.5 -137q0 -80 -56 -136.5t-137 -56.5q-79 0 -134.5 56.5t-55.5 136.5z" />
    <glyph glyph-name="semicolon" unicode=";" horiz-adv-x="546" 
d="M115 -289v576h315l-129 -576h-186zM80 938q0 82 55 137t137 55t137.5 -55t55.5 -137q0 -80 -56 -136.5t-137 -56.5t-136.5 56.5t-55.5 136.5z" />
    <glyph glyph-name="equal" unicode="=" 
d="M127 829v218h1079v-218h-1079zM127 442v215h1079v-215h-1079z" />
    <glyph glyph-name="question" unicode="?" horiz-adv-x="1286" 
d="M428 469q0 114 56 195.5t188 156.5q143 82 194.5 145.5t51.5 143.5q0 101 -77 169.5t-186 68.5q-123 0 -206 -86t-80 -211h-267q-2 149 70 273t199.5 195.5t281.5 71.5q147 0 269 -63t192 -172t70 -240q0 -135 -72.5 -235t-230.5 -197q-108 -66 -150.5 -114t-42.5 -105
v-47h-260v51zM373 162q0 82 55 137t137 55t137.5 -55t55.5 -137q0 -80 -56 -136.5t-137 -56.5t-136.5 56.5t-55.5 136.5z" />
    <glyph glyph-name="at" unicode="@" horiz-adv-x="2043" 
d="M1018 -266q-202 0 -375 68.5t-295 189.5t-191 293t-69 374q0 271 119 483.5t332 330.5t483 118q205 0 379 -67t296 -185.5t190.5 -286.5t68.5 -364q0 -239 -111.5 -377.5t-302.5 -138.5q-88 0 -150 41.5t-92 116.5q-126 -158 -329 -158q-198 0 -323.5 139.5t-125.5 358.5
q0 217 125.5 355t323.5 138q186 0 307 -131v101h197v-652q0 -51 27.5 -83.5t70.5 -32.5q82 0 132 92.5t50 249.5q0 198 -92 353.5t-259.5 242t-381.5 86.5q-212 0 -378.5 -93t-258.5 -259t-92 -378q0 -210 92 -375t257.5 -257.5t375.5 -92.5q114 0 243 44.5t222 115.5
l110 -162q-110 -89 -269.5 -143.5t-305.5 -54.5zM729 670q0 -138 77 -221.5t202 -83.5q122 0 196 83.5t74 221.5q0 134 -74.5 216.5t-195.5 82.5q-125 0 -202 -83t-77 -216z" />
    <glyph glyph-name="A" unicode="A" horiz-adv-x="1662" 
d="M12 0l637 1561h367l635 -1561h-283l-160 408h-751l-160 -408h-285zM555 653h555l-276 709z" />
    <glyph glyph-name="B" unicode="B" horiz-adv-x="1466" 
d="M182 0v1561h662q210 0 340.5 -117t130.5 -305q0 -105 -44 -190.5t-124 -141.5q110 -55 169.5 -150t59.5 -223q0 -201 -136.5 -317.5t-371.5 -116.5h-686zM453 248h413q113 0 178.5 56.5t65.5 154.5q0 104 -65.5 164.5t-178.5 60.5h-413v-436zM453 909h372
q103 0 163.5 55.5t60.5 147.5t-60.5 146.5t-163.5 54.5h-372v-404z" />
    <glyph glyph-name="C" unicode="C" horiz-adv-x="1656" 
d="M858 -31q-164 0 -306.5 59t-244.5 163.5t-160.5 257t-58.5 331.5q0 168 56 317t155 258t244 172.5t315 63.5q276 0 476.5 -150t246.5 -388h-293q-35 134 -150 211t-280 77q-212 0 -351.5 -159.5t-139.5 -401.5q0 -244 140 -402.5t351 -158.5q163 0 279.5 79.5
t154.5 215.5h289q-31 -159 -132.5 -283t-255.5 -193t-335 -69z" />
    <glyph glyph-name="D" unicode="D" horiz-adv-x="1636" 
d="M182 0v1561h551q376 0 595.5 -211t219.5 -572q0 -358 -219.5 -568t-595.5 -210h-551zM453 248h276q254 0 402.5 143t148.5 387q0 246 -149 390.5t-402 144.5h-276v-1065z" />
    <glyph glyph-name="E" unicode="E" horiz-adv-x="1400" 
d="M182 0v1561h1110v-248h-839v-400h612v-245h-612v-422h847v-246h-1118z" />
    <glyph glyph-name="F" unicode="F" horiz-adv-x="1308" 
d="M182 0v1561h1110v-248h-839v-367h587v-246h-587v-700h-271z" />
    <glyph glyph-name="G" unicode="G" horiz-adv-x="1718" 
d="M848 -31q-161 0 -301.5 59t-241.5 163.5t-159 257t-58 331.5q0 225 95 409t273.5 293t407.5 109q271 0 471 -150t246 -388h-293q-35 133 -149 210.5t-275 77.5q-216 0 -356.5 -159.5t-140.5 -401.5q0 -246 144 -403.5t368 -157.5q176 0 308 104t152 277h-413v242h673
v-844h-256v233q-83 -126 -211.5 -194t-283.5 -68z" />
    <glyph glyph-name="H" unicode="H" horiz-adv-x="1781" 
d="M1329 0v653h-876v-653h-271v1561h271v-662h876v662h270v-1561h-270z" />
    <glyph glyph-name="I" unicode="I" horiz-adv-x="634" 
d="M182 0v1561h271v-1561h-271z" />
    <glyph glyph-name="J" unicode="J" horiz-adv-x="1359" 
d="M616 -31q-277 0 -429 153t-152 413q0 83 2 106h270q-2 -20 -2 -102q0 -151 79.5 -232.5t227.5 -81.5q143 0 227.5 85t84.5 229v1022h268v-1020q0 -264 -155 -418t-421 -154z" />
    <glyph glyph-name="K" unicode="K" horiz-adv-x="1525" 
d="M182 0v1561h271v-820l721 820h344l-625 -699l620 -862h-315l-475 680l-270 -307v-373h-271z" />
    <glyph glyph-name="L" unicode="L" horiz-adv-x="1333" 
d="M182 0v1561h271v-1313h866v-248h-1137z" />
    <glyph glyph-name="M" unicode="M" horiz-adv-x="2131" 
d="M182 0v1561h420l465 -1305l463 1305h420v-1561h-271v1231l-450 -1231h-322l-456 1239v-1239h-269z" />
    <glyph glyph-name="N" unicode="N" horiz-adv-x="1777" 
d="M182 0v1561h377l764 -1260v1260h272v-1561h-378l-764 1255v-1255h-271z" />
    <glyph glyph-name="O" unicode="O" horiz-adv-x="1804" 
d="M903 -31q-237 0 -422.5 102.5t-289 287.5t-103.5 421t103.5 421t289 287.5t422.5 102.5q177 0 328 -60t257.5 -166.5t167 -258t60.5 -328.5q0 -176 -60.5 -326.5t-167 -256.5t-257.5 -166t-328 -60zM369 780q0 -246 149 -400.5t385 -154.5q238 0 387.5 153.5t149.5 399.5
q0 247 -149.5 403t-387.5 156q-236 0 -385 -155t-149 -402z" />
    <glyph glyph-name="P" unicode="P" horiz-adv-x="1380" 
d="M182 0v1561h637q241 0 393 -140.5t152 -363.5t-151.5 -362.5t-393.5 -139.5h-366v-555h-271zM453 799h364q123 0 201 71.5t78 186.5q0 116 -77.5 188t-201.5 72h-364v-518z" />
    <glyph glyph-name="Q" unicode="Q" horiz-adv-x="1759" 
d="M1407 0l-76 76q-190 -107 -428 -107q-237 0 -422.5 102.5t-289 287.5t-103.5 421t103.5 421t289 287.5t422.5 102.5q177 0 328 -60t257.5 -166.5t167 -258t60.5 -328.5q0 -328 -192 -545l233 -233h-350zM369 780q0 -246 149 -400.5t385 -154.5q128 0 234 47l-383 383h344
l231 -231q111 145 111 354q0 247 -149.5 403t-387.5 156q-236 0 -385 -155t-149 -402z" />
    <glyph glyph-name="R" unicode="R" horiz-adv-x="1464" 
d="M1149 0l-326 555h-4h-366v-555h-271v1561h637q241 0 393 -140.5t152 -363.5q0 -155 -75.5 -272.5t-209.5 -178.5l383 -606h-313zM453 799h364q123 0 201 71.5t78 186.5q0 116 -77.5 188t-201.5 72h-364v-518z" />
    <glyph glyph-name="S" unicode="S" horiz-adv-x="1460" 
d="M770 -31q-305 0 -487 147t-183 394h310q3 -135 106.5 -215t274.5 -80q154 0 243.5 56.5t89.5 152.5q0 37 -9 65t-35.5 57.5t-82.5 53t-141 41.5l-256 53q-248 52 -353.5 155t-105.5 286q0 201 169 328.5t433 127.5q168 0 312.5 -73.5t227.5 -191t87 -247.5h-303
q-7 109 -104 177.5t-242 68.5q-128 0 -209.5 -48t-81.5 -142q0 -73 64 -122.5t204 -84.5l281 -72q209 -54 312.5 -160.5t103.5 -283.5q0 -205 -168 -324t-457 -119z" />
    <glyph glyph-name="T" unicode="T" horiz-adv-x="1443" 
d="M588 0v1313h-580v248h1428v-248h-576v-1313h-272z" />
    <glyph glyph-name="U" unicode="U" horiz-adv-x="1665" 
d="M831 -31q-306 0 -485.5 177.5t-179.5 478.5v936h270v-936q0 -188 105.5 -296t289.5 -108q185 0 292.5 108.5t107.5 295.5v936h268v-936q0 -301 -180.5 -478.5t-487.5 -177.5z" />
    <glyph glyph-name="V" unicode="V" horiz-adv-x="1648" 
d="M639 0l-633 1561h283l536 -1362l537 1362h280l-632 -1561h-371z" />
    <glyph glyph-name="W" unicode="W" horiz-adv-x="2285" 
d="M444 0l-438 1561h262l355 -1334l358 1334h326l356 -1342l354 1342h262l-444 -1561h-360l-332 1268l-334 -1268h-365z" />
    <glyph glyph-name="X" unicode="X" horiz-adv-x="1447" 
d="M2 0l573 803l-536 758h321l365 -551l362 551h322l-535 -758l572 -803h-324l-397 586l-397 -586h-326z" />
    <glyph glyph-name="Y" unicode="Y" horiz-adv-x="1501" 
d="M614 0v578l-608 983h307l437 -736l438 736h307l-610 -986v-575h-271z" />
    <glyph glyph-name="Z" unicode="Z" horiz-adv-x="1480" 
d="M70 0v293l1052 1020h-993v248h1284v-293l-1071 -1041h1073v-227h-1345z" />
    <glyph glyph-name="bracketleft" unicode="[" horiz-adv-x="925" 
d="M182 -233v1865h561v-211h-309v-1444h307v-210h-559z" />
    <glyph glyph-name="backslash" unicode="\" horiz-adv-x="1077" 
d="M997 -297h-262l-653 1929h268z" />
    <glyph glyph-name="bracketright" unicode="]" horiz-adv-x="925" 
d="M743 -233h-559v210h308v1444h-310v211h561v-1865z" />
    <glyph glyph-name="underscore" unicode="_" horiz-adv-x="1323" 
d="M0 -299v246h1321v-246h-1321z" />
    <glyph glyph-name="a" unicode="a" horiz-adv-x="1273" 
d="M498 -31q-194 0 -307 92.5t-113 251.5q0 170 127.5 265.5t349.5 95.5h338q-8 123 -79.5 188.5t-201.5 65.5q-98 0 -163 -46.5t-78 -131.5h-265q15 169 161 288t362 119q236 0 380 -140t144 -376v-641h-260v152q-150 -183 -395 -183zM338 334q0 -64 55.5 -104t143.5 -40
q116 0 218 77t130 210h-285q-140 0 -201 -36t-61 -107z" />
    <glyph glyph-name="b" unicode="b" horiz-adv-x="1359" 
d="M750 -31q-222 0 -365 162v-131h-258v1561h258v-566q145 164 365 164q235 0 382.5 -167t147.5 -429q0 -261 -148 -427.5t-382 -166.5zM385 563q0 -159 90.5 -259.5t233.5 -100.5q140 0 230.5 100.5t90.5 259.5t-90.5 261t-230.5 102q-143 0 -233.5 -101.5t-90.5 -261.5z
" />
    <glyph glyph-name="c" unicode="c" horiz-adv-x="1259" 
d="M651 -31q-245 0 -408 167t-163 427q0 163 71 298t202.5 215.5t297.5 80.5q207 0 358 -118.5t181 -311.5h-264q-21 90 -97.5 143.5t-177.5 53.5q-138 0 -227.5 -101.5t-89.5 -259.5q0 -159 90 -259.5t227 -100.5q105 0 181 56t96 149h262q-30 -191 -179 -315t-360 -124z
" />
    <glyph glyph-name="d" unicode="d" horiz-adv-x="1359" 
d="M610 -31q-234 0 -382 166.5t-148 427.5q0 262 147.5 429t382.5 167q220 0 365 -164v566h258v-1561h-258v131q-143 -162 -365 -162zM330 563q0 -159 90.5 -259.5t230.5 -100.5q143 0 233.5 100.5t90.5 259.5q0 160 -90.5 261.5t-233.5 101.5q-140 0 -230.5 -102
t-90.5 -261z" />
    <glyph glyph-name="e" unicode="e" horiz-adv-x="1277" 
d="M653 -31q-264 0 -418.5 160t-154.5 434q0 164 66 298t194.5 215t296.5 81q85 0 163 -20t151 -67t126.5 -117t86 -176.5t32.5 -239.5v-33h-860q13 -146 95 -223.5t222 -77.5q101 0 179 49t98 125h260q-10 -111 -84 -204.5t-194 -148.5t-259 -55zM352 702h572
q-27 103 -102 163.5t-185 60.5q-104 0 -179 -60.5t-106 -163.5z" />
    <glyph glyph-name="f" unicode="f" horiz-adv-x="768" 
d="M193 1262q0 154 84.5 241.5t230.5 87.5q72 0 135 -24t98 -62v-209q-69 66 -159 66q-69 0 -99 -36.5t-30 -121.5v-78h288v-215h-288v-911h-260v911h-173v215h173v136z" />
    <glyph glyph-name="g" unicode="g" horiz-adv-x="1343" 
d="M614 -487q-235 0 -383.5 122t-148.5 314h250q0 -99 83 -162t214 -63q159 0 243 80t84 231v127q-142 -158 -356 -158q-227 0 -371.5 162t-144.5 414q0 253 144 415t372 162q217 0 356 -158v127h261v-1073q0 -260 -157 -400t-446 -140zM352 580q0 -152 84.5 -246t218.5 -94
q135 0 218 94t83 248q0 150 -83 243t-218 93q-134 0 -218.5 -94t-84.5 -244z" />
    <glyph glyph-name="h" unicode="h" 
d="M948 604q0 157 -76.5 239.5t-203.5 82.5q-132 0 -207.5 -85t-75.5 -255v-586h-258v1561h258v-566q62 78 154 121t202 43q210 0 337.5 -140t127.5 -396v-623h-258v604z" />
    <glyph glyph-name="i" unicode="i" horiz-adv-x="512" 
d="M127 0v1126h258v-1126h-258zM94 1407q0 66 47.5 111t116.5 45t117.5 -45t48.5 -111q0 -67 -48.5 -114.5t-117.5 -47.5t-116.5 47t-47.5 115z" />
    <glyph glyph-name="j" unicode="j" horiz-adv-x="561" 
d="M119 -518q-72 0 -135.5 24t-96.5 62v209q66 -66 160 -66q57 0 92 35t35 104v1276h260v-1314q0 -154 -90 -242t-225 -88zM139 1407q0 66 47.5 111t116.5 45t117.5 -45t48.5 -111q0 -67 -48.5 -114.5t-117.5 -47.5t-116.5 47t-47.5 115z" />
    <glyph glyph-name="k" unicode="k" horiz-adv-x="1249" 
d="M127 0v1561h258v-943l504 508h332l-459 -456l481 -670h-297l-348 506l-213 -217v-289h-258z" />
    <glyph glyph-name="l" unicode="l" horiz-adv-x="512" 
d="M127 0v1561h258v-1561h-258z" />
    <glyph glyph-name="m" unicode="m" horiz-adv-x="2048" 
d="M1665 604q0 149 -68 234.5t-186 85.5q-126 0 -193 -87t-67 -251v-586h-246v604q0 149 -66.5 234.5t-183.5 85.5q-270 0 -270 -338v-586h-258v1126h258v-131q118 162 330 162q134 0 232 -65.5t151 -186.5q52 118 153.5 185t235.5 67q203 0 320.5 -143.5t117.5 -390.5v-623
h-260v604z" />
    <glyph glyph-name="n" unicode="n" 
d="M948 604q0 149 -75 235.5t-205 86.5q-137 0 -210 -88t-73 -252v-586h-258v1126h258v-131q61 78 152 120t204 42q214 0 339.5 -143.5t125.5 -390.5v-623h-258v604z" />
    <glyph glyph-name="o" unicode="o" horiz-adv-x="1331" 
d="M666 -31q-167 0 -300.5 75t-209.5 211t-76 308q0 123 42.5 232t118 189t186 126.5t239.5 46.5q166 0 298.5 -74.5t208.5 -210.5t76 -309q0 -165 -72 -300t-206 -214.5t-305 -79.5zM334 563q0 -160 92 -260t240 -100q149 0 241 100.5t92 259.5q0 157 -93.5 259t-239.5 102
q-148 0 -240 -101.5t-92 -259.5z" />
    <glyph glyph-name="p" unicode="p" horiz-adv-x="1359" 
d="M750 -31q-109 0 -203 42.5t-162 121.5v-620h-258v1613h258v-131q143 162 365 162q233 0 381.5 -166.5t148.5 -427.5q0 -260 -148 -427t-382 -167zM385 563q0 -160 90.5 -261t233.5 -101q141 0 231 101t90 261t-90 261.5t-231 101.5q-143 0 -233.5 -101.5t-90.5 -261.5z
" />
    <glyph glyph-name="q" unicode="q" horiz-adv-x="1359" 
d="M610 -31q-234 0 -382 167t-148 427q0 261 148.5 427.5t381.5 166.5q222 0 365 -162v131h258v-1613h-258v620q-68 -79 -162 -121.5t-203 -42.5zM330 563q0 -160 90 -261t231 -101q143 0 233.5 101t90.5 261t-90.5 261.5t-233.5 101.5q-141 0 -231 -101.5t-90 -261.5z" />
    <glyph glyph-name="r" unicode="r" horiz-adv-x="866" 
d="M127 0v1126h258v-159q51 89 133 139.5t176 50.5q82 0 146 -33v-260q-25 22 -69 35.5t-85 13.5q-150 0 -225.5 -102t-75.5 -297v-514h-258z" />
    <glyph glyph-name="s" unicode="s" horiz-adv-x="1128" 
d="M594 -31q-226 0 -365 117t-133 303h260q-3 -92 67 -150.5t183 -58.5q99 0 160 36t61 95q0 24 -5.5 40t-23 34t-54.5 32.5t-95 26.5l-184 39q-340 70 -340 332q0 152 124.5 247t323.5 95q133 0 242 -53t170 -145t57 -203h-254q3 78 -62 130t-165 52q-85 0 -138.5 -34.5
t-53.5 -88.5q0 -46 41 -75t139 -54l201 -51q311 -77 311 -334q0 -148 -130 -240t-337 -92z" />
    <glyph glyph-name="t" unicode="t" horiz-adv-x="774" 
d="M510 -31q-147 0 -231 89t-84 243v610h-183v215h183v287h258v-287h288v-215h-288v-551q0 -85 30.5 -122t100.5 -37q91 0 157 63v-207q-33 -38 -97 -63t-134 -25z" />
    <glyph glyph-name="u" unicode="u" 
d="M381 522q0 -149 75 -235t206 -86q136 0 209 88t73 252v585h258v-1126h-258v131q-61 -78 -152 -120t-204 -42q-214 0 -339.5 144t-125.5 391v622h258v-604z" />
    <glyph glyph-name="v" unicode="v" horiz-adv-x="1198" 
d="M432 0l-424 1126h260l330 -919l332 919h260l-426 -1126h-332z" />
    <glyph glyph-name="w" unicode="w" horiz-adv-x="1869" 
d="M358 0l-350 1126h254l266 -903l246 903h324l243 -903l267 903h254l-353 -1126h-333l-240 881l-240 -881h-338z" />
    <glyph glyph-name="x" unicode="x" horiz-adv-x="1251" 
d="M8 0l473 592l-422 534h308l258 -348l260 348h307l-422 -532l473 -594h-309l-309 403l-308 -403h-309z" />
    <glyph glyph-name="y" unicode="y" horiz-adv-x="1202" 
d="M268 -487l195 452l-455 1161h260l318 -866l344 866h264l-676 -1613h-250z" />
    <glyph glyph-name="z" unicode="z" horiz-adv-x="1103" 
d="M51 0v211l664 700h-621v215h932v-213l-659 -698h661v-215h-977z" />
    <glyph glyph-name="braceleft" unicode="{" horiz-adv-x="985" 
d="M727 -233q-393 0 -393 337v332q0 187 -152 187v153q152 0 152 189v329q0 338 393 338h76v-235q-215 0 -215 -140v-321q0 -186 -154 -236q154 -53 154 -235v-324q0 -137 215 -137v-237h-76z" />
    <glyph glyph-name="bar" unicode="|" horiz-adv-x="634" 
d="M182 -254v1929h271v-1929h-271z" />
    <glyph glyph-name="braceright" unicode="}" horiz-adv-x="985" 
d="M258 -233h-76v237q215 0 215 137v324q0 182 154 235q-154 50 -154 236v321q0 140 -215 140v235h76q393 0 393 -338v-329q0 -189 152 -189v-153q-152 0 -152 -187v-332q0 -337 -393 -337z" />
    <glyph glyph-name="exclamdown" unicode="&#xa1;" horiz-adv-x="634" 
d="M449 635v-1049h-259v1049h259zM127 987q0 80 55.5 136.5t136.5 56.5t137 -56.5t56 -136.5q0 -82 -55.5 -137t-137.5 -55t-137 55t-55 137z" />
    <glyph glyph-name="cent" unicode="&#xa2;" horiz-adv-x="1216" 
d="M498 -201v185q-186 45 -302 201.5t-116 377.5q0 213 114.5 374t303.5 206v186h258v-186q154 -34 259.5 -144.5t131.5 -271.5h-254q-13 58 -49 101t-88 67v-666q115 58 139 179h252q-25 -159 -130 -274t-261 -150v-185h-258zM326 563q0 -115 46.5 -202.5t125.5 -127.5v660
q-79 -42 -125.5 -129t-46.5 -201z" />
    <glyph glyph-name="sterling" unicode="&#xa3;" horiz-adv-x="1282" 
d="M100 248q140 0 230 69.5t90 176.5q0 66 -27 149h-293v246h195q-43 120 -43 225q0 211 132.5 343.5t344.5 133.5q217 1 352.5 -131t135.5 -344h-252q0 104 -56.5 169t-146.5 65q-105 0 -170.5 -70t-65.5 -182q0 -83 45 -209h408v-246h-324q21 -98 19 -176
q-3 -135 -84 -219h586v-246h-1076v246z" />
    <glyph glyph-name="currency" unicode="&#xa4;" horiz-adv-x="1347" 
d="M674 266q-153 0 -275 80l-139 -139l-178 176l147 145q-57 111 -57 238q0 136 68 256l-144 143l176 178l146 -145q115 70 256 70t256 -70l145 143l176 -176l-145 -143q70 -115 70 -256q0 -126 -58 -236l148 -147l-176 -176l-142 139q-122 -80 -274 -80zM403 764
q0 -113 78.5 -190.5t192.5 -77.5t192 77.5t78 190.5q0 114 -78 193t-192 79t-192.5 -79t-78.5 -193z" />
    <glyph glyph-name="yen" unicode="&#xa5;" horiz-adv-x="1501" 
d="M135 571v246h332l-461 744h307l437 -736l438 736h307l-461 -744h312v-246h-461v-98h461v-248h-461v-225h-271v225h-479v248h479v98h-479z" />
    <glyph glyph-name="copyright" unicode="&#xa9;" horiz-adv-x="1812" 
d="M907 -31q-178 0 -330.5 60t-260 166t-168 257t-60.5 328t60.5 328t168 257t260 166t330.5 60q177 0 328.5 -60t258.5 -166.5t167.5 -258t60.5 -328.5q0 -176 -60.5 -326.5t-167.5 -256.5t-258.5 -166t-328.5 -60zM276 780q0 -284 176.5 -464.5t454.5 -180.5
q181 0 324.5 81.5t224 228.5t80.5 333q0 285 -176.5 466t-452.5 181q-278 0 -454.5 -180.5t-176.5 -464.5zM446 770q0 213 131.5 349t335.5 136q167 0 290 -98t149 -252h-215q-19 70 -82.5 116t-141.5 46q-114 0 -186 -83t-72 -214q0 -129 72 -212t186 -83q82 0 144.5 47.5
t81.5 122.5h213q-25 -158 -147.5 -258t-291.5 -100q-205 0 -336 135t-131 348z" />
    <glyph glyph-name="guillemotleft" unicode="&#xab;" horiz-adv-x="1267" 
d="M1143 201l-477 237v334l477 240v-275l-285 -131l285 -133v-272zM127 438v334l477 240v-275l-285 -131l285 -133v-272z" />
    <glyph glyph-name="registered" unicode="&#xae;" horiz-adv-x="1812" 
d="M907 -31q-178 0 -330.5 60t-260 166t-168 257t-60.5 328t60.5 328t168 257t260 166t330.5 60q177 0 328.5 -60t258.5 -166.5t167.5 -258t60.5 -328.5q0 -176 -60.5 -326.5t-167.5 -256.5t-258.5 -166t-328.5 -60zM276 780q0 -284 176.5 -464.5t454.5 -180.5
q181 0 324.5 81.5t224 228.5t80.5 333q0 285 -176.5 466t-452.5 181q-278 0 -454.5 -180.5t-176.5 -464.5zM563 356v875h373q140 0 228.5 -78.5t88.5 -202.5q0 -82 -39.5 -145.5t-109.5 -99.5l225 -349h-219l-188 310h-162v-310h-197zM760 823h147q66 0 108 35t42 92
q0 55 -42 90t-108 35h-147v-252z" />
    <glyph glyph-name="plusminus" unicode="&#xb1;" horiz-adv-x="1568" 
d="M127 100v217h1321v-217h-1321zM176 862v217h486v484h258v-484h485v-217h-485v-485h-258v485h-486z" />
    <glyph glyph-name="periodcentered" unicode="&#xb7;" horiz-adv-x="634" 
d="M319 532q-81 0 -136.5 56.5t-55.5 136.5q0 82 55 137.5t137 55.5t137.5 -55.5t55.5 -137.5q0 -80 -56 -136.5t-137 -56.5z" />
    <glyph glyph-name="guillemotright" unicode="&#xbb;" horiz-adv-x="1267" 
d="M129 201v272l285 133l-285 131v275l477 -240v-334zM668 201v272l284 133l-284 131v275l477 -240v-334z" />
    <glyph glyph-name="questiondown" unicode="&#xbf;" horiz-adv-x="1286" 
d="M858 676q0 -114 -56 -195.5t-188 -156.5q-142 -82 -193.5 -145.5t-51.5 -143.5q0 -101 76.5 -169.5t185.5 -68.5q123 0 206.5 86.5t80.5 210.5h266q2 -149 -70 -273t-199.5 -195.5t-281.5 -71.5q-147 0 -269 63t-192 172t-70 240q0 135 73 235t231 197q108 66 150 114
t42 105v47h260v-51zM528 983q0 80 56 136.5t137 56.5t136.5 -56.5t55.5 -136.5q0 -82 -55 -137t-137 -55t-137.5 55t-55.5 137z" />
    <glyph glyph-name="Agrave" unicode="&#xc0;" horiz-adv-x="1662" 
d="M12 0l637 1561h367l635 -1561h-283l-160 408h-751l-160 -408h-285zM422 2019h299l190 -327h-194zM555 653h555l-276 709z" />
    <glyph glyph-name="Aacute" unicode="&#xc1;" horiz-adv-x="1662" 
d="M12 0l637 1561h367l635 -1561h-283l-160 408h-751l-160 -408h-285zM555 653h555l-276 709zM741 1692l193 327h299l-297 -327h-195z" />
    <glyph glyph-name="Acircumflex" unicode="&#xc2;" horiz-adv-x="1662" 
d="M12 0l637 1561h367l635 -1561h-283l-160 408h-751l-160 -408h-285zM494 1704l180 315h317l180 -315h-229l-111 213l-108 -213h-229zM555 653h555l-276 709z" />
    <glyph glyph-name="Atilde" unicode="&#xc3;" horiz-adv-x="1662" 
d="M12 0l637 1561h367l635 -1561h-283l-160 408h-751l-160 -408h-285zM471 1786q8 109 61.5 173t139.5 64q44 0 82 -18.5t66 -45t54 -53t56 -45t61 -18.5q51 0 87.5 40.5t43.5 107.5l74 -93q-7 -109 -62 -172t-141 -63q-41 0 -78 18.5t-64.5 44.5t-54 52t-56.5 44.5
t-60 18.5q-54 0 -91 -40t-44 -109zM555 653h555l-276 709z" />
    <glyph glyph-name="Adieresis" unicode="&#xc4;" horiz-adv-x="1662" 
d="M12 0l637 1561h367l635 -1561h-283l-160 408h-751l-160 -408h-285zM434 1866q0 66 47.5 110.5t116.5 44.5t117.5 -44.5t48.5 -110.5q0 -67 -48.5 -114.5t-117.5 -47.5t-116.5 47t-47.5 115zM555 653h555l-276 709zM901 1866q0 66 47.5 110.5t116.5 44.5t117.5 -44.5
t48.5 -110.5q0 -67 -48.5 -114.5t-117.5 -47.5t-116.5 47t-47.5 115z" />
    <glyph glyph-name="Aring" unicode="&#xc5;" horiz-adv-x="1662" 
d="M12 0l637 1561h367l635 -1561h-283l-160 408h-751l-160 -408h-285zM555 653h555l-276 709zM604 1872q0 95 66.5 161t163.5 66q95 0 161 -66t66 -161q0 -98 -65.5 -164t-161.5 -66q-97 0 -163.5 66t-66.5 164zM735 1872q0 -41 29 -69.5t70 -28.5q40 0 68 28.5t28 69.5
t-28 68.5t-68 27.5q-42 0 -70.5 -27.5t-28.5 -68.5z" />
    <glyph glyph-name="AE" unicode="&#xc6;" horiz-adv-x="2267" 
d="M12 0l744 1561h1405v-248h-842v-400h612v-245h-612v-422h850v-246h-1120v408h-566l-186 -408h-285zM598 653h451v660h-146z" />
    <glyph glyph-name="Ccedilla" unicode="&#xc7;" horiz-adv-x="1656" 
d="M758 -424q-57 11 -104 40.5t-72 70.5l30 161q43 -53 111 -65q43 -6 72.5 10.5t38.5 54.5q6 38 -15 73t-61 54q-146 17 -269.5 82t-212 168t-138.5 246t-50 309q0 168 56 317t155 258t244 172.5t315 63.5q276 0 476.5 -150t246.5 -388h-293q-35 134 -150 211t-280 77
q-212 0 -351.5 -159.5t-139.5 -401.5q0 -244 140 -402.5t351 -158.5q163 0 279.5 79.5t154.5 215.5h289q-44 -225 -224 -374t-431 -169v-26q48 -34 71 -92.5t13 -120.5q-17 -91 -84.5 -133t-167.5 -23z" />
    <glyph glyph-name="Egrave" unicode="&#xc8;" horiz-adv-x="1400" 
d="M182 0v1561h1110v-248h-839v-400h612v-245h-612v-422h847v-246h-1118zM307 2019h299l191 -327h-195z" />
    <glyph glyph-name="Eacute" unicode="&#xc9;" horiz-adv-x="1400" 
d="M182 0v1561h1110v-248h-839v-400h612v-245h-612v-422h847v-246h-1118zM627 1692l192 327h299l-297 -327h-194z" />
    <glyph glyph-name="Ecircumflex" unicode="&#xca;" horiz-adv-x="1400" 
d="M182 0v1561h1110v-248h-839v-400h612v-245h-612v-422h847v-246h-1118zM379 1704l180 315h318l180 -315h-230l-110 213l-109 -213h-229z" />
    <glyph glyph-name="Edieresis" unicode="&#xcb;" horiz-adv-x="1400" 
d="M182 0v1561h1110v-248h-839v-400h612v-245h-612v-422h847v-246h-1118zM319 1866q0 66 47.5 110.5t116.5 44.5t117.5 -44.5t48.5 -110.5q0 -67 -48.5 -114.5t-117.5 -47.5t-116.5 47t-47.5 115zM786 1866q0 66 47.5 110.5t116.5 44.5t117.5 -44.5t48.5 -110.5
q0 -67 -48.5 -114.5t-117.5 -47.5t-116.5 47t-47.5 115z" />
    <glyph glyph-name="Igrave" unicode="&#xcc;" horiz-adv-x="634" 
d="M182 0v1561h271v-1561h-271zM-92 2019h299l190 -327h-194z" />
    <glyph glyph-name="Iacute" unicode="&#xcd;" horiz-adv-x="634" 
d="M182 0v1561h271v-1561h-271zM227 1692l193 327h299l-297 -327h-195z" />
    <glyph glyph-name="Icircumflex" unicode="&#xce;" horiz-adv-x="634" 
d="M182 0v1561h271v-1561h-271zM-20 1704l180 315h317l180 -315h-229l-111 213l-108 -213h-229z" />
    <glyph glyph-name="Idieresis" unicode="&#xcf;" horiz-adv-x="634" 
d="M182 0v1561h271v-1561h-271zM-80 1866q0 66 47.5 110.5t116.5 44.5t117.5 -44.5t48.5 -110.5q0 -67 -48.5 -114.5t-117.5 -47.5t-116.5 47t-47.5 115zM387 1866q0 66 47.5 110.5t116.5 44.5t117.5 -44.5t48.5 -110.5q0 -67 -48.5 -114.5t-117.5 -47.5t-116.5 47
t-47.5 115z" />
    <glyph glyph-name="Eth" unicode="&#xd0;" horiz-adv-x="1691" 
d="M236 0v643h-205v246h205v672h550q376 0 596 -211t220 -572q0 -358 -220 -568t-596 -210h-550zM506 248h276q254 0 402.5 143t148.5 387q0 246 -149 390.5t-402 144.5h-276v-424h389v-246h-389v-395z" />
    <glyph glyph-name="Ntilde" unicode="&#xd1;" horiz-adv-x="1777" 
d="M182 0v1561h377l764 -1260v1260h272v-1561h-378l-764 1255v-1255h-271zM526 1786q8 109 61.5 173t139.5 64q44 0 82.5 -18.5t66 -45t53.5 -53t56.5 -45t61.5 -18.5q51 0 87.5 40.5t43.5 107.5l73 -93q-8 -109 -62 -172t-140 -63q-49 0 -95 28t-75.5 61t-68 61t-75.5 28
q-54 0 -91 -40t-44 -109z" />
    <glyph glyph-name="Ograve" unicode="&#xd2;" horiz-adv-x="1804" 
d="M903 -31q-237 0 -422.5 102.5t-289 287.5t-103.5 421t103.5 421t289 287.5t422.5 102.5q177 0 328 -60t257.5 -166.5t167 -258t60.5 -328.5q0 -176 -60.5 -326.5t-167 -256.5t-257.5 -166t-328 -60zM369 780q0 -246 149 -400.5t385 -154.5q238 0 387.5 153.5t149.5 399.5
q0 247 -149.5 403t-387.5 156q-236 0 -385 -155t-149 -402zM492 2019h299l190 -327h-195z" />
    <glyph glyph-name="Oacute" unicode="&#xd3;" horiz-adv-x="1804" 
d="M903 -31q-237 0 -422.5 102.5t-289 287.5t-103.5 421t103.5 421t289 287.5t422.5 102.5q177 0 328 -60t257.5 -166.5t167 -258t60.5 -328.5q0 -176 -60.5 -326.5t-167 -256.5t-257.5 -166t-328 -60zM369 780q0 -246 149 -400.5t385 -154.5q238 0 387.5 153.5t149.5 399.5
q0 247 -149.5 403t-387.5 156q-236 0 -385 -155t-149 -402zM811 1692l193 327h299l-297 -327h-195z" />
    <glyph glyph-name="Ocircumflex" unicode="&#xd4;" horiz-adv-x="1804" 
d="M903 -31q-237 0 -422.5 102.5t-289 287.5t-103.5 421t103.5 421t289 287.5t422.5 102.5q177 0 328 -60t257.5 -166.5t167 -258t60.5 -328.5q0 -176 -60.5 -326.5t-167 -256.5t-257.5 -166t-328 -60zM369 780q0 -246 149 -400.5t385 -154.5q238 0 387.5 153.5t149.5 399.5
q0 247 -149.5 403t-387.5 156q-236 0 -385 -155t-149 -402zM563 1704l180 315h318l180 -315h-229l-111 213l-108 -213h-230z" />
    <glyph glyph-name="Otilde" unicode="&#xd5;" horiz-adv-x="1804" 
d="M903 -31q-237 0 -422.5 102.5t-289 287.5t-103.5 421t103.5 421t289 287.5t422.5 102.5q177 0 328 -60t257.5 -166.5t167 -258t60.5 -328.5q0 -176 -60.5 -326.5t-167 -256.5t-257.5 -166t-328 -60zM369 780q0 -246 149 -400.5t385 -154.5q238 0 387.5 153.5t149.5 399.5
q0 247 -149.5 403t-387.5 156q-236 0 -385 -155t-149 -402zM541 1786q8 109 61 173t139 64q44 0 82.5 -18.5t66 -45t53.5 -53t56.5 -45t61.5 -18.5q51 0 87.5 40.5t43.5 107.5l74 -93q-7 -109 -62 -172t-141 -63q-41 0 -78 18.5t-64.5 44.5t-54 52t-56.5 44.5t-60 18.5
q-54 0 -91.5 -40t-44.5 -109z" />
    <glyph glyph-name="Odieresis" unicode="&#xd6;" horiz-adv-x="1804" 
d="M903 -31q-237 0 -422.5 102.5t-289 287.5t-103.5 421t103.5 421t289 287.5t422.5 102.5q177 0 328 -60t257.5 -166.5t167 -258t60.5 -328.5q0 -176 -60.5 -326.5t-167 -256.5t-257.5 -166t-328 -60zM369 780q0 -246 149 -400.5t385 -154.5q238 0 387.5 153.5t149.5 399.5
q0 247 -149.5 403t-387.5 156q-236 0 -385 -155t-149 -402zM504 1866q0 66 47.5 110.5t116.5 44.5t117.5 -44.5t48.5 -110.5q0 -67 -48.5 -114.5t-117.5 -47.5t-116.5 47t-47.5 115zM971 1866q0 66 47.5 110.5t116.5 44.5t117 -44.5t48 -110.5q0 -68 -48 -115t-117 -47
t-116.5 47t-47.5 115z" />
    <glyph glyph-name="multiply" unicode="&#xd7;" horiz-adv-x="1312" 
d="M287 203l-160 157l373 375l-371 371l160 160l370 -373l371 373l160 -160l-373 -373l373 -373l-160 -157l-371 372z" />
    <glyph glyph-name="Oslash" unicode="&#xd8;" horiz-adv-x="1804" 
d="M2 0l248 272q-162 214 -162 508q0 236 103.5 421t289 287.5t422.5 102.5q252 0 443 -116l143 157h311l-276 -305q192 -217 192 -549q0 -176 -60.5 -326.5t-167 -256.5t-257.5 -166t-328 -60q-280 0 -485 144l-103 -113h-313zM365 780q0 -169 75 -301l723 797
q-119 61 -262 61q-237 0 -386.5 -155t-149.5 -402zM598 311q131 -86 303 -86q238 0 386.5 153.5t148.5 399.5q0 197 -101 344z" />
    <glyph glyph-name="Ugrave" unicode="&#xd9;" horiz-adv-x="1665" 
d="M831 -31q-306 0 -485.5 177.5t-179.5 478.5v936h270v-936q0 -188 105.5 -296t289.5 -108q185 0 292.5 108.5t107.5 295.5v936h268v-936q0 -301 -180.5 -478.5t-487.5 -177.5zM422 2019h299l190 -327h-194z" />
    <glyph glyph-name="Uacute" unicode="&#xda;" horiz-adv-x="1665" 
d="M831 -31q-306 0 -485.5 177.5t-179.5 478.5v936h270v-936q0 -188 105.5 -296t289.5 -108q185 0 292.5 108.5t107.5 295.5v936h268v-936q0 -301 -180.5 -478.5t-487.5 -177.5zM741 1692l193 327h299l-297 -327h-195z" />
    <glyph glyph-name="Ucircumflex" unicode="&#xdb;" horiz-adv-x="1665" 
d="M831 -31q-306 0 -485.5 177.5t-179.5 478.5v936h270v-936q0 -188 105.5 -296t289.5 -108q185 0 292.5 108.5t107.5 295.5v936h268v-936q0 -301 -180.5 -478.5t-487.5 -177.5zM494 1704l180 315h317l180 -315h-229l-111 213l-108 -213h-229z" />
    <glyph glyph-name="Udieresis" unicode="&#xdc;" horiz-adv-x="1665" 
d="M831 -31q-306 0 -485.5 177.5t-179.5 478.5v936h270v-936q0 -188 105.5 -296t289.5 -108q185 0 292.5 108.5t107.5 295.5v936h268v-936q0 -301 -180.5 -478.5t-487.5 -177.5zM434 1866q0 66 47.5 110.5t116.5 44.5t117.5 -44.5t48.5 -110.5q0 -67 -48.5 -114.5
t-117.5 -47.5t-116.5 47t-47.5 115zM901 1866q0 66 47.5 110.5t116.5 44.5t117.5 -44.5t48.5 -110.5q0 -67 -48.5 -114.5t-117.5 -47.5t-116.5 47t-47.5 115z" />
    <glyph glyph-name="Yacute" unicode="&#xdd;" horiz-adv-x="1501" 
d="M614 0v578l-608 983h307l437 -736l438 736h307l-610 -986v-575h-271zM659 1692l193 327h299l-297 -327h-195z" />
    <glyph glyph-name="Thorn" unicode="&#xde;" horiz-adv-x="1413" 
d="M182 0v1561h260v-277h410q239 0 392 -141.5t153 -362.5q0 -222 -152.5 -363t-392.5 -141h-410v-276h-260zM442 520h410q122 0 200 73t78 187q0 115 -78 187.5t-200 72.5h-410v-520z" />
    <glyph glyph-name="germandbls" unicode="&#xdf;" horiz-adv-x="1304" 
d="M682 -33q-95 0 -236 37v260q101 -61 228 -61q126 0 200 68t74 184t-109.5 184t-295.5 68v223q153 0 243.5 66.5t90.5 177.5q0 82 -65.5 130t-180.5 48q-114 0 -180 -64t-66 -174v-1114h-258v1116q0 218 135 345.5t367 127.5q237 0 374.5 -110.5t137.5 -302.5
q0 -125 -58 -213t-163 -125q139 -39 216.5 -141.5t77.5 -252.5q0 -220 -143.5 -348.5t-388.5 -128.5z" />
    <glyph glyph-name="agrave" unicode="&#xe0;" horiz-adv-x="1273" 
d="M498 -31q-194 0 -307 92.5t-113 251.5q0 170 127.5 265.5t349.5 95.5h338q-8 123 -79.5 188.5t-201.5 65.5q-98 0 -163 -46.5t-78 -131.5h-265q15 169 161 288t362 119q236 0 380 -140t144 -376v-641h-260v152q-150 -183 -395 -183zM215 1583h299l191 -328h-195zM338 334
q0 -64 55.5 -104t143.5 -40q116 0 218 77t130 210h-285q-140 0 -201 -36t-61 -107z" />
    <glyph glyph-name="aacute" unicode="&#xe1;" horiz-adv-x="1273" 
d="M498 -31q-194 0 -307 92.5t-113 251.5q0 170 127.5 265.5t349.5 95.5h338q-8 123 -79.5 188.5t-201.5 65.5q-98 0 -163 -46.5t-78 -131.5h-265q15 169 161 288t362 119q236 0 380 -140t144 -376v-641h-260v152q-150 -183 -395 -183zM338 334q0 -64 55.5 -104t143.5 -40
q116 0 218 77t130 210h-285q-140 0 -201 -36t-61 -107zM535 1255l192 328h299l-297 -328h-194z" />
    <glyph glyph-name="acircumflex" unicode="&#xe2;" horiz-adv-x="1273" 
d="M498 -31q-194 0 -307 92.5t-113 251.5q0 170 127.5 265.5t349.5 95.5h338q-8 123 -79.5 188.5t-201.5 65.5q-98 0 -163 -46.5t-78 -131.5h-265q15 169 161 288t362 119q236 0 380 -140t144 -376v-641h-260v152q-150 -183 -395 -183zM287 1268l180 315h317l181 -315h-230
l-110 213l-109 -213h-229zM338 334q0 -64 55.5 -104t143.5 -40q116 0 218 77t130 210h-285q-140 0 -201 -36t-61 -107z" />
    <glyph glyph-name="atilde" unicode="&#xe3;" horiz-adv-x="1273" 
d="M498 -31q-194 0 -307 92.5t-113 251.5q0 170 127.5 265.5t349.5 95.5h338q-8 123 -79.5 188.5t-201.5 65.5q-98 0 -163 -46.5t-78 -131.5h-265q15 169 161 288t362 119q236 0 380 -140t144 -376v-641h-260v152q-150 -183 -395 -183zM264 1350q8 109 61.5 173t139.5 64
q44 0 82 -18.5t66 -45t54 -53t56 -45t61 -18.5q51 0 87.5 40t43.5 107l74 -92q-7 -109 -62 -172t-141 -63q-41 0 -78 18.5t-64.5 44.5t-54 52t-56.5 44.5t-60 18.5q-54 0 -91 -40.5t-44 -109.5zM338 334q0 -64 55.5 -104t143.5 -40q116 0 218 77t130 210h-285
q-140 0 -201 -36t-61 -107z" />
    <glyph glyph-name="adieresis" unicode="&#xe4;" horiz-adv-x="1273" 
d="M498 -31q-194 0 -307 92.5t-113 251.5q0 170 127.5 265.5t349.5 95.5h338q-8 123 -79.5 188.5t-201.5 65.5q-98 0 -163 -46.5t-78 -131.5h-265q15 169 161 288t362 119q236 0 380 -140t144 -376v-641h-260v152q-150 -183 -395 -183zM227 1430q0 66 47.5 110.5t116.5 44.5
t117.5 -44.5t48.5 -110.5q0 -67 -48.5 -114.5t-117.5 -47.5t-116.5 47t-47.5 115zM338 334q0 -64 55.5 -104t143.5 -40q116 0 218 77t130 210h-285q-140 0 -201 -36t-61 -107zM694 1430q0 66 47.5 110.5t116.5 44.5t117.5 -44.5t48.5 -110.5q0 -67 -48.5 -114.5
t-117.5 -47.5t-116.5 47t-47.5 115z" />
    <glyph glyph-name="aring" unicode="&#xe5;" horiz-adv-x="1273" 
d="M498 -31q-194 0 -307 92.5t-113 251.5q0 170 127.5 265.5t349.5 95.5h338q-8 123 -79.5 188.5t-201.5 65.5q-98 0 -163 -46.5t-78 -131.5h-265q15 169 161 288t362 119q236 0 380 -140t144 -376v-641h-260v152q-150 -183 -395 -183zM338 334q0 -64 55.5 -104t143.5 -40
q116 0 218 77t130 210h-285q-140 0 -201 -36t-61 -107zM397 1438q0 95 66.5 161t163.5 66q95 0 161 -66t66 -161q0 -98 -65.5 -164t-161.5 -66q-97 0 -163.5 66t-66.5 164zM528 1438q0 -41 29 -70t70 -29q40 0 68 29t28 70t-28 68.5t-68 27.5q-42 0 -70.5 -27.5t-28.5 -68.5
z" />
    <glyph glyph-name="ae" unicode="&#xe6;" horiz-adv-x="2097" 
d="M1473 -31q-180 0 -311 76t-199 215q-65 -136 -186.5 -213.5t-276.5 -77.5q-194 0 -307 92.5t-113 251.5q0 171 128 267t349 94h340q-8 124 -80 189t-203 65q-98 0 -162 -46.5t-79 -131.5h-264q15 169 160.5 288t359.5 119q271 0 415 -180q156 180 410 180q85 0 163.5 -20
t152 -67t127 -117t86 -176.5t32.5 -239.5v-33h-860q13 -146 95.5 -224.5t222.5 -78.5q101 0 178.5 49.5t97.5 126.5h260q-10 -111 -83.5 -204.5t-193.5 -148.5t-259 -55zM342 334q0 -64 54.5 -104t142.5 -40q116 0 218.5 76t131.5 209l-287 2q-138 0 -199 -36.5t-61 -106.5z
M1174 705h569q-27 102 -102.5 161.5t-186.5 59.5q-104 0 -177 -59.5t-103 -161.5z" />
    <glyph glyph-name="ccedilla" unicode="&#xe7;" horiz-adv-x="1259" 
d="M559 -420q-57 11 -104 40.5t-72 70.5l31 162q44 -54 110 -66q43 -6 72.5 11t38.5 55q6 37 -14 71t-58 51q-212 30 -347.5 191.5t-135.5 396.5q0 163 71 298t202.5 215.5t297.5 80.5q207 0 358 -118.5t181 -311.5h-264q-21 90 -97.5 143.5t-177.5 53.5
q-138 0 -227.5 -101.5t-89.5 -259.5q0 -159 90 -259.5t227 -100.5q105 0 181 56t96 149h262q-26 -173 -152.5 -292.5t-310.5 -142.5v-24q48 -34 71 -92.5t13 -120.5q-17 -91 -84.5 -133t-167.5 -23z" />
    <glyph glyph-name="egrave" unicode="&#xe8;" horiz-adv-x="1277" 
d="M653 -31q-264 0 -418.5 160t-154.5 434q0 164 66 298t194.5 215t296.5 81q85 0 163 -20t151 -67t126.5 -117t86 -176.5t32.5 -239.5v-33h-860q13 -146 95 -223.5t222 -77.5q101 0 179 49t98 125h260q-10 -111 -84 -204.5t-194 -148.5t-259 -55zM227 1583h299l191 -328
h-195zM352 702h572q-27 103 -102 163.5t-185 60.5q-104 0 -179 -60.5t-106 -163.5z" />
    <glyph glyph-name="eacute" unicode="&#xe9;" horiz-adv-x="1277" 
d="M653 -31q-264 0 -418.5 160t-154.5 434q0 164 66 298t194.5 215t296.5 81q85 0 163 -20t151 -67t126.5 -117t86 -176.5t32.5 -239.5v-33h-860q13 -146 95 -223.5t222 -77.5q101 0 179 49t98 125h260q-10 -111 -84 -204.5t-194 -148.5t-259 -55zM352 702h572
q-27 103 -102 163.5t-185 60.5q-104 0 -179 -60.5t-106 -163.5zM547 1255l192 328h299l-297 -328h-194z" />
    <glyph glyph-name="ecircumflex" unicode="&#xea;" horiz-adv-x="1277" 
d="M653 -31q-264 0 -418.5 160t-154.5 434q0 164 66 298t194.5 215t296.5 81q85 0 163 -20t151 -67t126.5 -117t86 -176.5t32.5 -239.5v-33h-860q13 -146 95 -223.5t222 -77.5q101 0 179 49t98 125h260q-10 -111 -84 -204.5t-194 -148.5t-259 -55zM299 1268l180 315h318
l180 -315h-229l-111 213l-109 -213h-229zM352 702h572q-27 103 -102 163.5t-185 60.5q-104 0 -179 -60.5t-106 -163.5z" />
    <glyph glyph-name="edieresis" unicode="&#xeb;" horiz-adv-x="1277" 
d="M653 -31q-264 0 -418.5 160t-154.5 434q0 164 66 298t194.5 215t296.5 81q85 0 163 -20t151 -67t126.5 -117t86 -176.5t32.5 -239.5v-33h-860q13 -146 95 -223.5t222 -77.5q101 0 179 49t98 125h260q-10 -111 -84 -204.5t-194 -148.5t-259 -55zM240 1430q0 66 47 110.5
t116 44.5t117.5 -44.5t48.5 -110.5q0 -67 -48.5 -114.5t-117.5 -47.5t-116 47t-47 115zM352 702h572q-27 103 -102 163.5t-185 60.5q-104 0 -179 -60.5t-106 -163.5zM707 1430q0 66 47 110.5t116 44.5t117.5 -44.5t48.5 -110.5q0 -67 -48.5 -114.5t-117.5 -47.5t-116 47
t-47 115z" />
    <glyph glyph-name="igrave" unicode="&#xec;" horiz-adv-x="512" 
d="M127 0v1126h258v-1126h-258zM-152 1583h299l191 -328h-195z" />
    <glyph glyph-name="iacute" unicode="&#xed;" horiz-adv-x="512" 
d="M127 0v1126h258v-1126h-258zM168 1255l192 328h299l-297 -328h-194z" />
    <glyph glyph-name="icircumflex" unicode="&#xee;" horiz-adv-x="512" 
d="M127 0v1126h258v-1126h-258zM-80 1268l180 315h318l180 -315h-229l-111 213l-108 -213h-230z" />
    <glyph glyph-name="idieresis" unicode="&#xef;" horiz-adv-x="512" 
d="M127 0v1126h258v-1126h-258zM-139 1430q0 66 47.5 110.5t116.5 44.5t117 -44.5t48 -110.5q0 -68 -48 -115t-117 -47t-116.5 47t-47.5 115zM328 1430q0 66 47.5 110.5t116.5 44.5t117 -44.5t48 -110.5q0 -68 -48 -115t-117 -47t-116.5 47t-47.5 115z" />
    <glyph glyph-name="eth" unicode="&#xf0;" horiz-adv-x="1269" 
d="M623 -31q-239 0 -391 161.5t-152 416.5q0 247 147.5 403t378.5 156q171 0 291 -88q-39 125 -115 201q-10 10 -30 26l-47 -117l-222 82l45 115q-52 6 -114 6h-84v230h84q98 0 202 -17l52 131l227 -76l-55 -135q75 -44 127 -102q213 -238 213 -735q0 -304 -153 -481
t-404 -177zM326 541q0 -152 83.5 -249t215.5 -97q133 0 218 97t85 249q0 151 -87 246.5t-223 95.5q-129 0 -210.5 -95t-81.5 -247z" />
    <glyph glyph-name="ntilde" unicode="&#xf1;" 
d="M948 604q0 149 -75 235.5t-205 86.5q-137 0 -210 -88t-73 -252v-586h-258v1126h258v-131q61 78 152 120t204 42q214 0 339.5 -143.5t125.5 -390.5v-623h-258v604zM324 1350q8 109 61 173t139 64q44 0 82.5 -18.5t66 -45t53.5 -53t56.5 -45t61.5 -18.5q51 0 87.5 40
t43.5 107l74 -92q-7 -109 -62 -172t-141 -63q-49 0 -95 28t-75.5 61t-68 61t-75.5 28q-54 0 -91 -40.5t-44 -109.5z" />
    <glyph glyph-name="ograve" unicode="&#xf2;" horiz-adv-x="1331" 
d="M666 -31q-167 0 -300.5 75t-209.5 211t-76 308q0 123 42.5 232t118 189t186 126.5t239.5 46.5q166 0 298.5 -74.5t208.5 -210.5t76 -309q0 -165 -72 -300t-206 -214.5t-305 -79.5zM254 1583h299l190 -328h-194zM334 563q0 -160 92 -260t240 -100q149 0 241 100.5
t92 259.5q0 157 -93.5 259t-239.5 102q-148 0 -240 -101.5t-92 -259.5z" />
    <glyph glyph-name="oacute" unicode="&#xf3;" horiz-adv-x="1331" 
d="M666 -31q-167 0 -300.5 75t-209.5 211t-76 308q0 123 42.5 232t118 189t186 126.5t239.5 46.5q166 0 298.5 -74.5t208.5 -210.5t76 -309q0 -165 -72 -300t-206 -214.5t-305 -79.5zM334 563q0 -160 92 -260t240 -100q149 0 241 100.5t92 259.5q0 157 -93.5 259t-239.5 102
q-148 0 -240 -101.5t-92 -259.5zM573 1255l193 328h299l-297 -328h-195z" />
    <glyph glyph-name="ocircumflex" unicode="&#xf4;" horiz-adv-x="1331" 
d="M666 -31q-167 0 -300.5 75t-209.5 211t-76 308q0 123 42.5 232t118 189t186 126.5t239.5 46.5q166 0 298.5 -74.5t208.5 -210.5t76 -309q0 -165 -72 -300t-206 -214.5t-305 -79.5zM328 1268l180 315h317l181 -315h-230l-110 213l-109 -213h-229zM334 563q0 -160 92 -260
t240 -100q149 0 241 100.5t92 259.5q0 157 -93.5 259t-239.5 102q-148 0 -240 -101.5t-92 -259.5z" />
    <glyph glyph-name="otilde" unicode="&#xf5;" horiz-adv-x="1331" 
d="M666 -31q-167 0 -300.5 75t-209.5 211t-76 308q0 123 42.5 232t118 189t186 126.5t239.5 46.5q166 0 298.5 -74.5t208.5 -210.5t76 -309q0 -165 -72 -300t-206 -214.5t-305 -79.5zM303 1350q8 109 61.5 173t139.5 64q44 0 82 -18.5t66 -45t54 -53t56 -45t61 -18.5
q51 0 87.5 40t43.5 107l74 -92q-7 -109 -62 -172t-141 -63q-41 0 -78 18.5t-64.5 44.5t-54 52t-56.5 44.5t-60 18.5q-54 0 -91 -40.5t-44 -109.5zM334 563q0 -160 92 -260t240 -100q149 0 241 100.5t92 259.5q0 157 -93.5 259t-239.5 102q-148 0 -240 -101.5t-92 -259.5z
" />
    <glyph glyph-name="odieresis" unicode="&#xf6;" horiz-adv-x="1331" 
d="M666 -31q-167 0 -300.5 75t-209.5 211t-76 308q0 123 42.5 232t118 189t186 126.5t239.5 46.5q166 0 298.5 -74.5t208.5 -210.5t76 -309q0 -165 -72 -300t-206 -214.5t-305 -79.5zM268 1430q0 66 47.5 110.5t116.5 44.5t117.5 -44.5t48.5 -110.5q0 -67 -48.5 -114.5
t-117.5 -47.5t-116.5 47t-47.5 115zM334 563q0 -160 92 -260t240 -100q149 0 241 100.5t92 259.5q0 157 -93.5 259t-239.5 102q-148 0 -240 -101.5t-92 -259.5zM735 1430q0 66 47.5 110.5t116.5 44.5t117.5 -44.5t48.5 -110.5q0 -67 -48.5 -114.5t-117.5 -47.5t-116.5 47
t-47.5 115z" />
    <glyph glyph-name="divide" unicode="&#xf7;" horiz-adv-x="1568" 
d="M127 635v217h1321v-217h-1321zM602 322q0 77 54 130.5t132 53.5q77 0 131 -54t54 -130q0 -78 -54 -131.5t-131 -53.5q-78 0 -132 53.5t-54 131.5zM602 1124q0 78 54 131.5t132 53.5q77 0 131 -53.5t54 -131.5q0 -76 -54 -130t-131 -54q-78 0 -132 53.5t-54 130.5z" />
    <glyph glyph-name="oslash" unicode="&#xf8;" horiz-adv-x="1310" 
d="M-2 0l182 203q-108 148 -108 360q0 165 72 300t206.5 214.5t306.5 79.5q177 0 314 -84l47 53h295l-183 -200q111 -155 111 -363q0 -123 -42.5 -232t-118 -189t-185.5 -126.5t-238 -46.5q-172 0 -315 84l-47 -53h-297zM326 563q0 -98 32 -166l447 494q-74 33 -148 33
q-148 0 -239.5 -101.5t-91.5 -259.5zM508 236q71 -33 149 -33q148 0 241 101t93 259q0 93 -35 168z" />
    <glyph glyph-name="ugrave" unicode="&#xf9;" 
d="M381 522q0 -149 75 -235t206 -86q136 0 209 88t73 252v585h258v-1126h-258v131q-61 -78 -152 -120t-204 -42q-214 0 -339.5 144t-125.5 391v622h258v-604zM260 1583h299l191 -328h-195z" />
    <glyph glyph-name="uacute" unicode="&#xfa;" 
d="M381 522q0 -149 75 -235t206 -86q136 0 209 88t73 252v585h258v-1126h-258v131q-61 -78 -152 -120t-204 -42q-214 0 -339.5 144t-125.5 391v622h258v-604zM580 1255l192 328h299l-297 -328h-194z" />
    <glyph glyph-name="ucircumflex" unicode="&#xfb;" 
d="M381 522q0 -149 75 -235t206 -86q136 0 209 88t73 252v585h258v-1126h-258v131q-61 -78 -152 -120t-204 -42q-214 0 -339.5 144t-125.5 391v622h258v-604zM332 1268l180 315h317l181 -315h-230l-110 213l-109 -213h-229z" />
    <glyph glyph-name="udieresis" unicode="&#xfc;" 
d="M381 522q0 -149 75 -235t206 -86q136 0 209 88t73 252v585h258v-1126h-258v131q-61 -78 -152 -120t-204 -42q-214 0 -339.5 144t-125.5 391v622h258v-604zM272 1430q0 66 47.5 110.5t116.5 44.5t117.5 -44.5t48.5 -110.5q0 -67 -48.5 -114.5t-117.5 -47.5t-116.5 47
t-47.5 115zM739 1430q0 66 47.5 110.5t116.5 44.5t117.5 -44.5t48.5 -110.5q0 -67 -48.5 -114.5t-117.5 -47.5t-116.5 47t-47.5 115z" />
    <glyph glyph-name="yacute" unicode="&#xfd;" horiz-adv-x="1202" 
d="M268 -487l195 452l-455 1161h260l318 -866l344 866h264l-676 -1613h-250zM510 1255l192 328h299l-296 -328h-195z" />
    <glyph glyph-name="thorn" unicode="&#xfe;" horiz-adv-x="1359" 
d="M750 -33q-220 0 -365 164v-618h-258v2048h258v-564q143 162 365 162q234 0 382 -167t148 -429q0 -261 -147.5 -428.5t-382.5 -167.5zM385 563q0 -160 90.5 -261t233.5 -101q141 0 231 101t90 261t-90 261.5t-231 101.5q-143 0 -233.5 -101.5t-90.5 -261.5z" />
    <glyph glyph-name="ydieresis" unicode="&#xff;" horiz-adv-x="1202" 
d="M268 -487l195 452l-455 1161h260l318 -866l344 866h264l-676 -1613h-250zM203 1430q0 66 47.5 110.5t116.5 44.5t117 -44.5t48 -110.5q0 -68 -48 -115t-117 -47t-116.5 47t-47.5 115zM670 1430q0 66 47.5 110.5t116.5 44.5t117 -44.5t48 -110.5q0 -68 -48 -115t-117 -47
t-116.5 47t-47.5 115z" />
    <glyph glyph-name="Amacron" unicode="&#x100;" horiz-adv-x="1662" 
d="M12 0l637 1561h367l635 -1561h-283l-160 408h-751l-160 -408h-285zM428 1688v192h811v-192h-811zM555 653h555l-276 709z" />
    <glyph glyph-name="amacron" unicode="&#x101;" horiz-adv-x="1273" 
d="M498 -31q-194 0 -307 92.5t-113 251.5q0 170 127.5 265.5t349.5 95.5h338q-8 123 -79.5 188.5t-201.5 65.5q-98 0 -163 -46.5t-78 -131.5h-265q15 169 161 288t362 119q236 0 380 -140t144 -376v-641h-260v152q-150 -183 -395 -183zM221 1251v193h811v-193h-811zM338 334
q0 -64 55.5 -104t143.5 -40q116 0 218 77t130 210h-285q-140 0 -201 -36t-61 -107z" />
    <glyph glyph-name="Abreve" unicode="&#x102;" horiz-adv-x="1662" 
d="M12 0l637 1561h367l635 -1561h-283l-160 408h-751l-160 -408h-285zM487 2019h183q0 -87 44 -137.5t120 -50.5t119.5 50.5t43.5 137.5h183q0 -160 -95 -256t-251 -96t-251.5 96t-95.5 256zM555 653h555l-276 709z" />
    <glyph glyph-name="abreve" unicode="&#x103;" horiz-adv-x="1273" 
d="M498 -31q-194 0 -307 92.5t-113 251.5q0 170 127.5 265.5t349.5 95.5h338q-8 123 -79.5 188.5t-201.5 65.5q-98 0 -163 -46.5t-78 -131.5h-265q15 169 161 288t362 119q236 0 380 -140t144 -376v-641h-260v152q-150 -183 -395 -183zM281 1583h182q0 -87 44 -137.5
t120 -50.5t120 50.5t44 137.5h182q0 -160 -95 -256t-251 -96t-251 96t-95 256zM338 334q0 -64 55.5 -104t143.5 -40q116 0 218 77t130 210h-285q-140 0 -201 -36t-61 -107z" />
    <glyph glyph-name="Aogonek" unicode="&#x104;" horiz-adv-x="1662" 
d="M12 0l637 1561h367l635 -1561h-88q-54 0 -87.5 -28.5t-33.5 -73.5q0 -41 27 -66t71 -25q73 0 119 43v-165q-31 -36 -84.5 -57t-118.5 -21q-104 0 -166.5 53t-62.5 143q0 63 36.5 114t104.5 83l-160 408h-751l-160 -408h-285zM555 653h555l-276 709z" />
    <glyph glyph-name="aogonek" unicode="&#x105;" horiz-adv-x="1273" 
d="M498 -31q-194 0 -307 92.5t-113 251.5q0 170 127.5 265.5t349.5 95.5h338q-8 123 -79.5 188.5t-201.5 65.5q-98 0 -163 -46.5t-78 -131.5h-265q15 169 161 288t362 119q236 0 380 -140t144 -376v-641h2q-54 0 -87.5 -28.5t-33.5 -73.5q0 -41 27.5 -66t71.5 -25
q72 0 118 43v-165q-68 -78 -202 -78q-104 0 -167 53t-63 143q0 63 37 114t105 83h-68v152q-150 -183 -395 -183zM338 334q0 -64 55.5 -104t143.5 -40q116 0 218 77t130 210h-285q-140 0 -201 -36t-61 -107z" />
    <glyph glyph-name="Cacute" unicode="&#x106;" horiz-adv-x="1656" 
d="M858 -31q-164 0 -306.5 59t-244.5 163.5t-160.5 257t-58.5 331.5q0 168 56 317t155 258t244 172.5t315 63.5q276 0 476.5 -150t246.5 -388h-293q-35 134 -150 211t-280 77q-212 0 -351.5 -159.5t-139.5 -401.5q0 -244 140 -402.5t351 -158.5q163 0 279.5 79.5
t154.5 215.5h289q-31 -159 -132.5 -283t-255.5 -193t-335 -69zM772 1692l193 327h299l-297 -327h-195z" />
    <glyph glyph-name="cacute" unicode="&#x107;" horiz-adv-x="1259" 
d="M651 -31q-245 0 -408 167t-163 427q0 163 71 298t202.5 215.5t297.5 80.5q207 0 358 -118.5t181 -311.5h-264q-21 90 -97.5 143.5t-177.5 53.5q-138 0 -227.5 -101.5t-89.5 -259.5q0 -159 90 -259.5t227 -100.5q105 0 181 56t96 149h262q-30 -191 -179 -315t-360 -124z
M557 1255l193 328h299l-297 -328h-195z" />
    <glyph glyph-name="Ccircumflex" unicode="&#x108;" horiz-adv-x="1656" 
d="M858 -31q-164 0 -306.5 59t-244.5 163.5t-160.5 257t-58.5 331.5q0 168 56 317t155 258t244 172.5t315 63.5q276 0 476.5 -150t246.5 -388h-293q-35 134 -150 211t-280 77q-212 0 -351.5 -159.5t-139.5 -401.5q0 -244 140 -402.5t351 -158.5q163 0 279.5 79.5
t154.5 215.5h289q-31 -159 -132.5 -283t-255.5 -193t-335 -69zM524 1704l181 315h317l180 -315h-229l-111 213l-108 -213h-230z" />
    <glyph glyph-name="ccircumflex" unicode="&#x109;" horiz-adv-x="1259" 
d="M651 -31q-245 0 -408 167t-163 427q0 163 71 298t202.5 215.5t297.5 80.5q207 0 358 -118.5t181 -311.5h-264q-21 90 -97.5 143.5t-177.5 53.5q-138 0 -227.5 -101.5t-89.5 -259.5q0 -159 90 -259.5t227 -100.5q105 0 181 56t96 149h262q-30 -191 -179 -315t-360 -124z
M309 1268l180 315h318l180 -315h-229l-111 213l-108 -213h-230z" />
    <glyph glyph-name="Cdotaccent" unicode="&#x10a;" horiz-adv-x="1656" 
d="M858 -31q-164 0 -306.5 59t-244.5 163.5t-160.5 257t-58.5 331.5q0 168 56 317t155 258t244 172.5t315 63.5q276 0 476.5 -150t246.5 -388h-293q-35 134 -150 211t-280 77q-212 0 -351.5 -159.5t-139.5 -401.5q0 -244 140 -402.5t351 -158.5q163 0 279.5 79.5
t154.5 215.5h289q-31 -159 -132.5 -283t-255.5 -193t-335 -69zM698 1841q0 66 47.5 111t116.5 45t117.5 -45t48.5 -111q0 -67 -48.5 -114.5t-117.5 -47.5t-116.5 47t-47.5 115z" />
    <glyph glyph-name="cdotaccent" unicode="&#x10b;" horiz-adv-x="1259" 
d="M651 -31q-245 0 -408 167t-163 427q0 163 71 298t202.5 215.5t297.5 80.5q207 0 358 -118.5t181 -311.5h-264q-21 90 -97.5 143.5t-177.5 53.5q-138 0 -227.5 -101.5t-89.5 -259.5q0 -159 90 -259.5t227 -100.5q105 0 181 56t96 149h262q-30 -191 -179 -315t-360 -124z
M483 1407q0 66 47.5 111t116.5 45t117.5 -45t48.5 -111q0 -67 -48.5 -114.5t-117.5 -47.5t-116.5 47t-47.5 115z" />
    <glyph glyph-name="Ccaron" unicode="&#x10c;" horiz-adv-x="1656" 
d="M858 -31q-164 0 -306.5 59t-244.5 163.5t-160.5 257t-58.5 331.5q0 168 56 317t155 258t244 172.5t315 63.5q276 0 476.5 -150t246.5 -388h-293q-35 134 -150 211t-280 77q-212 0 -351.5 -159.5t-139.5 -401.5q0 -244 140 -402.5t351 -158.5q163 0 279.5 79.5
t154.5 215.5h289q-31 -159 -132.5 -283t-255.5 -193t-335 -69zM524 1995h230l108 -213l111 213h229l-180 -316h-317z" />
    <glyph glyph-name="ccaron" unicode="&#x10d;" horiz-adv-x="1259" 
d="M651 -31q-245 0 -408 167t-163 427q0 163 71 298t202.5 215.5t297.5 80.5q207 0 358 -118.5t181 -311.5h-264q-21 90 -97.5 143.5t-177.5 53.5q-138 0 -227.5 -101.5t-89.5 -259.5q0 -159 90 -259.5t227 -100.5q105 0 181 56t96 149h262q-30 -191 -179 -315t-360 -124z
M309 1561h230l108 -213l111 213h229l-180 -316h-318z" />
    <glyph glyph-name="Dcaron" unicode="&#x10e;" horiz-adv-x="1636" 
d="M182 0v1561h551q376 0 595.5 -211t219.5 -572q0 -358 -219.5 -568t-595.5 -210h-551zM412 1995h229l109 -213l110 213h230l-181 -316h-317zM453 248h276q254 0 402.5 143t148.5 387q0 246 -149 390.5t-402 144.5h-276v-1065z" />
    <glyph glyph-name="dcaron" unicode="&#x10f;" horiz-adv-x="1359" 
d="M610 -31q-234 0 -382 166.5t-148 427.5q0 262 147.5 429t382.5 167q220 0 365 -164v566h258v-1561h-258v131q-143 -162 -365 -162zM330 563q0 -159 90.5 -259.5t230.5 -100.5q143 0 233.5 100.5t90.5 259.5q0 160 -90.5 261.5t-233.5 101.5q-140 0 -230.5 -102
t-90.5 -261zM1372 1139l37 424h246l-133 -424h-150z" />
    <glyph glyph-name="Dcroat" unicode="&#x110;" horiz-adv-x="1691" 
d="M236 0v643h-205v246h205v672h550q376 0 596 -211t220 -572q0 -358 -220 -568t-596 -210h-550zM506 248h276q254 0 402.5 143t148.5 387q0 246 -149 390.5t-402 144.5h-276v-424h389v-246h-389v-395z" />
    <glyph glyph-name="dcroat" unicode="&#x111;" horiz-adv-x="1413" 
d="M721 1225v213h254v123h258v-123h197v-213h-197v-1225h-258v131q-143 -162 -365 -162q-234 0 -382 166.5t-148 427.5q0 262 147.5 429t382.5 167q220 0 365 -164v230h-254zM330 563q0 -159 90.5 -259.5t232.5 -100.5q141 0 231.5 100.5t90.5 259.5q0 160 -90.5 261.5
t-231.5 101.5t-232 -102t-91 -261z" />
    <glyph glyph-name="Emacron" unicode="&#x112;" horiz-adv-x="1400" 
d="M182 0v1561h1110v-248h-839v-400h612v-245h-612v-422h847v-246h-1118zM311 1688v192h811v-192h-811z" />
    <glyph glyph-name="emacron" unicode="&#x113;" horiz-adv-x="1277" 
d="M653 -31q-264 0 -418.5 160t-154.5 434q0 164 66 298t194.5 215t296.5 81q85 0 163 -20t151 -67t126.5 -117t86 -176.5t32.5 -239.5v-33h-860q13 -146 95 -223.5t222 -77.5q101 0 179 49t98 125h260q-10 -111 -84 -204.5t-194 -148.5t-259 -55zM233 1251v193h811v-193
h-811zM352 702h572q-27 103 -102 163.5t-185 60.5q-104 0 -179 -60.5t-106 -163.5z" />
    <glyph glyph-name="Edotaccent" unicode="&#x116;" horiz-adv-x="1400" 
d="M182 0v1561h1110v-248h-839v-400h612v-245h-612v-422h847v-246h-1118zM553 1841q0 66 47.5 111t116.5 45t117.5 -45t48.5 -111q0 -67 -48.5 -114.5t-117.5 -47.5t-116.5 47t-47.5 115z" />
    <glyph glyph-name="edotaccent" unicode="&#x117;" horiz-adv-x="1277" 
d="M653 -31q-264 0 -418.5 160t-154.5 434q0 164 66 298t194.5 215t296.5 81q85 0 163 -20t151 -67t126.5 -117t86 -176.5t32.5 -239.5v-33h-860q13 -146 95 -223.5t222 -77.5q101 0 179 49t98 125h260q-10 -111 -84 -204.5t-194 -148.5t-259 -55zM352 702h572
q-27 103 -102 163.5t-185 60.5q-104 0 -179 -60.5t-106 -163.5zM473 1407q0 66 47.5 111t116.5 45t117.5 -45t48.5 -111q0 -67 -48.5 -114.5t-117.5 -47.5t-116.5 47t-47.5 115z" />
    <glyph glyph-name="Eogonek" unicode="&#x118;" horiz-adv-x="1400" 
d="M182 0v1561h1110v-248h-839v-400h612v-245h-612v-422h847v-246h9q-54 0 -87.5 -28.5t-33.5 -73.5q0 -41 27 -66t71 -25q73 0 119 43v-165q-31 -36 -84.5 -57t-118.5 -21q-104 0 -166.5 53t-62.5 143q0 63 36.5 114t104.5 83h-932z" />
    <glyph glyph-name="eogonek" unicode="&#x119;" horiz-adv-x="1277" 
d="M690 -410q-103 0 -166 53.5t-63 143.5q0 116 121 186q-233 22 -367.5 179.5t-134.5 410.5q0 164 66 298t194.5 215t296.5 81q85 0 163 -20t151 -67t126.5 -117t86 -176.5t32.5 -239.5v-33h-860q13 -146 95 -223.5t222 -77.5q101 0 179 49t98 125h260
q-12 -140 -124.5 -248.5t-277.5 -144.5h9h-9q-7 -1 -20 -4.5t-20 -4.5q-33 -11 -52.5 -36t-19.5 -58q0 -41 27 -65.5t71 -24.5q73 0 119 43v-166q-31 -36 -84.5 -57t-118.5 -21zM352 702h572q-27 103 -102 163.5t-185 60.5q-104 0 -179 -60.5t-106 -163.5z" />
    <glyph glyph-name="Ecaron" unicode="&#x11a;" horiz-adv-x="1400" 
d="M182 0v1561h1110v-248h-839v-400h612v-245h-612v-422h847v-246h-1118zM379 1995h229l109 -213l110 213h230l-180 -316h-318z" />
    <glyph glyph-name="ecaron" unicode="&#x11b;" horiz-adv-x="1277" 
d="M653 -31q-264 0 -418.5 160t-154.5 434q0 164 66 298t194.5 215t296.5 81q85 0 163 -20t151 -67t126.5 -117t86 -176.5t32.5 -239.5v-33h-860q13 -146 95 -223.5t222 -77.5q101 0 179 49t98 125h260q-10 -111 -84 -204.5t-194 -148.5t-259 -55zM299 1561h229l109 -213
l111 213h229l-180 -316h-318zM352 702h572q-27 103 -102 163.5t-185 60.5q-104 0 -179 -60.5t-106 -163.5z" />
    <glyph glyph-name="Gcircumflex" unicode="&#x11c;" horiz-adv-x="1718" 
d="M848 -31q-161 0 -301.5 59t-241.5 163.5t-159 257t-58 331.5q0 225 95 409t273.5 293t407.5 109q271 0 471 -150t246 -388h-293q-35 133 -149 210.5t-275 77.5q-216 0 -356.5 -159.5t-140.5 -401.5q0 -246 144 -403.5t368 -157.5q176 0 308 104t152 277h-413v242h673
v-844h-256v233q-83 -126 -211.5 -194t-283.5 -68zM520 1704l180 315h318l180 -315h-229l-111 213l-108 -213h-230z" />
    <glyph glyph-name="gcircumflex" unicode="&#x11d;" horiz-adv-x="1343" 
d="M614 -487q-235 0 -383.5 122t-148.5 314h250q0 -99 83 -162t214 -63q159 0 243 80t84 231v127q-142 -158 -356 -158q-227 0 -371.5 162t-144.5 414q0 253 144 415t372 162q217 0 356 -158v127h261v-1073q0 -260 -157 -400t-446 -140zM330 1268l180 315h317l181 -315h-230
l-110 213l-109 -213h-229zM352 580q0 -152 84.5 -246t218.5 -94q135 0 218 94t83 248q0 150 -83 243t-218 93q-134 0 -218.5 -94t-84.5 -244z" />
    <glyph glyph-name="Gbreve" unicode="&#x11e;" horiz-adv-x="1718" 
d="M848 -31q-161 0 -301.5 59t-241.5 163.5t-159 257t-58 331.5q0 225 95 409t273.5 293t407.5 109q271 0 471 -150t246 -388h-293q-35 133 -149 210.5t-275 77.5q-216 0 -356.5 -159.5t-140.5 -401.5q0 -246 144 -403.5t368 -157.5q176 0 308 104t152 277h-413v242h673
v-844h-256v233q-83 -126 -211.5 -194t-283.5 -68zM514 2019h182q0 -87 44 -137.5t120 -50.5t120 50.5t44 137.5h182q0 -160 -95 -256t-251 -96t-251 96t-95 256z" />
    <glyph glyph-name="gbreve" unicode="&#x11f;" horiz-adv-x="1343" 
d="M614 -487q-235 0 -383.5 122t-148.5 314h250q0 -99 83 -162t214 -63q159 0 243 80t84 231v127q-142 -158 -356 -158q-227 0 -371.5 162t-144.5 414q0 253 144 415t372 162q217 0 356 -158v127h261v-1073q0 -260 -157 -400t-446 -140zM324 1583h182q0 -87 44 -137.5
t120 -50.5t120 50.5t44 137.5h182q0 -160 -95 -256t-251 -96t-251 96t-95 256zM352 580q0 -152 84.5 -246t218.5 -94q135 0 218 94t83 248q0 150 -83 243t-218 93q-134 0 -218.5 -94t-84.5 -244z" />
    <glyph glyph-name="Gdotaccent" unicode="&#x120;" horiz-adv-x="1718" 
d="M848 -31q-161 0 -301.5 59t-241.5 163.5t-159 257t-58 331.5q0 225 95 409t273.5 293t407.5 109q271 0 471 -150t246 -388h-293q-35 133 -149 210.5t-275 77.5q-216 0 -356.5 -159.5t-140.5 -401.5q0 -246 144 -403.5t368 -157.5q176 0 308 104t152 277h-413v242h673
v-844h-256v233q-83 -126 -211.5 -194t-283.5 -68zM694 1841q0 66 47.5 111t116.5 45t117.5 -45t48.5 -111q0 -67 -48.5 -114.5t-117.5 -47.5t-116.5 47t-47.5 115z" />
    <glyph glyph-name="gdotaccent" unicode="&#x121;" horiz-adv-x="1343" 
d="M614 -487q-235 0 -383.5 122t-148.5 314h250q0 -99 83 -162t214 -63q159 0 243 80t84 231v127q-142 -158 -356 -158q-227 0 -371.5 162t-144.5 414q0 253 144 415t372 162q217 0 356 -158v127h261v-1073q0 -260 -157 -400t-446 -140zM352 580q0 -152 84.5 -246t218.5 -94
q135 0 218 94t83 248q0 150 -83 243t-218 93q-134 0 -218.5 -94t-84.5 -244zM504 1407q0 66 47.5 111t116.5 45t117.5 -45t48.5 -111q0 -67 -48.5 -114.5t-117.5 -47.5t-116.5 47t-47.5 115z" />
    <glyph glyph-name="uni0122" unicode="&#x122;" horiz-adv-x="1718" 
d="M848 -31q-161 0 -301.5 59t-241.5 163.5t-159 257t-58 331.5q0 225 95 409t273.5 293t407.5 109q271 0 471 -150t246 -388h-293q-35 133 -149 210.5t-275 77.5q-216 0 -356.5 -159.5t-140.5 -401.5q0 -246 144 -403.5t368 -157.5q176 0 308 104t152 277h-413v242h673
v-844h-256v233q-83 -126 -211.5 -194t-283.5 -68zM711 -487l24 364h244l-119 -364h-149z" />
    <glyph glyph-name="uni0123" unicode="&#x123;" horiz-adv-x="1343" 
d="M614 -487q-235 0 -383.5 122t-148.5 314h250q0 -99 83 -162t214 -63q159 0 243 80t84 231v127q-142 -158 -356 -158q-227 0 -371.5 162t-144.5 414q0 253 144 415t372 162q217 0 356 -158v127h261v-1073q0 -260 -157 -400t-446 -140zM352 580q0 -152 84.5 -246t218.5 -94
q135 0 218 94t83 248q0 150 -83 243t-218 93q-134 0 -218.5 -94t-84.5 -244zM492 1268l129 430h186v-430h-315z" />
    <glyph glyph-name="Hcircumflex" unicode="&#x124;" horiz-adv-x="1781" 
d="M1329 0v653h-876v-653h-271v1561h271v-662h876v662h270v-1561h-270zM553 1704l180 315h318l180 -315h-230l-110 213l-109 -213h-229z" />
    <glyph glyph-name="hcircumflex" unicode="&#x125;" 
d="M948 604q0 157 -76.5 239.5t-203.5 82.5q-132 0 -207.5 -85t-75.5 -255v-586h-258v1561h258v-566q62 78 154 121t202 43q210 0 337.5 -140t127.5 -396v-623h-258v604zM428 1268l180 315h318l180 -315h-229l-111 213l-109 -213h-229z" />
    <glyph glyph-name="Hbar" unicode="&#x126;" horiz-adv-x="1845" 
d="M59 1147v246h156v168h268v-168h877v168h272v-168h154v-246h-154v-1147h-272v653h-877v-653h-268v1147h-156zM483 899h877v248h-877v-248z" />
    <glyph glyph-name="hbar" unicode="&#x127;" horiz-adv-x="1351" 
d="M-16 1221v213h168v127h258v-127h325v-213h-325v-224q62 77 153.5 119.5t200.5 42.5q211 0 338 -140t127 -396v-623h-258v604q0 157 -76 239.5t-203 82.5q-132 0 -207 -85t-75 -255v-586h-258v1221h-168z" />
    <glyph glyph-name="Itilde" unicode="&#x128;" horiz-adv-x="634" 
d="M182 0v1561h271v-1561h-271zM-43 1786q8 109 61.5 173t139.5 64q44 0 82 -18.5t66 -45t54 -53t56 -45t61 -18.5q51 0 87.5 40.5t43.5 107.5l74 -93q-7 -109 -62 -172t-141 -63q-41 0 -78 18.5t-64.5 44.5t-54 52t-56.5 44.5t-60 18.5q-54 0 -91 -40t-44 -109z" />
    <glyph glyph-name="itilde" unicode="&#x129;" horiz-adv-x="512" 
d="M127 0v1126h258v-1126h-258zM-104 1350q8 109 61 173t139 64q44 0 82.5 -18.5t66 -45t53.5 -53t56.5 -45t61.5 -18.5q51 0 87.5 40t43.5 107l74 -92q-7 -109 -62 -172t-141 -63q-49 0 -95 28t-75.5 61t-68 61t-75.5 28q-54 0 -91 -40.5t-44 -109.5z" />
    <glyph glyph-name="Imacron" unicode="&#x12a;" horiz-adv-x="634" 
d="M182 0v1561h271v-1561h-271zM-88 1688v192h811v-192h-811z" />
    <glyph glyph-name="imacron" unicode="&#x12b;" horiz-adv-x="512" 
d="M127 0v1126h258v-1126h-258zM-147 1251v193h811v-193h-811z" />
    <glyph glyph-name="Iogonek" unicode="&#x12e;" horiz-adv-x="634" 
d="M182 0v1561h271v-1561q-54 0 -87.5 -28.5t-33.5 -73.5q0 -41 27 -66t71 -25q73 0 119 43v-165q-31 -36 -84.5 -57t-118.5 -21q-104 0 -166.5 53t-62.5 143q0 63 36.5 114t104.5 83h-76z" />
    <glyph glyph-name="iogonek" unicode="&#x12f;" horiz-adv-x="512" 
d="M127 0v1126h258v-1126h4q-54 0 -87.5 -28.5t-33.5 -73.5q0 -41 27.5 -66t71.5 -25q72 0 118 43v-165q-68 -78 -202 -78q-104 0 -167 53t-63 143q0 63 37 114t105 83h-68zM94 1407q0 66 47.5 111t116.5 45t117.5 -45t48.5 -111q0 -67 -48.5 -114.5t-117.5 -47.5t-116.5 47
t-47.5 115z" />
    <glyph glyph-name="Idotaccent" unicode="&#x130;" horiz-adv-x="634" 
d="M182 0v1561h271v-1561h-271zM154 1841q0 66 47 111t116 45t117.5 -45t48.5 -111q0 -67 -48.5 -114.5t-117.5 -47.5t-116 47t-47 115z" />
    <glyph glyph-name="dotlessi" unicode="&#x131;" horiz-adv-x="512" 
d="M127 0v1126h258v-1126h-258z" />
    <glyph glyph-name="IJ" unicode="&#x132;" horiz-adv-x="1947" 
d="M182 0v1561h271v-1561h-271zM625 535q0 83 2 106h270q-2 -20 -2 -102q0 -151 79.5 -232.5t227.5 -81.5q143 0 227 84.5t84 229.5v1022h269v-1020q0 -264 -155 -418t-421 -154q-277 0 -429 153t-152 413z" />
    <glyph glyph-name="ij" unicode="&#x133;" horiz-adv-x="1075" 
d="M127 0v1126h258v-1126h-258zM94 1407q0 66 47.5 111t116.5 45t117.5 -45t48.5 -111q0 -67 -48.5 -114.5t-117.5 -47.5t-116.5 47t-47.5 115zM399 -432v209q66 -66 160 -66q57 0 92 35t35 104v1276h260v-1314q0 -154 -90 -242t-225 -88q-72 0 -135.5 24t-96.5 62z
M651 1407q0 66 47.5 111t116.5 45t117.5 -45t48.5 -111q0 -67 -48.5 -114.5t-117.5 -47.5t-116.5 47t-47.5 115z" />
    <glyph glyph-name="Jcircumflex" unicode="&#x134;" horiz-adv-x="1359" 
d="M616 -31q-277 0 -429 153t-152 413q0 83 2 106h270q-2 -20 -2 -102q0 -151 79.5 -232.5t227.5 -81.5q143 0 227.5 85t84.5 229v1022h268v-1020q0 -264 -155 -418t-421 -154zM709 1704l180 315h317l180 -315h-229l-110 213l-109 -213h-229z" />
    <glyph glyph-name="jcircumflex" unicode="&#x135;" horiz-adv-x="561" 
d="M119 -518q-72 0 -135.5 24t-96.5 62v209q66 -66 160 -66q57 0 92 35t35 104v1276h260v-1314q0 -154 -90 -242t-225 -88zM-35 1268l180 315h318l180 -315h-229l-111 213l-108 -213h-230z" />
    <glyph glyph-name="uni0136" unicode="&#x136;" horiz-adv-x="1525" 
d="M182 0v1561h271v-820l721 820h344l-625 -699l620 -862h-315l-475 680l-270 -307v-373h-271zM614 -487l25 364h244l-119 -364h-150z" />
    <glyph glyph-name="uni0137" unicode="&#x137;" horiz-adv-x="1249" 
d="M127 0v1561h258v-943l504 508h332l-459 -456l481 -670h-297l-348 506l-213 -217v-289h-258zM514 -487l25 364h243l-118 -364h-150z" />
    <glyph glyph-name="Lacute" unicode="&#x139;" horiz-adv-x="1333" 
d="M182 0v1561h271v-1313h866v-248h-1137zM225 1692l193 327h299l-297 -327h-195z" />
    <glyph glyph-name="lacute" unicode="&#x13a;" horiz-adv-x="512" 
d="M127 0v1561h258v-1561h-258zM166 1692l192 327h299l-297 -327h-194z" />
    <glyph glyph-name="uni013B" unicode="&#x13b;" horiz-adv-x="1333" 
d="M182 0v1561h271v-1313h866v-248h-1137zM592 -487l24 364h244l-119 -364h-149z" />
    <glyph glyph-name="uni013C" unicode="&#x13c;" horiz-adv-x="512" 
d="M127 0v1561h258v-1561h-258zM106 -487l25 364h244l-119 -364h-150z" />
    <glyph glyph-name="Lcaron" unicode="&#x13d;" horiz-adv-x="1333" 
d="M182 0v1561h271v-1313h866v-248h-1137zM727 1128l37 424h246l-133 -424h-150z" />
    <glyph glyph-name="lcaron" unicode="&#x13e;" horiz-adv-x="512" 
d="M127 0v1561h258v-1561h-258zM506 1137l37 424h245l-133 -424h-149z" />
    <glyph glyph-name="Lslash" unicode="&#x141;" horiz-adv-x="1409" 
d="M37 512v272l223 105v672h270v-547l459 215v-273l-459 -215v-493h867v-248h-1137v616z" />
    <glyph glyph-name="lslash" unicode="&#x142;" horiz-adv-x="1062" 
d="M45 377v272l358 168v744h259v-623l356 166v-275l-356 -165v-664h-259v543z" />
    <glyph glyph-name="Nacute" unicode="&#x143;" horiz-adv-x="1777" 
d="M182 0v1561h377l764 -1260v1260h272v-1561h-378l-764 1255v-1255h-271zM797 1692l192 327h299l-297 -327h-194z" />
    <glyph glyph-name="nacute" unicode="&#x144;" 
d="M948 604q0 149 -75 235.5t-205 86.5q-137 0 -210 -88t-73 -252v-586h-258v1126h258v-131q61 78 152 120t204 42q214 0 339.5 -143.5t125.5 -390.5v-623h-258v604zM594 1255l192 328h299l-297 -328h-194z" />
    <glyph glyph-name="uni0145" unicode="&#x145;" horiz-adv-x="1777" 
d="M182 0v1561h377l764 -1260v1260h272v-1561h-378l-764 1255v-1255h-271zM739 -487l25 364h244l-119 -364h-150z" />
    <glyph glyph-name="uni0146" unicode="&#x146;" 
d="M948 604q0 149 -75 235.5t-205 86.5q-137 0 -210 -88t-73 -252v-586h-258v1126h258v-131q61 78 152 120t204 42q214 0 339.5 -143.5t125.5 -390.5v-623h-258v604zM537 -487l24 364h244l-119 -364h-149z" />
    <glyph glyph-name="Ncaron" unicode="&#x147;" horiz-adv-x="1777" 
d="M182 0v1561h377l764 -1260v1260h272v-1561h-378l-764 1255v-1255h-271zM551 1995h229l109 -213l110 213h230l-180 -316h-318z" />
    <glyph glyph-name="ncaron" unicode="&#x148;" 
d="M948 604q0 149 -75 235.5t-205 86.5q-137 0 -210 -88t-73 -252v-586h-258v1126h258v-131q61 78 152 120t204 42q214 0 339.5 -143.5t125.5 -390.5v-623h-258v604zM348 1561h230l108 -213l111 213h229l-180 -316h-318z" />
    <glyph glyph-name="Omacron" unicode="&#x14c;" horiz-adv-x="1804" 
d="M903 -31q-237 0 -422.5 102.5t-289 287.5t-103.5 421t103.5 421t289 287.5t422.5 102.5q177 0 328 -60t257.5 -166.5t167 -258t60.5 -328.5q0 -176 -60.5 -326.5t-167 -256.5t-257.5 -166t-328 -60zM369 780q0 -246 149 -400.5t385 -154.5q238 0 387.5 153.5t149.5 399.5
q0 247 -149.5 403t-387.5 156q-236 0 -385 -155t-149 -402zM496 1688v192h811v-192h-811z" />
    <glyph glyph-name="omacron" unicode="&#x14d;" horiz-adv-x="1331" 
d="M666 -31q-167 0 -300.5 75t-209.5 211t-76 308q0 123 42.5 232t118 189t186 126.5t239.5 46.5q166 0 298.5 -74.5t208.5 -210.5t76 -309q0 -165 -72 -300t-206 -214.5t-305 -79.5zM260 1251v193h811v-193h-811zM334 563q0 -160 92 -260t240 -100q149 0 241 100.5
t92 259.5q0 157 -93.5 259t-239.5 102q-148 0 -240 -101.5t-92 -259.5z" />
    <glyph glyph-name="Ohungarumlaut" unicode="&#x150;" horiz-adv-x="1804" 
d="M903 -31q-237 0 -422.5 102.5t-289 287.5t-103.5 421t103.5 421t289 287.5t422.5 102.5q177 0 328 -60t257.5 -166.5t167 -258t60.5 -328.5q0 -176 -60.5 -326.5t-167 -256.5t-257.5 -166t-328 -60zM369 780q0 -246 149 -400.5t385 -154.5q238 0 387.5 153.5t149.5 399.5
q0 247 -149.5 403t-387.5 156q-236 0 -385 -155t-149 -402zM604 1690l193 327h299l-297 -327h-195zM936 1690l192 327h299l-297 -327h-194z" />
    <glyph glyph-name="ohungarumlaut" unicode="&#x151;" horiz-adv-x="1331" 
d="M666 -31q-167 0 -300.5 75t-209.5 211t-76 308q0 123 42.5 232t118 189t186 126.5t239.5 46.5q166 0 298.5 -74.5t208.5 -210.5t76 -309q0 -165 -72 -300t-206 -214.5t-305 -79.5zM334 563q0 -160 92 -260t240 -100q149 0 241 100.5t92 259.5q0 157 -93.5 259t-239.5 102
q-148 0 -240 -101.5t-92 -259.5zM369 1253l192 328h299l-297 -328h-194zM700 1253l193 328h299l-297 -328h-195z" />
    <glyph glyph-name="OE" unicode="&#x152;" horiz-adv-x="2660" 
d="M903 -31q-237 0 -422.5 102.5t-289 287.5t-103.5 421t103.5 421t289 287.5t422.5 102.5q320 0 539 -184v154h1110v-248h-840v-400h612v-245h-612v-422h848v-246h-1118v154q-220 -185 -539 -185zM369 780q0 -246 149 -400.5t385 -154.5q238 0 387.5 153.5t149.5 399.5
q0 247 -149.5 403t-387.5 156q-236 0 -385 -155t-149 -402z" />
    <glyph glyph-name="oe" unicode="&#x153;" horiz-adv-x="2195" 
d="M666 -33q-253 0 -419.5 167.5t-166.5 428.5q0 123 42.5 232t118 189.5t186 127.5t239.5 47q140 0 257.5 -55t196.5 -154q74 98 185 153.5t249 55.5q85 0 163.5 -20.5t152 -67.5t127.5 -117t86.5 -177.5t32.5 -239.5v-33h-863q14 -146 96.5 -224.5t223.5 -78.5
q101 0 177.5 49.5t96.5 126.5h262q-11 -111 -84.5 -205t-193.5 -149.5t-260 -55.5q-148 0 -264.5 53t-190.5 152q-78 -96 -194.5 -150.5t-255.5 -54.5zM334 563q0 -160 92.5 -261t239.5 -101q148 0 240.5 101.5t92.5 260.5q0 157 -93.5 260t-239.5 103q-148 0 -240 -102.5
t-92 -260.5zM1272 705h569q-27 102 -102 161.5t-185 59.5q-104 0 -177.5 -59.5t-104.5 -161.5z" />
    <glyph glyph-name="Racute" unicode="&#x154;" horiz-adv-x="1464" 
d="M1149 0l-326 555h-4h-366v-555h-271v1561h637q241 0 393 -140.5t152 -363.5q0 -155 -75.5 -272.5t-209.5 -178.5l383 -606h-313zM453 799h364q123 0 201 71.5t78 186.5q0 116 -77.5 188t-201.5 72h-364v-518zM582 1692l192 327h299l-297 -327h-194z" />
    <glyph glyph-name="racute" unicode="&#x155;" horiz-adv-x="866" 
d="M127 0v1126h258v-159q51 89 133 139.5t176 50.5q82 0 146 -33v-260q-25 22 -69 35.5t-85 13.5q-150 0 -225.5 -102t-75.5 -297v-514h-258zM369 1255l192 328h299l-297 -328h-194z" />
    <glyph glyph-name="uni0156" unicode="&#x156;" horiz-adv-x="1464" 
d="M1149 0l-326 555h-4h-366v-555h-271v1561h637q241 0 393 -140.5t152 -363.5q0 -155 -75.5 -272.5t-209.5 -178.5l383 -606h-313zM453 799h364q123 0 201 71.5t78 186.5q0 116 -77.5 188t-201.5 72h-364v-518zM653 -487l25 364h244l-119 -364h-150z" />
    <glyph glyph-name="uni0157" unicode="&#x157;" horiz-adv-x="866" 
d="M127 0v1126h258v-159q51 89 133 139.5t176 50.5q82 0 146 -33v-260q-25 22 -69 35.5t-85 13.5q-150 0 -225.5 -102t-75.5 -297v-514h-258zM102 -487l25 364h244l-119 -364h-150z" />
    <glyph glyph-name="Rcaron" unicode="&#x158;" horiz-adv-x="1464" 
d="M1149 0l-326 555h-4h-366v-555h-271v1561h637q241 0 393 -140.5t152 -363.5q0 -155 -75.5 -272.5t-209.5 -178.5l383 -606h-313zM336 1995h229l109 -213l110 213h230l-180 -316h-318zM453 799h364q123 0 201 71.5t78 186.5q0 116 -77.5 188t-201.5 72h-364v-518z" />
    <glyph glyph-name="rcaron" unicode="&#x159;" horiz-adv-x="866" 
d="M127 0v1126h258v-159q51 89 133 139.5t176 50.5q82 0 146 -33v-260q-25 22 -69 35.5t-85 13.5q-150 0 -225.5 -102t-75.5 -297v-514h-258zM121 1561h229l109 -213l110 213h230l-181 -316h-317z" />
    <glyph glyph-name="Sacute" unicode="&#x15a;" horiz-adv-x="1460" 
d="M770 -31q-305 0 -487 147t-183 394h310q3 -135 106.5 -215t274.5 -80q154 0 243.5 56.5t89.5 152.5q0 37 -9 65t-35.5 57.5t-82.5 53t-141 41.5l-256 53q-248 52 -353.5 155t-105.5 286q0 201 169 328.5t433 127.5q168 0 312.5 -73.5t227.5 -191t87 -247.5h-303
q-7 109 -104 177.5t-242 68.5q-128 0 -209.5 -48t-81.5 -142q0 -73 64 -122.5t204 -84.5l281 -72q209 -54 312.5 -160.5t103.5 -283.5q0 -205 -168 -324t-457 -119zM651 1692l193 327h299l-297 -327h-195z" />
    <glyph glyph-name="sacute" unicode="&#x15b;" horiz-adv-x="1128" 
d="M594 -31q-226 0 -365 117t-133 303h260q-3 -92 67 -150.5t183 -58.5q99 0 160 36t61 95q0 24 -5.5 40t-23 34t-54.5 32.5t-95 26.5l-184 39q-340 70 -340 332q0 152 124.5 247t323.5 95q133 0 242 -53t170 -145t57 -203h-254q3 78 -62 130t-165 52q-85 0 -138.5 -34.5
t-53.5 -88.5q0 -46 41 -75t139 -54l201 -51q311 -77 311 -334q0 -148 -130 -240t-337 -92zM500 1255l192 328h299l-297 -328h-194z" />
    <glyph glyph-name="Scircumflex" unicode="&#x15c;" horiz-adv-x="1460" 
d="M770 -31q-305 0 -487 147t-183 394h310q3 -135 106.5 -215t274.5 -80q154 0 243.5 56.5t89.5 152.5q0 37 -9 65t-35.5 57.5t-82.5 53t-141 41.5l-256 53q-248 52 -353.5 155t-105.5 286q0 201 169 328.5t433 127.5q168 0 312.5 -73.5t227.5 -191t87 -247.5h-303
q-7 109 -104 177.5t-242 68.5q-128 0 -209.5 -48t-81.5 -142q0 -73 64 -122.5t204 -84.5l281 -72q209 -54 312.5 -160.5t103.5 -283.5q0 -205 -168 -324t-457 -119zM403 1704l181 315h317l180 -315h-229l-111 213l-108 -213h-230z" />
    <glyph glyph-name="scircumflex" unicode="&#x15d;" horiz-adv-x="1128" 
d="M594 -31q-226 0 -365 117t-133 303h260q-3 -92 67 -150.5t183 -58.5q99 0 160 36t61 95q0 24 -5.5 40t-23 34t-54.5 32.5t-95 26.5l-184 39q-340 70 -340 332q0 152 124.5 247t323.5 95q133 0 242 -53t170 -145t57 -203h-254q3 78 -62 130t-165 52q-85 0 -138.5 -34.5
t-53.5 -88.5q0 -46 41 -75t139 -54l201 -51q311 -77 311 -334q0 -148 -130 -240t-337 -92zM252 1268l180 315h318l180 -315h-230l-110 213l-109 -213h-229z" />
    <glyph glyph-name="Scedilla" unicode="&#x15e;" horiz-adv-x="1460" 
d="M698 -426q-57 11 -104 40.5t-72 70.5l31 161q43 -53 111 -65q43 -6 72 10.5t38 54.5q6 38 -15 73t-61 52q-274 19 -435.5 163.5t-162.5 375.5h310q3 -135 106.5 -215t274.5 -80q154 0 243.5 56.5t89.5 152.5q0 37 -9 65t-35.5 57.5t-82.5 53t-141 41.5l-256 53
q-248 52 -353.5 155t-105.5 286q0 201 169 328.5t433 127.5q168 0 312.5 -73.5t227.5 -191t87 -247.5h-303q-7 109 -104 177.5t-242 68.5q-128 0 -209.5 -48t-81.5 -142q0 -73 64 -122.5t204 -84.5l281 -72q209 -54 312.5 -160.5t103.5 -283.5q0 -187 -141 -303t-388 -136
v-30q48 -34 71 -92.5t13 -120.5q-17 -91 -84.5 -133t-167.5 -23z" />
    <glyph glyph-name="scedilla" unicode="&#x15f;" horiz-adv-x="1128" 
d="M537 -428q-57 11 -104.5 40.5t-72.5 70.5l31 161q43 -53 111 -65q43 -6 72 10.5t38 54.5q6 38 -14.5 73t-60.5 52v2q-203 15 -325 130t-116 288h260q-3 -92 67 -150.5t183 -58.5q99 0 160 36t61 95q0 24 -5.5 40t-23 34t-54.5 32.5t-95 26.5l-184 39q-340 70 -340 332
q0 152 124.5 247t323.5 95q133 0 242 -53t170 -145t57 -203h-254q3 78 -62 130t-165 52q-85 0 -138.5 -34.5t-53.5 -88.5q0 -46 41 -75t139 -54l201 -51q311 -77 311 -334q0 -127 -96.5 -214t-259.5 -110v-36q48 -34 70.5 -92t12.5 -121q-17 -91 -84 -133t-167 -23z" />
    <glyph glyph-name="Scaron" unicode="&#x160;" horiz-adv-x="1460" 
d="M770 -31q-305 0 -487 147t-183 394h310q3 -135 106.5 -215t274.5 -80q154 0 243.5 56.5t89.5 152.5q0 37 -9 65t-35.5 57.5t-82.5 53t-141 41.5l-256 53q-248 52 -353.5 155t-105.5 286q0 201 169 328.5t433 127.5q168 0 312.5 -73.5t227.5 -191t87 -247.5h-303
q-7 109 -104 177.5t-242 68.5q-128 0 -209.5 -48t-81.5 -142q0 -73 64 -122.5t204 -84.5l281 -72q209 -54 312.5 -160.5t103.5 -283.5q0 -205 -168 -324t-457 -119zM406 1995h229l108 -213l111 213h229l-180 -316h-317z" />
    <glyph glyph-name="scaron" unicode="&#x161;" horiz-adv-x="1128" 
d="M594 -31q-226 0 -365 117t-133 303h260q-3 -92 67 -150.5t183 -58.5q99 0 160 36t61 95q0 24 -5.5 40t-23 34t-54.5 32.5t-95 26.5l-184 39q-340 70 -340 332q0 152 124.5 247t323.5 95q133 0 242 -53t170 -145t57 -203h-254q3 78 -62 130t-165 52q-85 0 -138.5 -34.5
t-53.5 -88.5q0 -46 41 -75t139 -54l201 -51q311 -77 311 -334q0 -148 -130 -240t-337 -92zM252 1561h229l109 -213l110 213h230l-180 -316h-318z" />
    <glyph glyph-name="uni0162" unicode="&#x162;" horiz-adv-x="1443" 
d="M588 0v1313h-580v248h1428v-248h-576v-1313h-2v-29q48 -34 71 -92.5t13 -120.5q-17 -91 -84.5 -132.5t-167.5 -22.5q-57 11 -104 40t-72 70l31 162q43 -53 110 -65q43 -6 72.5 10.5t38.5 54.5q6 38 -15 73t-61 52h-102z" />
    <glyph glyph-name="uni0163" unicode="&#x163;" horiz-adv-x="774" 
d="M12 911v215h183v287h258v-287h288v-215h-288v-551q0 -85 30.5 -122t100.5 -37q91 0 157 63v-207q-57 -64 -163 -82v-24q48 -34 71 -92.5t13 -120.5q-17 -91 -84.5 -133t-167.5 -23q-57 11 -104.5 40.5t-72.5 70.5l31 162q44 -54 111 -66q43 -6 72 11t38 55q6 38 -14.5 73
t-60.5 52v2q-102 28 -158.5 111t-56.5 208v610h-183z" />
    <glyph glyph-name="Tcaron" unicode="&#x164;" horiz-adv-x="1443" 
d="M588 0v1313h-580v248h1428v-248h-576v-1313h-272zM383 1995h229l109 -213l110 213h230l-180 -316h-318z" />
    <glyph glyph-name="tcaron" unicode="&#x165;" horiz-adv-x="774" 
d="M510 -31q-147 0 -231 89t-84 243v610h-183v215h183v287h258v-287h288v-215h-288v-551q0 -85 30.5 -122t100.5 -37q91 0 157 63v-207q-33 -38 -97 -63t-134 -25zM569 1206l37 424h246l-133 -424h-150z" />
    <glyph glyph-name="tbar" unicode="&#x167;" horiz-adv-x="794" 
d="M33 494v204h182v213h-182v215h182v287h258v-287h289v-215h-289v-213h289v-204h-289v-134q0 -85 30.5 -122t100.5 -37q92 0 158 63v-207q-33 -38 -97.5 -63t-134.5 -25q-147 0 -231 89t-84 243v193h-182z" />
    <glyph glyph-name="Utilde" unicode="&#x168;" horiz-adv-x="1665" 
d="M831 -31q-306 0 -485.5 177.5t-179.5 478.5v936h270v-936q0 -188 105.5 -296t289.5 -108q185 0 292.5 108.5t107.5 295.5v936h268v-936q0 -301 -180.5 -478.5t-487.5 -177.5zM471 1786q8 109 61.5 173t139.5 64q44 0 82 -18.5t66 -45t54 -53t56 -45t61 -18.5
q51 0 87.5 40.5t43.5 107.5l74 -93q-7 -109 -62 -172t-141 -63q-41 0 -78 18.5t-64.5 44.5t-54 52t-56.5 44.5t-60 18.5q-54 0 -91 -40t-44 -109z" />
    <glyph glyph-name="utilde" unicode="&#x169;" 
d="M381 522q0 -149 75 -235t206 -86q136 0 209 88t73 252v585h258v-1126h-258v131q-61 -78 -152 -120t-204 -42q-214 0 -339.5 144t-125.5 391v622h258v-604zM309 1350q8 109 61.5 173t139.5 64q44 0 82 -18.5t66 -45t54 -53t56 -45t61 -18.5q52 0 88.5 40t43.5 107l73 -92
q-7 -109 -62 -172t-141 -63q-41 0 -78 18.5t-64.5 44.5t-54 52t-56.5 44.5t-60 18.5q-54 0 -91 -40.5t-44 -109.5z" />
    <glyph glyph-name="Umacron" unicode="&#x16a;" horiz-adv-x="1665" 
d="M831 -31q-306 0 -485.5 177.5t-179.5 478.5v936h270v-936q0 -188 105.5 -296t289.5 -108q185 0 292.5 108.5t107.5 295.5v936h268v-936q0 -301 -180.5 -478.5t-487.5 -177.5zM426 1688v192h811v-192h-811z" />
    <glyph glyph-name="umacron" unicode="&#x16b;" 
d="M381 522q0 -149 75 -235t206 -86q136 0 209 88t73 252v585h258v-1126h-258v131q-61 -78 -152 -120t-204 -42q-214 0 -339.5 144t-125.5 391v622h258v-604zM264 1251v193h811v-193h-811z" />
    <glyph glyph-name="Ubreve" unicode="&#x16c;" horiz-adv-x="1665" 
d="M831 -31q-306 0 -485.5 177.5t-179.5 478.5v936h270v-936q0 -188 105.5 -296t289.5 -108q185 0 292.5 108.5t107.5 295.5v936h268v-936q0 -301 -180.5 -478.5t-487.5 -177.5zM485 2019h183q0 -87 43.5 -137.5t119.5 -50.5t120 50.5t44 137.5h183q0 -160 -95.5 -256
t-251.5 -96t-251 96t-95 256z" />
    <glyph glyph-name="ubreve" unicode="&#x16d;" 
d="M381 522q0 -149 75 -235t206 -86q136 0 209 88t73 252v585h258v-1126h-258v131q-61 -78 -152 -120t-204 -42q-214 0 -339.5 144t-125.5 391v622h258v-604zM324 1583h182q0 -87 44 -137.5t120 -50.5t120 50.5t44 137.5h182q0 -160 -95 -256t-251 -96t-251 96t-95 256z" />
    <glyph glyph-name="Uring" unicode="&#x16e;" horiz-adv-x="1665" 
d="M831 -31q-306 0 -485.5 177.5t-179.5 478.5v936h270v-936q0 -188 105.5 -296t289.5 -108q185 0 292.5 108.5t107.5 295.5v936h268v-936q0 -301 -180.5 -478.5t-487.5 -177.5zM604 1872q0 95 66.5 161t163.5 66q95 0 161 -66t66 -161q0 -98 -65.5 -164t-161.5 -66
q-97 0 -163.5 66t-66.5 164zM735 1872q0 -41 29 -69.5t70 -28.5q40 0 68 28.5t28 69.5t-28 68.5t-68 27.5q-42 0 -70.5 -27.5t-28.5 -68.5z" />
    <glyph glyph-name="uring" unicode="&#x16f;" 
d="M381 522q0 -149 75 -235t206 -86q136 0 209 88t73 252v585h258v-1126h-258v131q-61 -78 -152 -120t-204 -42q-214 0 -339.5 144t-125.5 391v622h258v-604zM442 1438q0 95 66.5 161t163.5 66q95 0 161 -66t66 -161q0 -98 -65.5 -164t-161.5 -66q-97 0 -163.5 66t-66.5 164
zM573 1438q0 -41 29 -70t70 -29q40 0 68 29t28 70t-28 68.5t-68 27.5q-42 0 -70.5 -27.5t-28.5 -68.5z" />
    <glyph glyph-name="Uhungarumlaut" unicode="&#x170;" horiz-adv-x="1665" 
d="M831 -31q-306 0 -485.5 177.5t-179.5 478.5v936h270v-936q0 -188 105.5 -296t289.5 -108q185 0 292.5 108.5t107.5 295.5v936h268v-936q0 -301 -180.5 -478.5t-487.5 -177.5zM535 1690l192 327h299l-297 -327h-194zM866 1690l193 327h299l-297 -327h-195z" />
    <glyph glyph-name="uhungarumlaut" unicode="&#x171;" 
d="M381 522q0 -149 75 -235t206 -86q136 0 209 88t73 252v585h258v-1126h-258v131q-61 -78 -152 -120t-204 -42q-214 0 -339.5 144t-125.5 391v622h258v-604zM373 1253l192 328h299l-297 -328h-194zM705 1253l192 328h299l-297 -328h-194z" />
    <glyph glyph-name="Uogonek" unicode="&#x172;" horiz-adv-x="1665" 
d="M881 -412q-104 0 -167 53.5t-63 143.5q0 119 121 186q-280 17 -443 193t-163 461v936h270v-936q0 -188 105.5 -296t289.5 -108q185 0 292.5 108.5t107.5 295.5v936h268v-936q0 -262 -138 -432t-380 -211h6h-6q-6 -1 -17.5 -3.5t-17.5 -3.5q-37 -9 -58.5 -35t-21.5 -61
q0 -41 27 -65.5t72 -24.5q72 0 118 43v-166q-68 -78 -202 -78z" />
    <glyph glyph-name="uogonek" unicode="&#x173;" 
d="M381 522q0 -149 75 -235t206 -86q136 0 209 88t73 252v585h258v-1126h47q-54 0 -87.5 -28.5t-33.5 -73.5q0 -41 27.5 -66t71.5 -25q73 0 119 43v-165q-31 -36 -84.5 -57t-118.5 -21q-104 0 -167 53t-63 143q0 63 37 114t105 83h-111v131q-61 -78 -152 -120t-204 -42
q-214 0 -339.5 144t-125.5 391v622h258v-604z" />
    <glyph glyph-name="Wcircumflex" unicode="&#x174;" horiz-adv-x="2285" 
d="M444 0l-438 1561h262l355 -1334l358 1334h326l356 -1342l354 1342h262l-444 -1561h-360l-332 1268l-334 -1268h-365zM805 1704l180 315h318l180 -315h-230l-110 213l-109 -213h-229z" />
    <glyph glyph-name="wcircumflex" unicode="&#x175;" horiz-adv-x="1869" 
d="M358 0l-350 1126h254l266 -903l246 903h324l243 -903l267 903h254l-353 -1126h-333l-240 881l-240 -881h-338zM596 1268l180 315h318l180 -315h-230l-110 213l-109 -213h-229z" />
    <glyph glyph-name="Ycircumflex" unicode="&#x176;" horiz-adv-x="1501" 
d="M614 0v578l-608 983h307l437 -736l438 736h307l-610 -986v-575h-271zM412 1704l180 315h317l181 -315h-230l-110 213l-109 -213h-229z" />
    <glyph glyph-name="ycircumflex" unicode="&#x177;" horiz-adv-x="1202" 
d="M268 -487l195 452l-455 1161h260l318 -866l344 866h264l-676 -1613h-250zM262 1268l180 315h318l180 -315h-229l-111 213l-108 -213h-230z" />
    <glyph glyph-name="Ydieresis" unicode="&#x178;" horiz-adv-x="1501" 
d="M614 0v578l-608 983h307l437 -736l438 736h307l-610 -986v-575h-271zM354 1866q0 66 47.5 110.5t116.5 44.5t117.5 -44.5t48.5 -110.5q0 -67 -48.5 -114.5t-117.5 -47.5t-116.5 47t-47.5 115zM821 1866q0 66 47.5 110.5t116.5 44.5t117.5 -44.5t48.5 -110.5
q0 -67 -48.5 -114.5t-117.5 -47.5t-116.5 47t-47.5 115z" />
    <glyph glyph-name="Zacute" unicode="&#x179;" horiz-adv-x="1480" 
d="M70 0v293l1052 1020h-993v248h1284v-293l-1071 -1041h1073v-227h-1345zM651 1692l193 327h299l-297 -327h-195z" />
    <glyph glyph-name="zacute" unicode="&#x17a;" horiz-adv-x="1103" 
d="M51 0v211l664 700h-621v215h932v-213l-659 -698h661v-215h-977zM449 1247l192 328h299l-297 -328h-194z" />
    <glyph glyph-name="Zdotaccent" unicode="&#x17b;" horiz-adv-x="1480" 
d="M70 0v293l1052 1020h-993v248h1284v-293l-1071 -1041h1073v-227h-1345zM578 1841q0 66 47 111t116 45t117.5 -45t48.5 -111q0 -67 -48.5 -114.5t-117.5 -47.5t-116 47t-47 115z" />
    <glyph glyph-name="zdotaccent" unicode="&#x17c;" horiz-adv-x="1103" 
d="M51 0v211l664 700h-621v215h932v-213l-659 -698h661v-215h-977zM375 1399q0 66 47.5 110.5t116.5 44.5t117.5 -44.5t48.5 -110.5q0 -67 -48.5 -114.5t-117.5 -47.5t-116.5 47t-47.5 115z" />
    <glyph glyph-name="Zcaron" unicode="&#x17d;" horiz-adv-x="1480" 
d="M70 0v293l1052 1020h-993v248h1284v-293l-1071 -1041h1073v-227h-1345zM403 1995h230l108 -213l111 213h229l-180 -316h-317z" />
    <glyph glyph-name="zcaron" unicode="&#x17e;" horiz-adv-x="1103" 
d="M51 0v211l664 700h-621v215h932v-213l-659 -698h661v-215h-977zM203 1552h229l109 -213l110 213h230l-181 -315h-317z" />
    <glyph glyph-name="uni018F" unicode="&#x18f;" horiz-adv-x="1699" 
d="M854 -31q-118 0 -225 27t-207 90.5t-173 158.5t-117 242t-44 330v17h1235q-12 240 -141 371.5t-355 131.5q-149 0 -265 -70.5t-156 -183.5h-304q39 219 243 363.5t484 144.5q367 0 575 -215.5t208 -595.5q0 -171 -52.5 -319.5t-148.5 -257.5t-239.5 -171.5t-317.5 -62.5z
M397 616q31 -181 152 -287t305 -106q177 0 296.5 106.5t158.5 286.5h-912z" />
    <glyph glyph-name="uni01CD" unicode="&#x1cd;" horiz-adv-x="1662" 
d="M12 0l637 1561h367l635 -1561h-283l-160 408h-751l-160 -408h-285zM496 1995h229l109 -213l110 213h230l-181 -316h-317zM555 653h555l-276 709z" />
    <glyph glyph-name="uni01CE" unicode="&#x1ce;" horiz-adv-x="1273" 
d="M498 -31q-194 0 -307 92.5t-113 251.5q0 170 127.5 265.5t349.5 95.5h338q-8 123 -79.5 188.5t-201.5 65.5q-98 0 -163 -46.5t-78 -131.5h-265q15 169 161 288t362 119q236 0 380 -140t144 -376v-641h-260v152q-150 -183 -395 -183zM287 1561h229l109 -213l110 213h230
l-181 -316h-317zM338 334q0 -64 55.5 -104t143.5 -40q116 0 218 77t130 210h-285q-140 0 -201 -36t-61 -107z" />
    <glyph glyph-name="uni01CF" unicode="&#x1cf;" horiz-adv-x="634" 
d="M182 0v1561h271v-1561h-271zM-20 1995h229l108 -213l111 213h229l-180 -316h-317z" />
    <glyph glyph-name="uni01D0" unicode="&#x1d0;" horiz-adv-x="512" 
d="M127 0v1126h258v-1126h-258zM-80 1561h230l108 -213l111 213h229l-180 -316h-318z" />
    <glyph glyph-name="uni01D1" unicode="&#x1d1;" horiz-adv-x="1804" 
d="M903 -31q-237 0 -422.5 102.5t-289 287.5t-103.5 421t103.5 421t289 287.5t422.5 102.5q177 0 328 -60t257.5 -166.5t167 -258t60.5 -328.5q0 -176 -60.5 -326.5t-167 -256.5t-257.5 -166t-328 -60zM369 780q0 -246 149 -400.5t385 -154.5q238 0 387.5 153.5t149.5 399.5
q0 247 -149.5 403t-387.5 156q-236 0 -385 -155t-149 -402zM563 1995h230l108 -213l111 213h229l-180 -316h-318z" />
    <glyph glyph-name="uni01D2" unicode="&#x1d2;" horiz-adv-x="1331" 
d="M666 -31q-167 0 -300.5 75t-209.5 211t-76 308q0 123 42.5 232t118 189t186 126.5t239.5 46.5q166 0 298.5 -74.5t208.5 -210.5t76 -309q0 -165 -72 -300t-206 -214.5t-305 -79.5zM328 1561h229l109 -213l110 213h230l-181 -316h-317zM334 563q0 -160 92 -260t240 -100
q149 0 241 100.5t92 259.5q0 157 -93.5 259t-239.5 102q-148 0 -240 -101.5t-92 -259.5z" />
    <glyph glyph-name="uni01D3" unicode="&#x1d3;" horiz-adv-x="1665" 
d="M831 -31q-306 0 -485.5 177.5t-179.5 478.5v936h270v-936q0 -188 105.5 -296t289.5 -108q185 0 292.5 108.5t107.5 295.5v936h268v-936q0 -301 -180.5 -478.5t-487.5 -177.5zM494 1995h229l108 -213l111 213h229l-180 -316h-317z" />
    <glyph glyph-name="uni01D4" unicode="&#x1d4;" 
d="M381 522q0 -149 75 -235t206 -86q136 0 209 88t73 252v585h258v-1126h-258v131q-61 -78 -152 -120t-204 -42q-214 0 -339.5 144t-125.5 391v622h258v-604zM332 1561h229l109 -213l110 213h230l-181 -316h-317z" />
    <glyph glyph-name="uni01E2" unicode="&#x1e2;" horiz-adv-x="2267" 
d="M12 0l744 1561h1405v-248h-842v-400h612v-245h-612v-422h850v-246h-1120v408h-566l-186 -408h-285zM598 653h451v660h-146zM1022 1688v192h811v-192h-811z" />
    <glyph glyph-name="uni01E3" unicode="&#x1e3;" horiz-adv-x="2097" 
d="M1473 -31q-180 0 -311 76t-199 215q-65 -136 -186.5 -213.5t-276.5 -77.5q-194 0 -307 92.5t-113 251.5q0 171 128 267t349 94h340q-8 124 -80 189t-203 65q-98 0 -162 -46.5t-79 -131.5h-264q15 169 160.5 288t359.5 119q271 0 415 -180q156 180 410 180q85 0 163.5 -20
t152 -67t127 -117t86 -176.5t32.5 -239.5v-33h-860q13 -146 95.5 -224.5t222.5 -78.5q101 0 178.5 49.5t97.5 126.5h260q-10 -111 -83.5 -204.5t-193.5 -148.5t-259 -55zM342 334q0 -64 54.5 -104t142.5 -40q116 0 218.5 76t131.5 209l-287 2q-138 0 -199 -36.5t-61 -106.5z
M643 1251v193h811v-193h-811zM1174 705h569q-27 102 -102.5 161.5t-186.5 59.5q-104 0 -177 -59.5t-103 -161.5z" />
    <glyph glyph-name="Gcaron" unicode="&#x1e6;" horiz-adv-x="1718" 
d="M848 -31q-161 0 -301.5 59t-241.5 163.5t-159 257t-58 331.5q0 225 95 409t273.5 293t407.5 109q271 0 471 -150t246 -388h-293q-35 133 -149 210.5t-275 77.5q-216 0 -356.5 -159.5t-140.5 -401.5q0 -246 144 -403.5t368 -157.5q176 0 308 104t152 277h-413v242h673
v-844h-256v233q-83 -126 -211.5 -194t-283.5 -68zM520 1995h230l108 -213l111 213h229l-180 -316h-318z" />
    <glyph glyph-name="gcaron" unicode="&#x1e7;" horiz-adv-x="1343" 
d="M614 -487q-235 0 -383.5 122t-148.5 314h250q0 -99 83 -162t214 -63q159 0 243 80t84 231v127q-142 -158 -356 -158q-227 0 -371.5 162t-144.5 414q0 253 144 415t372 162q217 0 356 -158v127h261v-1073q0 -260 -157 -400t-446 -140zM332 1561h229l109 -213l110 213h230
l-181 -316h-317zM352 580q0 -152 84.5 -246t218.5 -94q135 0 218 94t83 248q0 150 -83 243t-218 93q-134 0 -218.5 -94t-84.5 -244z" />
    <glyph glyph-name="uni01E8" unicode="&#x1e8;" horiz-adv-x="1525" 
d="M182 0v1561h271v-820l721 820h344l-625 -699l620 -862h-315l-475 680l-270 -307v-373h-271zM424 1995h229l109 -213l110 213h230l-180 -316h-318z" />
    <glyph glyph-name="uni01E9" unicode="&#x1e9;" horiz-adv-x="1249" 
d="M127 0v1561h258v-943l504 508h332l-459 -456l481 -670h-297l-348 506l-213 -217v-289h-258zM494 1561h229l108 -213l111 213h229l-180 -316h-317z" />
    <glyph glyph-name="uni01EA" unicode="&#x1ea;" horiz-adv-x="1804" 
d="M903 225q238 0 387.5 153.5t149.5 399.5q0 247 -149.5 403t-387.5 156q-236 0 -385 -155t-149 -402q0 -246 149 -400.5t385 -154.5zM88 780q0 236 103.5 421t289 287.5t422.5 102.5q177 0 328 -60t257.5 -166.5t167 -258t60.5 -328.5q0 -309 -173.5 -523.5t-461.5 -268.5
h2h-2l-47 -9q-33 -11 -52 -36t-19 -58q0 -41 27 -65.5t71 -24.5q73 0 119 43v-166q-31 -36 -84.5 -57t-118.5 -21q-103 0 -166 53.5t-63 143.5q0 113 112 180q-226 10 -402 115t-273 286t-97 410z" />
    <glyph glyph-name="uni01EB" unicode="&#x1eb;" horiz-adv-x="1331" 
d="M666 203q149 0 241 100.5t92 259.5q0 157 -93.5 259t-239.5 102q-148 0 -240 -101.5t-92 -259.5q0 -160 92 -260t240 -100zM80 563q0 123 42.5 232t118 189t186 126.5t239.5 46.5q166 0 298.5 -74.5t208.5 -210.5t76 -309q0 -213 -119.5 -372.5t-318.5 -204.5
q-37 -9 -53 -11q-66 -26 -66 -92q0 -41 27 -65.5t72 -24.5q72 0 118 43v-166q-68 -78 -202 -78q-104 0 -167 53.5t-63 143.5q0 116 117 184q-227 23 -370.5 185.5t-143.5 404.5z" />
    <glyph glyph-name="AEacute" unicode="&#x1fc;" horiz-adv-x="2267" 
d="M12 0l744 1561h1405v-248h-842v-400h612v-245h-612v-422h850v-246h-1120v408h-566l-186 -408h-285zM598 653h451v660h-146zM1335 1692l193 327h299l-297 -327h-195z" />
    <glyph glyph-name="aeacute" unicode="&#x1fd;" horiz-adv-x="2097" 
d="M1473 -31q-180 0 -311 76t-199 215q-65 -136 -186.5 -213.5t-276.5 -77.5q-194 0 -307 92.5t-113 251.5q0 171 128 267t349 94h340q-8 124 -80 189t-203 65q-98 0 -162 -46.5t-79 -131.5h-264q15 169 160.5 288t359.5 119q271 0 415 -180q156 180 410 180q85 0 163.5 -20
t152 -67t127 -117t86 -176.5t32.5 -239.5v-33h-860q13 -146 95.5 -224.5t222.5 -78.5q101 0 178.5 49.5t97.5 126.5h260q-10 -111 -83.5 -204.5t-193.5 -148.5t-259 -55zM342 334q0 -64 54.5 -104t142.5 -40q116 0 218.5 76t131.5 209l-287 2q-138 0 -199 -36.5t-61 -106.5z
M956 1255l193 328h299l-297 -328h-195zM1174 705h569q-27 102 -102.5 161.5t-186.5 59.5q-104 0 -177 -59.5t-103 -161.5z" />
    <glyph glyph-name="Oslashacute" unicode="&#x1fe;" horiz-adv-x="1804" 
d="M2 0l248 272q-162 214 -162 508q0 236 103.5 421t289 287.5t422.5 102.5q252 0 443 -116l143 157h311l-276 -305q192 -217 192 -549q0 -176 -60.5 -326.5t-167 -256.5t-257.5 -166t-328 -60q-280 0 -485 144l-103 -113h-313zM365 780q0 -169 75 -301l723 797
q-119 61 -262 61q-237 0 -386.5 -155t-149.5 -402zM598 311q131 -86 303 -86q238 0 386.5 153.5t148.5 399.5q0 197 -101 344zM782 1692l193 327h299l-297 -327h-195z" />
    <glyph glyph-name="oslashacute" unicode="&#x1ff;" horiz-adv-x="1310" 
d="M-2 0l182 203q-108 148 -108 360q0 165 72 300t206.5 214.5t306.5 79.5q177 0 314 -84l47 53h295l-183 -200q111 -155 111 -363q0 -123 -42.5 -232t-118 -189t-185.5 -126.5t-238 -46.5q-172 0 -315 84l-47 -53h-297zM326 563q0 -98 32 -166l447 494q-74 33 -148 33
q-148 0 -239.5 -101.5t-91.5 -259.5zM508 236q71 -33 149 -33q148 0 241 101t93 259q0 93 -35 168zM565 1255l193 328h299l-297 -328h-195z" />
    <glyph glyph-name="uni0218" unicode="&#x218;" horiz-adv-x="1460" 
d="M770 -31q-305 0 -487 147t-183 394h310q3 -135 106.5 -215t274.5 -80q154 0 243.5 56.5t89.5 152.5q0 37 -9 65t-35.5 57.5t-82.5 53t-141 41.5l-256 53q-248 52 -353.5 155t-105.5 286q0 201 169 328.5t433 127.5q168 0 312.5 -73.5t227.5 -191t87 -247.5h-303
q-7 109 -104 177.5t-242 68.5q-128 0 -209.5 -48t-81.5 -142q0 -73 64 -122.5t204 -84.5l281 -72q209 -54 312.5 -160.5t103.5 -283.5q0 -205 -168 -324t-457 -119zM635 -487l24 364h244l-119 -364h-149z" />
    <glyph glyph-name="uni0219" unicode="&#x219;" horiz-adv-x="1128" 
d="M594 -31q-226 0 -365 117t-133 303h260q-3 -92 67 -150.5t183 -58.5q99 0 160 36t61 95q0 24 -5.5 40t-23 34t-54.5 32.5t-95 26.5l-184 39q-340 70 -340 332q0 152 124.5 247t323.5 95q133 0 242 -53t170 -145t57 -203h-254q3 78 -62 130t-165 52q-85 0 -138.5 -34.5
t-53.5 -88.5q0 -46 41 -75t139 -54l201 -51q311 -77 311 -334q0 -148 -130 -240t-337 -92zM442 -487l25 364h244l-119 -364h-150z" />
    <glyph glyph-name="uni021A" unicode="&#x21a;" horiz-adv-x="1443" 
d="M588 0v1313h-580v248h1428v-248h-576v-1313h-272zM571 -487l25 364h244l-119 -364h-150z" />
    <glyph glyph-name="uni021B" unicode="&#x21b;" horiz-adv-x="774" 
d="M510 -31q-147 0 -231 89t-84 243v610h-183v215h183v287h258v-287h288v-215h-288v-551q0 -85 30.5 -122t100.5 -37q91 0 157 63v-207q-33 -38 -97 -63t-134 -25zM309 -487l25 364h244l-119 -364h-150z" />
    <glyph glyph-name="uni0232" unicode="&#x232;" horiz-adv-x="1501" 
d="M614 0v578l-608 983h307l437 -736l438 736h307l-610 -986v-575h-271zM346 1688v192h811v-192h-811z" />
    <glyph glyph-name="uni0233" unicode="&#x233;" horiz-adv-x="1202" 
d="M268 -487l195 452l-455 1161h260l318 -866l344 866h264l-676 -1613h-250zM197 1251v193h811v-193h-811z" />
    <glyph glyph-name="uni0237" unicode="&#x237;" horiz-adv-x="561" 
d="M119 -518q-72 0 -135.5 24t-96.5 62v209q66 -66 160 -66q57 0 92 35t35 104v1276h260v-1314q0 -154 -90 -242t-225 -88z" />
    <glyph glyph-name="uni0259" unicode="&#x259;" horiz-adv-x="1277" 
d="M625 1157q264 0 418.5 -160t154.5 -434q0 -164 -66 -298t-194.5 -215t-296.5 -81q-85 0 -163 20t-151 67.5t-126.5 117t-86 176.5t-32.5 240v33h860q-13 146 -95 223.5t-222 77.5q-101 0 -179 -49t-98 -125h-260q10 111 84 204.5t194 148t259 54.5zM354 424
q27 -103 102 -163t185 -60q104 0 179 60t106 163h-572z" />
    <glyph glyph-name="gravecomb" unicode="&#x300;" horiz-adv-x="0" 
d="M397 1233l-295 328h299l191 -328h-195z" />
    <glyph glyph-name="acutecomb" unicode="&#x301;" horiz-adv-x="0" 
d="M102 1233l193 328h299l-297 -328h-195z" />
    <glyph glyph-name="uni0302" unicode="&#x302;" horiz-adv-x="0" 
d="M102 1245l181 316h317l180 -316h-229l-111 213l-108 -213h-230z" />
    <glyph glyph-name="tildecomb" unicode="&#x303;" horiz-adv-x="0" 
d="M625 1204q-49 0 -95 28t-75.5 61t-68 61t-75.5 28q-54 0 -91 -40t-44 -109l-74 94q8 109 61.5 173.5t139.5 64.5q37 0 70.5 -13.5t57 -33.5t48.5 -43.5t45 -43.5t46 -33.5t53 -13.5q51 0 87.5 40.5t43.5 107.5l73 -92q-8 -109 -62 -172.5t-140 -63.5z" />
    <glyph glyph-name="uni0304" unicode="&#x304;" horiz-adv-x="0" 
d="M102 1229v192h811v-192h-811z" />
    <glyph glyph-name="uni0306" unicode="&#x306;" horiz-adv-x="0" 
d="M449 1208q-156 0 -251.5 96.5t-95.5 256.5h183q0 -87 44 -138t120 -51t119.5 51t43.5 138h183q0 -161 -95 -257t-251 -96z" />
    <glyph glyph-name="uni0307" unicode="&#x307;" horiz-adv-x="0" 
d="M266 1245q-69 0 -116.5 47t-47.5 115q0 66 47.5 111t116.5 45t117.5 -45t48.5 -111q0 -67 -48.5 -114.5t-117.5 -47.5z" />
    <glyph glyph-name="uni0308" unicode="&#x308;" horiz-adv-x="0" 
d="M733 1245q-69 0 -116.5 47t-47.5 115q0 66 47.5 111t116.5 45t117.5 -45t48.5 -111q0 -67 -48.5 -114.5t-117.5 -47.5zM102 1407q0 66 47.5 111t116.5 45t117.5 -45t48.5 -111q0 -67 -48.5 -114.5t-117.5 -47.5t-116.5 47t-47.5 115z" />
    <glyph glyph-name="uni030A" unicode="&#x30a;" horiz-adv-x="0" 
d="M332 1208q-97 0 -163.5 66t-66.5 164q0 95 66.5 161t163.5 66q95 0 161 -66t66 -161q0 -98 -65.5 -164t-161.5 -66zM233 1438q0 -41 29 -70t70 -29q40 0 68 29t28 70t-28 68.5t-68 27.5q-42 0 -70.5 -27.5t-28.5 -68.5z" />
    <glyph glyph-name="uni030B" unicode="&#x30b;" horiz-adv-x="0" 
d="M102 1233l193 328h299l-297 -328h-195zM434 1233l193 328h299l-297 -328h-195z" />
    <glyph glyph-name="uni030C" unicode="&#x30c;" horiz-adv-x="0" 
d="M102 1561h230l108 -213l111 213h229l-180 -316h-317z" />
    <glyph glyph-name="uni0310" unicode="&#x310;" horiz-adv-x="0" 
d="M449 1208q-156 0 -251.5 96.5t-95.5 256.5h183q0 -87 44 -138t120 -51t119.5 51t43.5 138h183q0 -161 -95 -257t-251 -96zM283 1849q0 66 47 111t116 45t117.5 -45t48.5 -111q0 -67 -48.5 -114t-117.5 -47t-116 46.5t-47 114.5z" />
    <glyph glyph-name="uni0312" unicode="&#x312;" horiz-adv-x="0" 
d="M418 1698v-430h-316l129 430h187z" />
    <glyph glyph-name="dotbelowcomb" unicode="&#x323;" horiz-adv-x="0" 
d="M266 -457q-69 0 -116.5 47t-47.5 115q0 66 47.5 111t116.5 45t117.5 -45t48.5 -111q0 -67 -48.5 -114.5t-117.5 -47.5z" />
    <glyph glyph-name="uni0324" unicode="&#x324;" horiz-adv-x="0" 
d="M733 -457q-69 0 -116.5 47t-47.5 115q0 66 47.5 111t116.5 45t117.5 -45t48.5 -111q0 -67 -48.5 -114.5t-117.5 -47.5zM102 -295q0 66 47.5 111t116.5 45t117.5 -45t48.5 -111q0 -67 -48.5 -114.5t-117.5 -47.5t-116.5 47t-47.5 115z" />
    <glyph glyph-name="uni0326" unicode="&#x326;" horiz-adv-x="0" 
d="M102 -487l25 364h244l-119 -364h-150z" />
    <glyph glyph-name="uni0327" unicode="&#x327;" horiz-adv-x="0" 
d="M279 -430q-57 11 -104.5 40.5t-72.5 70.5l31 161q43 -53 111 -65q43 -6 72 10.5t38 54.5q6 38 -14.5 73t-60.5 52v33h167v-61q48 -34 71 -92.5t13 -120.5q-17 -91 -84 -133t-167 -23z" />
    <glyph glyph-name="uni0328" unicode="&#x328;" horiz-adv-x="0" 
d="M332 -393q-104 0 -167 53t-63 143q0 63 37 114t105 83h194q-54 0 -87.5 -28.5t-33.5 -73.5q0 -41 27.5 -66t71.5 -25q73 0 119 43v-165q-31 -36 -84.5 -57t-118.5 -21z" />
    <glyph glyph-name="uni032E" unicode="&#x32e;" horiz-adv-x="0" 
d="M449 -487q-156 0 -251.5 96t-95.5 256h183q0 -87 44 -138t120 -51t119.5 51t43.5 138h183q0 -160 -95 -256t-251 -96z" />
    <glyph glyph-name="uni0331" unicode="&#x331;" horiz-adv-x="0" 
d="M102 -430v192h811v-192h-811z" />
    <glyph glyph-name="uni0E3F" unicode="&#xe3f;" horiz-adv-x="1466" 
d="M588 -264v264h-406v1561h406v249h252v-249h4q210 0 340.5 -117t130.5 -305q0 -105 -44 -190.5t-124 -141.5q110 -55 169.5 -150t59.5 -223q0 -201 -136.5 -317.5t-371.5 -116.5h-28v-264h-252zM453 248h135v436h-135v-436zM453 909h135v404h-135v-404zM840 248h26
q113 0 178.5 56.5t65.5 154.5q0 104 -65.5 164.5t-178.5 60.5h-26v-436zM840 909q97 4 153 59t56 144t-56 142.5t-153 58.5v-404z" />
    <glyph glyph-name="uni1E0C" unicode="&#x1e0c;" horiz-adv-x="1636" 
d="M182 0v1561h551q376 0 595.5 -211t219.5 -572q0 -358 -219.5 -568t-595.5 -210h-551zM453 248h276q254 0 402.5 143t148.5 387q0 246 -149 390.5t-402 144.5h-276v-1065zM590 -295q0 66 47.5 111t116.5 45t117.5 -45t48.5 -111q0 -67 -48.5 -114.5t-117.5 -47.5
t-116.5 47t-47.5 115z" />
    <glyph glyph-name="uni1E0D" unicode="&#x1e0d;" horiz-adv-x="1359" 
d="M610 -31q-234 0 -382 166.5t-148 427.5q0 262 147.5 429t382.5 167q220 0 365 -164v566h258v-1561h-258v131q-143 -162 -365 -162zM330 563q0 -159 90.5 -259.5t230.5 -100.5q143 0 233.5 100.5t90.5 259.5q0 160 -90.5 261.5t-233.5 101.5q-140 0 -230.5 -102
t-90.5 -261zM580 -295q0 66 47 111t116 45t117.5 -45t48.5 -111q0 -67 -48.5 -114.5t-117.5 -47.5t-116 47t-47 115z" />
    <glyph glyph-name="uni1E0E" unicode="&#x1e0e;" horiz-adv-x="1636" 
d="M182 0v1561h551q376 0 595.5 -211t219.5 -572q0 -358 -219.5 -568t-595.5 -210h-551zM330 -430v192h811v-192h-811zM453 248h276q254 0 402.5 143t148.5 387q0 246 -149 390.5t-402 144.5h-276v-1065z" />
    <glyph glyph-name="uni1E0F" unicode="&#x1e0f;" horiz-adv-x="1359" 
d="M610 -31q-234 0 -382 166.5t-148 427.5q0 262 147.5 429t382.5 167q220 0 365 -164v566h258v-1561h-258v131q-143 -162 -365 -162zM319 -430v192h811v-192h-811zM330 563q0 -159 90.5 -259.5t230.5 -100.5q143 0 233.5 100.5t90.5 259.5q0 160 -90.5 261.5t-233.5 101.5
q-140 0 -230.5 -102t-90.5 -261z" />
    <glyph glyph-name="uni1E20" unicode="&#x1e20;" horiz-adv-x="1718" 
d="M848 -31q-161 0 -301.5 59t-241.5 163.5t-159 257t-58 331.5q0 225 95 409t273.5 293t407.5 109q271 0 471 -150t246 -388h-293q-35 133 -149 210.5t-275 77.5q-216 0 -356.5 -159.5t-140.5 -401.5q0 -246 144 -403.5t368 -157.5q176 0 308 104t152 277h-413v242h673
v-844h-256v233q-83 -126 -211.5 -194t-283.5 -68zM455 1688v192h811v-192h-811z" />
    <glyph glyph-name="uni1E21" unicode="&#x1e21;" horiz-adv-x="1343" 
d="M614 -487q-235 0 -383.5 122t-148.5 314h250q0 -99 83 -162t214 -63q159 0 243 80t84 231v127q-142 -158 -356 -158q-227 0 -371.5 162t-144.5 414q0 253 144 415t372 162q217 0 356 -158v127h261v-1073q0 -260 -157 -400t-446 -140zM264 1251v193h811v-193h-811z
M352 580q0 -152 84.5 -246t218.5 -94q135 0 218 94t83 248q0 150 -83 243t-218 93q-134 0 -218.5 -94t-84.5 -244z" />
    <glyph glyph-name="uni1E24" unicode="&#x1e24;" horiz-adv-x="1781" 
d="M1329 0v653h-876v-653h-271v1561h271v-662h876v662h270v-1561h-270zM727 -295q0 66 47.5 111t116.5 45t117.5 -45t48.5 -111q0 -67 -48.5 -114.5t-117.5 -47.5t-116.5 47t-47.5 115z" />
    <glyph glyph-name="uni1E25" unicode="&#x1e25;" 
d="M948 604q0 157 -76.5 239.5t-203.5 82.5q-132 0 -207.5 -85t-75.5 -255v-586h-258v1561h258v-566q62 78 154 121t202 43q210 0 337.5 -140t127.5 -396v-623h-258v604zM502 -295q0 66 47.5 111t116.5 45t117 -45t48 -111q0 -68 -48 -115t-117 -47t-116.5 47t-47.5 115z
" />
    <glyph glyph-name="uni1E2A" unicode="&#x1e2a;" horiz-adv-x="1781" 
d="M1329 0v653h-876v-653h-271v1561h271v-662h876v662h270v-1561h-270zM545 -135h182q0 -87 44 -138t120 -51t120 51t44 138h182q0 -160 -95 -256t-251 -96t-251 96t-95 256z" />
    <glyph glyph-name="uni1E2B" unicode="&#x1e2b;" 
d="M948 604q0 157 -76.5 239.5t-203.5 82.5q-132 0 -207.5 -85t-75.5 -255v-586h-258v1561h258v-566q62 78 154 121t202 43q210 0 337.5 -140t127.5 -396v-623h-258v604zM322 -135h182q0 -87 44 -138t120 -51t119.5 51t43.5 138h183q0 -160 -95 -256t-251 -96t-251 96
t-95 256z" />
    <glyph glyph-name="uni1E34" unicode="&#x1e34;" horiz-adv-x="1525" 
d="M182 0v1561h271v-820l721 820h344l-625 -699l620 -862h-315l-475 680l-270 -307v-373h-271zM340 -430v192h811v-192h-811z" />
    <glyph glyph-name="uni1E35" unicode="&#x1e35;" horiz-adv-x="1249" 
d="M127 0v1561h258v-943l504 508h332l-459 -456l481 -670h-297l-348 506l-213 -217v-289h-258zM238 -430v192h811v-192h-811z" />
    <glyph glyph-name="uni1E36" unicode="&#x1e36;" horiz-adv-x="1333" 
d="M182 0v1561h271v-1313h866v-248h-1137zM578 -295q0 66 47 111t116 45t117.5 -45t48.5 -111q0 -67 -48.5 -114.5t-117.5 -47.5t-116 47t-47 115z" />
    <glyph glyph-name="uni1E37" unicode="&#x1e37;" horiz-adv-x="512" 
d="M127 0v1561h258v-1561h-258zM92 -295q0 66 47.5 111t116.5 45t117.5 -45t48.5 -111q0 -67 -48.5 -114.5t-117.5 -47.5t-116.5 47t-47.5 115z" />
    <glyph glyph-name="uni1E38" unicode="&#x1e38;" horiz-adv-x="1333" 
d="M182 0v1561h271v-1313h866v-248h-1137zM-88 1688v192h811v-192h-811zM578 -295q0 66 47 111t116 45t117.5 -45t48.5 -111q0 -67 -48.5 -114.5t-117.5 -47.5t-116 47t-47 115z" />
    <glyph glyph-name="uni1E39" unicode="&#x1e39;" horiz-adv-x="512" 
d="M127 0v1561h258v-1561h-258zM-150 1688v192h812v-192h-812zM92 -295q0 66 47.5 111t116.5 45t117.5 -45t48.5 -111q0 -67 -48.5 -114.5t-117.5 -47.5t-116.5 47t-47.5 115z" />
    <glyph glyph-name="uni1E3A" unicode="&#x1e3a;" horiz-adv-x="1333" 
d="M182 0v1561h271v-1313h866v-248h-1137zM315 -430v192h811v-192h-811z" />
    <glyph glyph-name="uni1E3B" unicode="&#x1e3b;" horiz-adv-x="512" 
d="M127 0v1561h258v-1561h-258zM-168 -430v192h811v-192h-811z" />
    <glyph glyph-name="uni1E3E" unicode="&#x1e3e;" horiz-adv-x="2131" 
d="M182 0v1561h420l465 -1305l463 1305h420v-1561h-271v1231l-450 -1231h-322l-456 1239v-1239h-269zM975 1692l192 327h299l-297 -327h-194z" />
    <glyph glyph-name="uni1E3F" unicode="&#x1e3f;" horiz-adv-x="2048" 
d="M1665 604q0 149 -68 234.5t-186 85.5q-126 0 -193 -87t-67 -251v-586h-246v604q0 149 -66.5 234.5t-183.5 85.5q-270 0 -270 -338v-586h-258v1126h258v-131q118 162 330 162q134 0 232 -65.5t151 -186.5q52 118 153.5 185t235.5 67q203 0 320.5 -143.5t117.5 -390.5v-623
h-260v604zM942 1255l193 328h299l-297 -328h-195z" />
    <glyph glyph-name="uni1E40" unicode="&#x1e40;" horiz-adv-x="2131" 
d="M182 0v1561h420l465 -1305l463 1305h420v-1561h-271v1231l-450 -1231h-322l-456 1239v-1239h-269zM901 1841q0 66 47.5 111t116.5 45t117.5 -45t48.5 -111q0 -67 -48.5 -114.5t-117.5 -47.5t-116.5 47t-47.5 115z" />
    <glyph glyph-name="uni1E41" unicode="&#x1e41;" horiz-adv-x="2048" 
d="M1665 604q0 149 -68 234.5t-186 85.5q-126 0 -193 -87t-67 -251v-586h-246v604q0 149 -66.5 234.5t-183.5 85.5q-270 0 -270 -338v-586h-258v1126h258v-131q118 162 330 162q134 0 232 -65.5t151 -186.5q52 118 153.5 185t235.5 67q203 0 320.5 -143.5t117.5 -390.5v-623
h-260v604zM868 1407q0 66 47.5 111t116.5 45t117.5 -45t48.5 -111q0 -67 -48.5 -114.5t-117.5 -47.5t-116.5 47t-47.5 115z" />
    <glyph glyph-name="uni1E42" unicode="&#x1e42;" horiz-adv-x="2131" 
d="M182 0v1561h420l465 -1305l463 1305h420v-1561h-271v1231l-450 -1231h-322l-456 1239v-1239h-269zM903 -295q0 66 47.5 111t116.5 45t117.5 -45t48.5 -111q0 -67 -48.5 -114.5t-117.5 -47.5t-116.5 47t-47.5 115z" />
    <glyph glyph-name="uni1E43" unicode="&#x1e43;" horiz-adv-x="2048" 
d="M1665 604q0 149 -68 234.5t-186 85.5q-126 0 -193 -87t-67 -251v-586h-246v604q0 149 -66.5 234.5t-183.5 85.5q-270 0 -270 -338v-586h-258v1126h258v-131q118 162 330 162q134 0 232 -65.5t151 -186.5q52 118 153.5 185t235.5 67q203 0 320.5 -143.5t117.5 -390.5v-623
h-260v604zM870 -295q0 66 47.5 111t116.5 45t117.5 -45t48.5 -111q0 -67 -48.5 -114.5t-117.5 -47.5t-116.5 47t-47.5 115z" />
    <glyph glyph-name="uni1E44" unicode="&#x1e44;" horiz-adv-x="1777" 
d="M182 0v1561h377l764 -1260v1260h272v-1561h-378l-764 1255v-1255h-271zM723 1841q0 66 47.5 111t116.5 45t117.5 -45t48.5 -111q0 -67 -48.5 -114.5t-117.5 -47.5t-116.5 47t-47.5 115z" />
    <glyph glyph-name="uni1E45" unicode="&#x1e45;" 
d="M948 604q0 149 -75 235.5t-205 86.5q-137 0 -210 -88t-73 -252v-586h-258v1126h258v-131q61 78 152 120t204 42q214 0 339.5 -143.5t125.5 -390.5v-623h-258v604zM520 1407q0 66 47.5 111t116.5 45t117.5 -45t48.5 -111q0 -67 -48.5 -114.5t-117.5 -47.5t-116.5 47
t-47.5 115z" />
    <glyph glyph-name="uni1E46" unicode="&#x1e46;" horiz-adv-x="1777" 
d="M182 0v1561h377l764 -1260v1260h272v-1561h-378l-764 1255v-1255h-271zM725 -295q0 66 47.5 111t116.5 45t117.5 -45t48.5 -111q0 -67 -48.5 -114.5t-117.5 -47.5t-116.5 47t-47.5 115z" />
    <glyph glyph-name="uni1E47" unicode="&#x1e47;" 
d="M948 604q0 149 -75 235.5t-205 86.5q-137 0 -210 -88t-73 -252v-586h-258v1126h258v-131q61 78 152 120t204 42q214 0 339.5 -143.5t125.5 -390.5v-623h-258v604zM520 -295q0 66 47.5 111t116.5 45t117.5 -45t48.5 -111q0 -67 -48.5 -114.5t-117.5 -47.5t-116.5 47
t-47.5 115z" />
    <glyph glyph-name="uni1E48" unicode="&#x1e48;" horiz-adv-x="1777" 
d="M182 0v1561h377l764 -1260v1260h272v-1561h-378l-764 1255v-1255h-271zM463 -430v192h811v-192h-811z" />
    <glyph glyph-name="uni1E49" unicode="&#x1e49;" 
d="M948 604q0 149 -75 235.5t-205 86.5q-137 0 -210 -88t-73 -252v-586h-258v1126h258v-131q61 78 152 120t204 42q214 0 339.5 -143.5t125.5 -390.5v-623h-258v604zM260 -430v192h811v-192h-811z" />
    <glyph glyph-name="uni1E5C" unicode="&#x1e5c;" horiz-adv-x="1464" 
d="M1149 0l-326 555h-4h-366v-555h-271v1561h637q241 0 393 -140.5t152 -363.5q0 -155 -75.5 -272.5t-209.5 -178.5l383 -606h-313zM268 1688v192h811v-192h-811zM453 799h364q123 0 201 71.5t78 186.5q0 116 -77.5 188t-201.5 72h-364v-518zM639 -295q0 66 47.5 111
t116.5 45t117.5 -45t48.5 -111q0 -67 -48.5 -114.5t-117.5 -47.5t-116.5 47t-47.5 115z" />
    <glyph glyph-name="uni1E5D" unicode="&#x1e5d;" horiz-adv-x="866" 
d="M127 0v1126h258v-159q51 89 133 139.5t176 50.5q82 0 146 -33v-260q-25 22 -69 35.5t-85 13.5q-150 0 -225.5 -102t-75.5 -297v-514h-258zM55 1251v193h811v-193h-811zM88 -295q0 66 47.5 111t116.5 45t117.5 -45t48.5 -111q0 -67 -48.5 -114.5t-117.5 -47.5t-116.5 47
t-47.5 115z" />
    <glyph glyph-name="uni1E5E" unicode="&#x1e5e;" horiz-adv-x="1464" 
d="M1149 0l-326 555h-4h-366v-555h-271v1561h637q241 0 393 -140.5t152 -363.5q0 -155 -75.5 -272.5t-209.5 -178.5l383 -606h-313zM377 -430v192h811v-192h-811zM453 799h364q123 0 201 71.5t78 186.5q0 116 -77.5 188t-201.5 72h-364v-518z" />
    <glyph glyph-name="uni1E5F" unicode="&#x1e5f;" horiz-adv-x="866" 
d="M127 0v1126h258v-159q51 89 133 139.5t176 50.5q82 0 146 -33v-260q-25 22 -69 35.5t-85 13.5q-150 0 -225.5 -102t-75.5 -297v-514h-258zM-172 -430v192h811v-192h-811z" />
    <glyph glyph-name="uni1E62" unicode="&#x1e62;" horiz-adv-x="1460" 
d="M770 -31q-305 0 -487 147t-183 394h310q3 -135 106.5 -215t274.5 -80q154 0 243.5 56.5t89.5 152.5q0 37 -9 65t-35.5 57.5t-82.5 53t-141 41.5l-256 53q-248 52 -353.5 155t-105.5 286q0 201 169 328.5t433 127.5q168 0 312.5 -73.5t227.5 -191t87 -247.5h-303
q-7 109 -104 177.5t-242 68.5q-128 0 -209.5 -48t-81.5 -142q0 -73 64 -122.5t204 -84.5l281 -72q209 -54 312.5 -160.5t103.5 -283.5q0 -205 -168 -324t-457 -119zM621 -295q0 66 47 111t116 45t117.5 -45t48.5 -111q0 -67 -48.5 -114.5t-117.5 -47.5t-116 47t-47 115z" />
    <glyph glyph-name="uni1E63" unicode="&#x1e63;" horiz-adv-x="1128" 
d="M594 -31q-226 0 -365 117t-133 303h260q-3 -92 67 -150.5t183 -58.5q99 0 160 36t61 95q0 24 -5.5 40t-23 34t-54.5 32.5t-95 26.5l-184 39q-340 70 -340 332q0 152 124.5 247t323.5 95q133 0 242 -53t170 -145t57 -203h-254q3 78 -62 130t-165 52q-85 0 -138.5 -34.5
t-53.5 -88.5q0 -46 41 -75t139 -54l201 -51q311 -77 311 -334q0 -148 -130 -240t-337 -92zM426 -295q0 66 47.5 111t116.5 45t117.5 -45t48.5 -111q0 -67 -48.5 -114.5t-117.5 -47.5t-116.5 47t-47.5 115z" />
    <glyph glyph-name="uni1E6C" unicode="&#x1e6c;" horiz-adv-x="1443" 
d="M588 0v1313h-580v248h1428v-248h-576v-1313h-272zM557 -295q0 66 47.5 111t116.5 45t117.5 -45t48.5 -111q0 -67 -48.5 -114.5t-117.5 -47.5t-116.5 47t-47.5 115z" />
    <glyph glyph-name="uni1E6D" unicode="&#x1e6d;" horiz-adv-x="774" 
d="M510 -31q-147 0 -231 89t-84 243v610h-183v215h183v287h258v-287h288v-215h-288v-551q0 -85 30.5 -122t100.5 -37q91 0 157 63v-207q-33 -38 -97 -63t-134 -25zM295 -295q0 66 47.5 111t116.5 45t117.5 -45t48.5 -111q0 -67 -48.5 -114.5t-117.5 -47.5t-116.5 47
t-47.5 115z" />
    <glyph glyph-name="uni1E6E" unicode="&#x1e6e;" horiz-adv-x="1443" 
d="M588 0v1313h-580v248h1428v-248h-576v-1313h-272zM297 -430v192h811v-192h-811z" />
    <glyph glyph-name="uni1E6F" unicode="&#x1e6f;" horiz-adv-x="774" 
d="M510 -31q-147 0 -231 89t-84 243v610h-183v215h183v287h258v-287h288v-215h-288v-551q0 -85 30.5 -122t100.5 -37q91 0 157 63v-207q-33 -38 -97 -63t-134 -25zM35 -430v192h811v-192h-811z" />
    <glyph glyph-name="Wgrave" unicode="&#x1e80;" horiz-adv-x="2285" 
d="M444 0l-438 1561h262l355 -1334l358 1334h326l356 -1342l354 1342h262l-444 -1561h-360l-332 1268l-334 -1268h-365zM733 2019h299l191 -327h-195z" />
    <glyph glyph-name="wgrave" unicode="&#x1e81;" horiz-adv-x="1869" 
d="M358 0l-350 1126h254l266 -903l246 903h324l243 -903l267 903h254l-353 -1126h-333l-240 881l-240 -881h-338zM524 1583h299l191 -328h-195z" />
    <glyph glyph-name="Wacute" unicode="&#x1e82;" horiz-adv-x="2285" 
d="M444 0l-438 1561h262l355 -1334l358 1334h326l356 -1342l354 1342h262l-444 -1561h-360l-332 1268l-334 -1268h-365zM1053 1692l192 327h299l-297 -327h-194z" />
    <glyph glyph-name="wacute" unicode="&#x1e83;" horiz-adv-x="1869" 
d="M358 0l-350 1126h254l266 -903l246 903h324l243 -903l267 903h254l-353 -1126h-333l-240 881l-240 -881h-338zM844 1255l192 328h299l-297 -328h-194z" />
    <glyph glyph-name="Wdieresis" unicode="&#x1e84;" horiz-adv-x="2285" 
d="M444 0l-438 1561h262l355 -1334l358 1334h326l356 -1342l354 1342h262l-444 -1561h-360l-332 1268l-334 -1268h-365zM748 1866q0 66 47 110.5t116 44.5t117.5 -44.5t48.5 -110.5q0 -67 -48.5 -114.5t-117.5 -47.5t-116 47t-47 115zM1214 1866q0 66 47.5 110.5t116.5 44.5
t117.5 -44.5t48.5 -110.5q0 -67 -48.5 -114.5t-117.5 -47.5t-116.5 47t-47.5 115z" />
    <glyph glyph-name="wdieresis" unicode="&#x1e85;" horiz-adv-x="1869" 
d="M358 0l-350 1126h254l266 -903l246 903h324l243 -903l267 903h254l-353 -1126h-333l-240 881l-240 -881h-338zM537 1430q0 66 47 110.5t116 44.5t117.5 -44.5t48.5 -110.5q0 -67 -48.5 -114.5t-117.5 -47.5t-116 47t-47 115zM1004 1430q0 66 47 110.5t116 44.5
t117.5 -44.5t48.5 -110.5q0 -67 -48.5 -114.5t-117.5 -47.5t-116 47t-47 115z" />
    <glyph glyph-name="uni1E8E" unicode="&#x1e8e;" horiz-adv-x="1501" 
d="M614 0v578l-608 983h307l437 -736l438 736h307l-610 -986v-575h-271zM586 1841q0 66 47.5 111t116.5 45t117 -45t48 -111q0 -68 -48 -115t-117 -47t-116.5 47t-47.5 115z" />
    <glyph glyph-name="uni1E8F" unicode="&#x1e8f;" horiz-adv-x="1202" 
d="M268 -487l195 452l-455 1161h260l318 -866l344 866h264l-676 -1613h-250zM436 1407q0 66 47.5 111t116.5 45t117.5 -45t48.5 -111q0 -67 -48.5 -114.5t-117.5 -47.5t-116.5 47t-47.5 115z" />
    <glyph glyph-name="uni1E92" unicode="&#x1e92;" horiz-adv-x="1480" 
d="M70 0v293l1052 1020h-993v248h1284v-293l-1071 -1041h1073v-227h-1345zM578 -295q0 66 47 111t116 45t117.5 -45t48.5 -111q0 -67 -48.5 -114.5t-117.5 -47.5t-116 47t-47 115z" />
    <glyph glyph-name="uni1E93" unicode="&#x1e93;" horiz-adv-x="1103" 
d="M51 0v211l664 700h-621v215h932v-213l-659 -698h661v-215h-977zM377 -295q0 66 47.5 111t116.5 45t117.5 -45t48.5 -111q0 -67 -48.5 -114.5t-117.5 -47.5t-116.5 47t-47.5 115z" />
    <glyph glyph-name="uni1E94" unicode="&#x1e94;" horiz-adv-x="1480" 
d="M70 0v293l1052 1020h-993v248h1284v-293l-1071 -1041h1073v-227h-1345zM317 -430v192h811v-192h-811z" />
    <glyph glyph-name="uni1E95" unicode="&#x1e95;" horiz-adv-x="1103" 
d="M51 0v211l664 700h-621v215h932v-213l-659 -698h661v-215h-977zM115 -430v192h811v-192h-811z" />
    <glyph glyph-name="uni1E96" unicode="&#x1e96;" 
d="M948 604q0 157 -76.5 239.5t-203.5 82.5q-132 0 -207.5 -85t-75.5 -255v-586h-258v1561h258v-566q62 78 154 121t202 43q210 0 337.5 -140t127.5 -396v-623h-258v604zM242 -430v192h811v-192h-811z" />
    <glyph glyph-name="uni1E97" unicode="&#x1e97;" horiz-adv-x="774" 
d="M510 -31q-147 0 -231 89t-84 243v610h-183v215h183v287h258v-287h288v-215h-288v-551q0 -85 30.5 -122t100.5 -37q91 0 157 63v-207q-33 -38 -97 -63t-134 -25zM-74 1716q0 66 47.5 111t116.5 45t117.5 -45t48.5 -111q0 -67 -48.5 -114.5t-117.5 -47.5t-116.5 47
t-47.5 115zM393 1716q0 66 47.5 111t116.5 45t117.5 -45t48.5 -111q0 -67 -48.5 -114.5t-117.5 -47.5t-116.5 47t-47.5 115z" />
    <glyph glyph-name="uni1E9E" unicode="&#x1e9e;" horiz-adv-x="1523" 
d="M182 1085q0 240 144 358t438 118h524v-240l-207 -432q167 -50 260 -157t93 -255q0 -219 -153 -348t-413 -129h-247v244h245q142 0 226 63.5t84 169.5q0 104 -84 166t-226 62h-145l297 610h-252q-324 0 -324 -252v-1063h-260v1085z" />
    <glyph glyph-name="uni1EA1" unicode="&#x1ea1;" horiz-adv-x="1273" 
d="M498 -31q-194 0 -307 92.5t-113 251.5q0 170 127.5 265.5t349.5 95.5h338q-8 123 -79.5 188.5t-201.5 65.5q-98 0 -163 -46.5t-78 -131.5h-265q15 169 161 288t362 119q236 0 380 -140t144 -376v-641h-260v152q-150 -183 -395 -183zM338 334q0 -64 55.5 -104t143.5 -40
q116 0 218 77t130 210h-285q-140 0 -201 -36t-61 -107zM461 -295q0 66 47.5 111t116.5 45t117.5 -45t48.5 -111q0 -67 -48.5 -114.5t-117.5 -47.5t-116.5 47t-47.5 115z" />
    <glyph glyph-name="uni1EBC" unicode="&#x1ebc;" horiz-adv-x="1400" 
d="M182 0v1561h1110v-248h-839v-400h612v-245h-612v-422h847v-246h-1118zM356 1786q8 109 61.5 173t139.5 64q44 0 82.5 -18.5t66 -45t53.5 -53t56.5 -45t61.5 -18.5q51 0 87.5 40.5t43.5 107.5l73 -93q-8 -109 -62 -172t-140 -63q-49 0 -95 28t-75.5 61t-68 61t-75.5 28
q-54 0 -91 -40t-44 -109z" />
    <glyph glyph-name="uni1EBD" unicode="&#x1ebd;" horiz-adv-x="1277" 
d="M653 -31q-264 0 -418.5 160t-154.5 434q0 164 66 298t194.5 215t296.5 81q85 0 163 -20t151 -67t126.5 -117t86 -176.5t32.5 -239.5v-33h-860q13 -146 95 -223.5t222 -77.5q101 0 179 49t98 125h260q-10 -111 -84 -204.5t-194 -148.5t-259 -55zM276 1350q8 109 61.5 173
t139.5 64q44 0 82.5 -18.5t66 -45t53.5 -53t56.5 -45t61.5 -18.5q51 0 87.5 40t43.5 107l73 -92q-8 -109 -62 -172t-140 -63q-49 0 -95 28t-75.5 61t-68 61t-75.5 28q-54 0 -91 -40.5t-44 -109.5zM352 702h572q-27 103 -102 163.5t-185 60.5q-104 0 -179 -60.5t-106 -163.5z
" />
    <glyph glyph-name="Ygrave" unicode="&#x1ef2;" horiz-adv-x="1501" 
d="M614 0v578l-608 983h307l437 -736l438 736h307l-610 -986v-575h-271zM340 2019h299l190 -327h-194z" />
    <glyph glyph-name="ygrave" unicode="&#x1ef3;" horiz-adv-x="1202" 
d="M268 -487l195 452l-455 1161h260l318 -866l344 866h264l-676 -1613h-250zM190 1583h299l191 -328h-195z" />
    <glyph glyph-name="uni1EF8" unicode="&#x1ef8;" horiz-adv-x="1501" 
d="M614 0v578l-608 983h307l437 -736l438 736h307l-610 -986v-575h-271zM389 1786q8 109 61.5 173t139.5 64q44 0 82 -18.5t66 -45t54 -53t56 -45t61 -18.5q51 0 87.5 40.5t43.5 107.5l74 -93q-7 -109 -62 -172t-141 -63q-41 0 -78 18.5t-64.5 44.5t-54 52t-56.5 44.5
t-60 18.5q-54 0 -91 -40t-44 -109z" />
    <glyph glyph-name="uni1EF9" unicode="&#x1ef9;" horiz-adv-x="1202" 
d="M268 -487l195 452l-455 1161h260l318 -866l344 866h264l-676 -1613h-250zM240 1350q8 109 61 173t139 64q44 0 82.5 -18.5t66 -45t53.5 -53t56.5 -45t61.5 -18.5q51 0 87.5 40t43.5 107l74 -92q-7 -109 -62 -172t-141 -63q-41 0 -78 18.5t-64.5 44.5t-54 52t-56.5 44.5
t-60 18.5q-54 0 -91.5 -40.5t-44.5 -109.5z" />
    <glyph glyph-name="endash" unicode="&#x2013;" horiz-adv-x="1695" 
d="M127 578v245h1442v-245h-1442z" />
    <glyph glyph-name="emdash" unicode="&#x2014;" horiz-adv-x="2207" 
d="M127 578v245h1952v-245h-1952z" />
    <glyph glyph-name="quoteleft" unicode="&#x2018;" horiz-adv-x="628" 
d="M506 1587l-64 -575h-315l192 575h187z" />
    <glyph glyph-name="quoteright" unicode="&#x2019;" horiz-adv-x="628" 
d="M127 1012l63 575h316l-193 -575h-186z" />
    <glyph glyph-name="quotesinglbase" unicode="&#x201a;" horiz-adv-x="628" 
d="M127 -289l63 576h316l-193 -576h-186z" />
    <glyph glyph-name="quotedblleft" unicode="&#x201c;" horiz-adv-x="1030" 
d="M506 1587l-64 -575h-315l192 575h187zM528 1012l193 575h186l-63 -575h-316z" />
    <glyph glyph-name="quotedblright" unicode="&#x201d;" horiz-adv-x="1030" 
d="M528 1012l64 575h315l-192 -575h-187zM127 1012l63 575h316l-193 -575h-186z" />
    <glyph glyph-name="quotedblbase" unicode="&#x201e;" horiz-adv-x="1040" 
d="M127 -289l63 576h316l-193 -576h-186zM539 -289l63 576h316l-193 -576h-186z" />
    <glyph glyph-name="bullet" unicode="&#x2022;" horiz-adv-x="716" 
d="M362 514q-100 0 -167.5 68t-67.5 168q0 94 67.5 158.5t167.5 64.5q97 0 164.5 -64.5t67.5 -158.5q0 -99 -67.5 -167.5t-164.5 -68.5z" />
    <glyph glyph-name="ellipsis" unicode="&#x2026;" horiz-adv-x="1613" 
d="M1339 -33q-81 0 -136.5 56.5t-55.5 136.5q0 82 55 137t137 55t137.5 -55t55.5 -137q0 -80 -56 -136.5t-137 -56.5zM80 160q0 82 55 137t137 55t137.5 -55t55.5 -137q0 -80 -56 -136.5t-137 -56.5t-136.5 56.5t-55.5 136.5zM612 160q0 82 55.5 137t137.5 55t137 -55
t55 -137q0 -80 -55.5 -136.5t-136.5 -56.5t-137 56.5t-56 136.5z" />
    <glyph glyph-name="perthousand" unicode="&#x2030;" horiz-adv-x="2297" 
d="M371 967q-126 0 -213.5 90.5t-87.5 222.5q0 130 87.5 220.5t213.5 90.5q129 0 217 -90t88 -221q0 -132 -88 -222.5t-217 -90.5zM78 0l1091 1561h306l-1100 -1561h-297zM236 1280q0 -61 40 -103t99 -42t99 42t40 103q0 60 -41 101.5t-100 41.5q-57 0 -97 -41.5t-40 -101.5
zM877 283q0 132 87.5 221.5t213.5 89.5q129 0 217 -89.5t88 -221.5t-88 -223t-217 -91q-126 0 -213.5 91t-87.5 223zM1042 283q0 -60 41 -102t99 -42t98.5 42t40.5 102q0 61 -41 103t-100 42q-57 0 -97.5 -42t-40.5 -103zM1622 283q0 132 87.5 221.5t213.5 89.5
q129 0 217 -89.5t88 -221.5t-88 -223t-217 -91q-126 0 -213.5 91t-87.5 223zM1788 283q0 -60 40.5 -102t98.5 -42t98.5 42t40.5 102q0 61 -41 103t-100 42q-57 0 -97 -42t-40 -103z" />
    <glyph glyph-name="guilsinglleft" unicode="&#x2039;" horiz-adv-x="727" 
d="M604 201l-477 237v334l477 240v-275l-285 -131l285 -133v-272z" />
    <glyph glyph-name="guilsinglright" unicode="&#x203a;" horiz-adv-x="727" 
d="M129 201v272l285 133l-285 131v275l477 -240v-334z" />
    <glyph glyph-name="fraction" unicode="&#x2044;" horiz-adv-x="1417" 
d="M10 0l1092 1561h305l-1100 -1561h-297z" />
    <glyph glyph-name="uni20A6" unicode="&#x20a6;" horiz-adv-x="2281" 
d="M182 864v246h252v451h375l274 -451h492v451h272v-451h252v-246h-252v-143h252v-248h-252v-473h-379l-288 473h-478v-473h-268v473h-252v248h252v143h-252zM702 721h326l-86 143h-240v-143zM702 1110h89l-89 145v-145zM1233 864l86 -143h256v143h-342zM1470 473l105 -172
v172h-105z" />
    <glyph glyph-name="uni20A8" unicode="&#x20a8;" horiz-adv-x="2484" 
d="M1212 0l-325 559q-46 -4 -68 -4h-366v-555h-271v1561h637q241 0 393 -140.5t152 -363.5q0 -141 -63 -251.5t-177 -174.5l400 -631h-312zM453 799h364q123 0 201 71.5t78 186.5q0 116 -77.5 188t-201.5 72h-364v-518zM1452 389h260q-3 -92 67 -150.5t183 -58.5
q99 0 160 36t61 95q0 24 -5.5 40t-23 34t-54.5 32.5t-95 26.5l-184 39q-340 70 -340 332q0 152 124.5 247t323.5 95q133 0 242 -53t170 -145t57 -203h-254q4 78 -61.5 130t-165.5 52q-85 0 -139 -34.5t-54 -88.5q0 -46 41 -75t140 -54l200 -51q312 -77 312 -334
q0 -148 -130 -240t-337 -92q-226 0 -365 117t-133 303z" />
    <glyph glyph-name="uni20A9" unicode="&#x20a9;" horiz-adv-x="2508" 
d="M6 864v246h248l-127 451h262l119 -451h473l121 451h323l119 -451h475l119 451h262l-129 -451h232v-246h-301l-41 -143h342v-248h-412l-135 -473h-361l-122 473h-418l-125 -473h-365l-133 473h-426v248h356l-40 143h-316zM573 864l39 -143h265l36 143h-340zM678 473
l65 -246l66 246h-131zM1120 721h287l-37 143h-213zM1223 1110h82l-41 158zM1610 864l39 -143h266l39 143h-344zM1714 473l68 -258l67 258h-135z" />
    <glyph glyph-name="Euro" unicode="&#x20ac;" horiz-adv-x="1949" 
d="M1151 -31q-261 0 -457 141.5t-272 385.5h-334v227h295q-2 18 -2 57q0 28 4 82h-297v225h344q81 228 271.5 366t447.5 138q276 0 476.5 -150t246.5 -388h-293q-35 134 -150 211t-280 77q-133 0 -242.5 -68t-173.5 -186h584v-225h-655q-5 -68 -5 -82q0 -30 3 -57h657v-227
h-598q64 -129 177 -203t253 -74q163 0 279.5 79.5t154.5 215.5h289q-31 -159 -132.5 -283t-255.5 -193t-335 -69z" />
    <glyph glyph-name="uni20B9" unicode="&#x20b9;" horiz-adv-x="1294" 
d="M1290 1507v-235h-370q38 -62 53 -137h317v-238h-319q-31 -127 -121.5 -217t-224.5 -125q224 -47 399.5 -193t265.5 -362h-299q-66 190 -285 334.5t-524 200.5v235h275q81 0 142.5 34t94.5 93h-508v238h514q-31 64 -95 100.5t-148 36.5h-275v235h1108z" />
    <glyph glyph-name="trademark" unicode="&#x2122;" horiz-adv-x="1662" 
d="M743 918v643h205l164 -431l164 431h205v-643h-142v409l-163 -409h-123l-166 411v-411h-144zM88 1430v131h567v-131h-225l12 -476l-125 -36l-14 512h-215z" />
    <glyph glyph-name="arrowleft" unicode="&#x2190;" horiz-adv-x="1826" 
d="M883 207l-166 -166l-590 598l590 598l166 -166l-326 -313h1147v-234h-1151z" />
    <glyph glyph-name="arrowup" unicode="&#x2191;" horiz-adv-x="1445" 
d="M293 821l-166 166l598 590l598 -590l-166 -166l-313 326v-1147h-234v1151z" />
    <glyph glyph-name="arrowright" unicode="&#x2192;" horiz-adv-x="1826" 
d="M948 1040l166 166l590 -598l-590 -598l-166 166l326 313h-1147v234h1151z" />
    <glyph glyph-name="arrowdown" unicode="&#x2193;" horiz-adv-x="1445" 
d="M293 530l317 -329v1151h234v-1147l313 325l166 -165l-598 -590l-598 590z" />
    <glyph glyph-name="arrowboth" unicode="&#x2194;" horiz-adv-x="2127" 
d="M1415 197l-164 163l299 289h-999l332 -319l-166 -164l-590 598l590 596l166 -164l-328 -315h1055l-359 346l164 166l590 -598z" />
    <glyph glyph-name="arrowupdn" unicode="&#x2195;" horiz-adv-x="1476" 
d="M158 389l164 164l288 -299v999l-319 -331l-164 165l598 590l596 -590l-164 -165l-315 327v-1054l346 358l166 -164l-598 -590z" />
    <glyph glyph-name="uni2196" unicode="&#x2196;" horiz-adv-x="1454" 
d="M360 332h-233l6 839l840 7v-236l-451 8l809 -809l-166 -166l-813 813z" />
    <glyph glyph-name="uni2197" unicode="&#x2197;" horiz-adv-x="1449" 
d="M483 963v233l840 -4l6 -842h-235l8 451l-809 -809l-166 166l813 813z" />
    <glyph glyph-name="uni2198" unicode="&#x2198;" horiz-adv-x="1454" 
d="M1098 690h233l-6 -840l-840 -6v234l453 -8l-811 811l166 166l813 -814z" />
    <glyph glyph-name="uni2199" unicode="&#x2199;" horiz-adv-x="1449" 
d="M973 195v-234l-840 6l-6 840h233l-8 -453l811 811l166 -166l-813 -813z" />
    <glyph glyph-name="minus" unicode="&#x2212;" horiz-adv-x="1568" 
d="M127 635v217h1321v-217h-1321z" />
    <glyph glyph-name="notequal" unicode="&#x2260;" 
d="M182 164l174 280h-229v218h365l108 172h-473v217h608l174 280h283l-174 -280h188v-217h-321l-109 -172h430v-218h-563l-174 -280h-287z" />
    <glyph glyph-name="uniA78B" unicode="&#xa78b;" horiz-adv-x="546" 
d="M190 557l-63 1004h297l-64 -1004h-170z" />
    <glyph glyph-name="uniA78C" unicode="&#xa78c;" horiz-adv-x="630" 
d="M229 874l-63 687h297l-64 -687h-170z" />
    <glyph glyph-name="uni004A0301" horiz-adv-x="1359" 
d="M616 -31q-277 0 -429 153t-152 413q0 83 2 106h270q-2 -20 -2 -102q0 -151 79.5 -232.5t227.5 -81.5q143 0 227.5 85t84.5 229v1022h268v-1020q0 -264 -155 -418t-421 -154zM956 1692l193 327h299l-297 -327h-195z" />
    <glyph glyph-name="uni013B.loclMAH" horiz-adv-x="1333" 
d="M182 0v1561h271v-1313h866v-248h-1137zM592 -487l24 364h244l-119 -364h-149z" />
    <glyph glyph-name="uni0145.loclMAH" horiz-adv-x="1777" 
d="M182 0v1561h377l764 -1260v1260h272v-1561h-378l-764 1255v-1255h-271zM739 -487l25 364h244l-119 -364h-150z" />
    <glyph glyph-name="Q.ss01" horiz-adv-x="1804" 
d="M1270 -340q-165 0 -305.5 89t-200.5 231q-304 43 -490 261t-186 539q0 236 103.5 421t289 287.5t422.5 102.5q177 0 328 -60t257.5 -166.5t167 -258t60.5 -328.5q0 -315 -180.5 -532t-476.5 -264q81 -97 229 -97q52 0 100.5 13t90.5 38.5t68.5 45t60.5 49.5v-258
q-45 -45 -142.5 -79t-195.5 -34zM369 780q0 -246 149 -400.5t385 -154.5q238 0 387.5 153.5t149.5 399.5q0 247 -149.5 403t-387.5 156q-236 0 -385 -155t-149 -402z" />
    <glyph glyph-name="L.ss02" horiz-adv-x="1155" 
d="M182 0v1561h271v-1313h688v-248h-959z" />
    <glyph glyph-name="Lacute.ss02" horiz-adv-x="1155" 
d="M182 0v1561h271v-1313h688v-248h-959zM225 1692l193 327h299l-297 -327h-195z" />
    <glyph glyph-name="Lcaron.ss02" horiz-adv-x="1155" 
d="M182 0v1561h271v-1313h688v-248h-959zM748 1137l36 424h246l-133 -424h-149z" />
    <glyph glyph-name="uni013B.ss02" horiz-adv-x="1155" 
d="M182 0v1561h271v-1313h688v-248h-959zM524 -487l25 364h244l-119 -364h-150z" />
    <glyph glyph-name="uni1E36.ss02" horiz-adv-x="1155" 
d="M182 0v1561h271v-1313h688v-248h-959zM510 -295q0 66 47.5 111t116.5 45t117.5 -45t48.5 -111q0 -67 -48.5 -114.5t-117.5 -47.5t-116.5 47t-47.5 115z" />
    <glyph glyph-name="uni1E38.ss02" horiz-adv-x="1155" 
d="M182 0v1561h271v-1313h688v-248h-959zM-88 1688v192h811v-192h-811zM510 -295q0 66 47.5 111t116.5 45t117.5 -45t48.5 -111q0 -67 -48.5 -114.5t-117.5 -47.5t-116.5 47t-47.5 115z" />
    <glyph glyph-name="Lslash.ss02" horiz-adv-x="1155" 
d="M182 0v580l-145 -68v272l145 68v709h271v-582l536 250v-273l-536 -249v-459h688v-248h-959z" />
    <glyph glyph-name="L_i_n_k_t_r_e_e_one" horiz-adv-x="1679" 
d="M967 1753v-428l293 301l170 -174l-308 -293h432v-241h-434l310 -302l-170 -170l-420 422l-420 -422l-170 170l309 302h-434v241h432l-307 293l170 174l293 -301v428h254zM713 -2v573h254v-573h-254z" />
    <glyph glyph-name="L_i_n_k_t_r_e_e_two" horiz-adv-x="9035" 
d="M188 0v1561h252v-1328h697v-233h-949zM1227 1407q0 65 45.5 109.5t111.5 44.5q65 0 111.5 -45t46.5 -109q0 -66 -46.5 -112t-111.5 -46q-66 0 -111.5 46t-45.5 112zM1262 0v1124h241v-1124h-241zM1645 0v1124h241v-155q113 186 357 186q197 0 311.5 -143t114.5 -387v-625
h-242v604q0 158 -67 244t-191 86q-136 0 -209.5 -90.5t-73.5 -259.5v-584h-241zM2796 0v1561h241v-988l451 551h303l-481 -563l481 -561h-303l-451 549v-549h-241zM3885 346v1065h246v-287h287v-200h-287v-580q0 -55 31 -87t84 -32h161v-225h-194q-158 0 -243 90t-85 256z
M4524 0v1124h242v-139q45 81 118 125.5t164 44.5q50 0 84 -10v-225q-32 8 -90 8q-133 0 -204.5 -107t-71.5 -301v-520h-242zM5149 563q0 164 65.5 297.5t192 214t291.5 80.5q83 0 160 -20t150 -66.5t126.5 -116t86 -176.5t32.5 -239v-33h-867q13 -151 98.5 -231t231.5 -80
q104 0 184.5 51t100.5 129h245q-19 -169 -172.5 -286.5t-357.5 -117.5q-261 0 -414 159.5t-153 434.5zM5405 705h589q-27 106 -104.5 166.5t-191.5 60.5q-108 0 -185 -61t-108 -166zM6359 563q0 164 65.5 297.5t192 214t291.5 80.5q83 0 160 -20t150 -66.5t126.5 -116
t86 -176.5t32.5 -239v-33h-866q14 -151 98.5 -231t230.5 -80q104 0 184.5 51t100.5 129h246q-19 -169 -173 -286.5t-358 -117.5q-261 0 -414 159.5t-153 434.5zM6615 705h590q-27 105 -105 166t-192 61q-108 0 -185 -61t-108 -166zM7522 918v241h432l-307 293l170 174
l293 -301v428h254v-428l293 301l170 -174l-307 -293h432v-241h-434l309 -302l-170 -170l-420 422l-420 -422l-170 170l309 302h-434zM8110 -2v573h254v-573h-254z" />
    <glyph glyph-name="L_i_n_k_t_r_e_e_three" horiz-adv-x="9322" 
d="M172 0v1561h299v-1291h678v-270h-977zM1245 1405q0 69 50.5 115.5t125.5 46.5q74 0 126 -46.5t52 -115.5q0 -70 -52 -118t-126 -48q-75 0 -125.5 47.5t-50.5 118.5zM1278 0v1128h287v-1128h-287zM1704 0v1128h287v-143q113 174 344 174q200 0 315 -144t115 -394v-621
h-287v606q0 146 -60.5 225.5t-172.5 79.5q-123 0 -188.5 -83t-65.5 -238v-590h-287zM2896 0v1561h287v-986l432 553h342l-463 -565l463 -563h-342l-432 551v-551h-287zM4041 375v1040h288v-287h287v-237h-287v-510q0 -58 31.5 -90.5t85.5 -32.5h160v-258h-215
q-167 0 -258.5 98t-91.5 277zM4725 0v1128h286v-137q45 80 117.5 124t165.5 44q46 0 84 -12v-258q-32 8 -88 8q-133 0 -206 -101t-73 -286v-510h-286zM5401 565q0 165 66 298.5t196 214.5t303 81q89 0 169.5 -20.5t154.5 -67.5t128 -117t86.5 -177t32.5 -240v-35h-850
q14 -137 90 -210t207 -73q95 0 167 46.5t91 119.5h287q-12 -174 -168 -295t-379 -121q-270 0 -425.5 160.5t-155.5 435.5zM5702 700h534q-25 99 -95.5 156t-174.5 57q-98 0 -167 -57t-97 -156zM6627 565q0 122 39 230t110 189t179 128t238 47q89 0 169.5 -20.5t154.5 -67.5
t128 -117t86.5 -177t32.5 -240v-35h-850q14 -137 90 -210t207 -73q95 0 167 46.5t91 119.5h287q-12 -174 -168 -295t-379 -121q-270 0 -426 160.5t-156 435.5zM6928 700h535q-25 99 -95.5 156t-174.5 57q-98 0 -167.5 -57t-97.5 -156zM7817 918v241h432l-307 293l170 174
l293 -301v428h254v-428l293 301l170 -174l-307 -293h432v-241h-434l309 -302l-170 -170l-420 422l-420 -422l-170 170l309 302h-434zM8405 -2v573h254v-573h-254z" />
    <glyph glyph-name="L_i_n_k_t_r_e_e_four" horiz-adv-x="9144" 
d="M182 0v1561h271v-1313h688v-248h-959zM1233 1407q0 66 47.5 111t116.5 45t117.5 -45t48.5 -111q0 -67 -48.5 -114.5t-117.5 -47.5t-116.5 47t-47.5 115zM1268 0v1126h258v-1126h-258zM1667 0v1126h258v-153q113 184 352 184q198 0 313 -143.5t115 -390.5v-623h-258v604
q0 154 -64.5 238t-184.5 84q-132 0 -202.5 -88t-70.5 -252v-586h-258zM2832 0v1561h258v-988l445 553h317l-475 -565l475 -561h-317l-445 549v-549h-258zM3942 356v1057h263v-287h286v-215h-286v-553q0 -57 30.5 -88.5t83.5 -31.5h162v-238h-203q-161 0 -248.5 93t-87.5 263
zM4600 0v1126h258v-139q45 81 117.5 125.5t164.5 44.5q46 0 84 -12v-238q-29 11 -88 11q-133 0 -205.5 -105.5t-72.5 -296.5v-516h-258zM5243 563q0 164 66 298t194.5 215t296.5 81q85 0 163 -20t151 -67t126.5 -117t86 -176.5t32.5 -239.5v-33h-860q13 -146 95 -223.5
t222 -77.5q101 0 179 49t98 125h260q-10 -111 -84 -204.5t-194 -148.5t-259 -55q-264 0 -418.5 160t-154.5 434zM5515 702h572q-27 103 -102 163.5t-185 60.5q-104 0 -179 -60.5t-106 -163.5zM6459 563q0 164 66 298t194.5 215t296.5 81q85 0 163 -20t151.5 -67t127 -117
t86 -176.5t32.5 -239.5v-33h-861q13 -146 95.5 -223.5t222.5 -77.5q101 0 178.5 48.5t97.5 125.5h260q-10 -111 -83.5 -204.5t-193.5 -148.5t-259 -55q-264 0 -419 160t-155 434zM6732 702h571q-27 103 -102 163.5t-185 60.5q-104 0 -178.5 -60.5t-105.5 -163.5zM7633 918
v241h432l-307 293l170 174l293 -301v428h254v-428l292 301l170 -174l-307 -293h432v-241h-434l309 -302l-170 -170l-419 422l-420 -422l-170 170l309 302h-434zM8221 -2v573h254v-573h-254z" />
    <glyph glyph-name="i.loclTRK" horiz-adv-x="512" 
d="M127 0v1126h258v-1126h-258zM94 1407q0 66 47.5 111t116.5 45t117.5 -45t48.5 -111q0 -67 -48.5 -114.5t-117.5 -47.5t-116.5 47t-47.5 115z" />
    <glyph glyph-name="uni006A0301" horiz-adv-x="561" 
d="M119 -518q-72 0 -135.5 24t-96.5 62v209q66 -66 160 -66q57 0 92 35t35 104v1276h260v-1314q0 -154 -90 -242t-225 -88zM213 1255l193 328h299l-297 -328h-195z" />
    <glyph glyph-name="uni013C.loclMAH" horiz-adv-x="512" 
d="M127 0v1561h258v-1561h-258zM106 -487l25 364h244l-119 -364h-150z" />
    <glyph glyph-name="uni0146.loclMAH" 
d="M948 604q0 149 -75 235.5t-205 86.5q-137 0 -210 -88t-73 -252v-586h-258v1126h258v-131q61 78 152 120t204 42q214 0 339.5 -143.5t125.5 -390.5v-623h-258v604zM537 -487l24 364h244l-119 -364h-149z" />
    <glyph glyph-name="a.ss01" horiz-adv-x="1372" 
d="M618 -33q-236 0 -387 167.5t-151 428.5q0 262 151 429t387 167q226 0 373 -160v127h258v-1126h-258v127q-147 -160 -373 -160zM336 563q0 -160 91.5 -261t236.5 -101t236 101t91 261t-91 261.5t-236 101.5t-236.5 -101.5t-91.5 -261.5z" />
    <glyph glyph-name="aacute.ss01" horiz-adv-x="1372" 
d="M618 -33q-236 0 -387 167.5t-151 428.5q0 262 151 429t387 167q226 0 373 -160v127h258v-1126h-258v127q-147 -160 -373 -160zM336 563q0 -160 91.5 -261t236.5 -101t236 101t91 261t-91 261.5t-236 101.5t-236.5 -101.5t-91.5 -261.5zM575 1255l193 328h299l-297 -328
h-195z" />
    <glyph glyph-name="abreve.ss01" horiz-adv-x="1372" 
d="M618 -33q-236 0 -387 167.5t-151 428.5q0 262 151 429t387 167q226 0 373 -160v127h258v-1126h-258v127q-147 -160 -373 -160zM322 1583h182q0 -87 44 -137.5t120 -50.5t119.5 50.5t43.5 137.5h183q0 -160 -95 -256t-251 -96t-251 96t-95 256zM336 563q0 -160 91.5 -261
t236.5 -101t236 101t91 261t-91 261.5t-236 101.5t-236.5 -101.5t-91.5 -261.5z" />
    <glyph glyph-name="acircumflex.ss01" horiz-adv-x="1372" 
d="M618 -33q-236 0 -387 167.5t-151 428.5q0 262 151 429t387 167q226 0 373 -160v127h258v-1126h-258v127q-147 -160 -373 -160zM328 1268l180 315h317l181 -315h-230l-110 213l-109 -213h-229zM336 563q0 -160 91.5 -261t236.5 -101t236 101t91 261t-91 261.5t-236 101.5
t-236.5 -101.5t-91.5 -261.5z" />
    <glyph glyph-name="adieresis.ss01" horiz-adv-x="1372" 
d="M618 -33q-236 0 -387 167.5t-151 428.5q0 262 151 429t387 167q226 0 373 -160v127h258v-1126h-258v127q-147 -160 -373 -160zM270 1430q0 66 47.5 110.5t116.5 44.5t117.5 -44.5t48.5 -110.5q0 -67 -48.5 -114.5t-117.5 -47.5t-116.5 47t-47.5 115zM336 563
q0 -160 91.5 -261t236.5 -101t236 101t91 261t-91 261.5t-236 101.5t-236.5 -101.5t-91.5 -261.5zM737 1430q0 66 47.5 110.5t116.5 44.5t117.5 -44.5t48.5 -110.5q0 -67 -48.5 -114.5t-117.5 -47.5t-116.5 47t-47.5 115z" />
    <glyph glyph-name="uni1EA1.ss01" horiz-adv-x="1372" 
d="M618 -33q-236 0 -387 167.5t-151 428.5q0 262 151 429t387 167q226 0 373 -160v127h258v-1126h-258v127q-147 -160 -373 -160zM336 563q0 -160 91.5 -261t236.5 -101t236 101t91 261t-91 261.5t-236 101.5t-236.5 -101.5t-91.5 -261.5zM504 -295q0 66 47.5 111t116.5 45
t117.5 -45t48.5 -111q0 -67 -48.5 -114.5t-117.5 -47.5t-116.5 47t-47.5 115z" />
    <glyph glyph-name="agrave.ss01" horiz-adv-x="1372" 
d="M618 -33q-236 0 -387 167.5t-151 428.5q0 262 151 429t387 167q226 0 373 -160v127h258v-1126h-258v127q-147 -160 -373 -160zM256 1583h299l190 -328h-194zM336 563q0 -160 91.5 -261t236.5 -101t236 101t91 261t-91 261.5t-236 101.5t-236.5 -101.5t-91.5 -261.5z" />
    <glyph glyph-name="amacron.ss01" horiz-adv-x="1372" 
d="M618 -33q-236 0 -387 167.5t-151 428.5q0 262 151 429t387 167q226 0 373 -160v127h258v-1126h-258v127q-147 -160 -373 -160zM262 1251v193h811v-193h-811zM336 563q0 -160 91.5 -261t236.5 -101t236 101t91 261t-91 261.5t-236 101.5t-236.5 -101.5t-91.5 -261.5z" />
    <glyph glyph-name="aogonek.ss01" horiz-adv-x="1372" 
d="M618 -33q-236 0 -387 167.5t-151 428.5q0 262 151 429t387 167q226 0 373 -160v127h258v-1126h6q-54 0 -87 -28.5t-33 -73.5q0 -41 27 -66t71 -25q73 0 119 43v-165q-31 -36 -84.5 -57t-118.5 -21q-104 0 -166.5 53t-62.5 143q0 63 36.5 114t104.5 83h-70v127
q-147 -160 -373 -160zM336 563q0 -160 91.5 -261t236.5 -101t236 101t91 261t-91 261.5t-236 101.5t-236.5 -101.5t-91.5 -261.5z" />
    <glyph glyph-name="aring.ss01" horiz-adv-x="1372" 
d="M618 -33q-236 0 -387 167.5t-151 428.5q0 262 151 429t387 167q226 0 373 -160v127h258v-1126h-258v127q-147 -160 -373 -160zM336 563q0 -160 91.5 -261t236.5 -101t236 101t91 261t-91 261.5t-236 101.5t-236.5 -101.5t-91.5 -261.5zM438 1438q0 95 66.5 161t163.5 66
q95 0 161 -66t66 -161q0 -98 -65.5 -164t-161.5 -66q-97 0 -163.5 66t-66.5 164zM569 1438q0 -41 29 -70t70 -29q40 0 68 29t28 70t-28 68.5t-68 27.5q-42 0 -70.5 -27.5t-28.5 -68.5z" />
    <glyph glyph-name="atilde.ss01" horiz-adv-x="1372" 
d="M618 -33q-236 0 -387 167.5t-151 428.5q0 262 151 429t387 167q226 0 373 -160v127h258v-1126h-258v127q-147 -160 -373 -160zM305 1350q8 109 61.5 173t139.5 64q44 0 82 -18.5t66 -45t54 -53t56 -45t61 -18.5q51 0 87.5 40t43.5 107l74 -92q-7 -109 -62 -172t-141 -63
q-41 0 -78 18.5t-64.5 44.5t-54 52t-56.5 44.5t-60 18.5q-54 0 -91 -40.5t-44 -109.5zM336 563q0 -160 91.5 -261t236.5 -101t236 101t91 261t-91 261.5t-236 101.5t-236.5 -101.5t-91.5 -261.5z" />
    <glyph glyph-name="k.ss02" horiz-adv-x="1150" 
d="M829 1126h318l-475 -565l475 -561h-318l-444 549v-549h-258v1561h258v-988z" />
    <glyph glyph-name="uni01E9.ss02" horiz-adv-x="1150" 
d="M829 1126h318l-475 -565l475 -561h-318l-444 549v-549h-258v1561h258v-988zM494 1561h229l108 -213l111 213h229l-180 -316h-317z" />
    <glyph glyph-name="uni0137.ss02" horiz-adv-x="1150" 
d="M829 1126h318l-475 -565l475 -561h-318l-444 549v-549h-258v1561h258v-988zM453 -487l24 364h244l-119 -364h-149z" />
    <glyph glyph-name="uni1E35.ss02" horiz-adv-x="1150" 
d="M829 1126h318l-475 -565l475 -561h-318l-444 549v-549h-258v1561h258v-988zM178 -430v192h811v-192h-811z" />
    <glyph glyph-name="n.ss02" horiz-adv-x="1288" 
d="M907 604q0 154 -65 238t-185 84q-132 0 -202 -88t-70 -252v-586h-258v1126h258v-153q113 184 352 184q198 0 313 -143.5t115 -390.5v-623h-258v604z" />
    <glyph glyph-name="nacute.ss02" horiz-adv-x="1288" 
d="M907 604q0 154 -65 238t-185 84q-132 0 -202 -88t-70 -252v-586h-258v1126h258v-153q113 184 352 184q198 0 313 -143.5t115 -390.5v-623h-258v604zM555 1255l193 328h299l-297 -328h-195z" />
    <glyph glyph-name="ncaron.ss02" horiz-adv-x="1288" 
d="M907 604q0 154 -65 238t-185 84q-132 0 -202 -88t-70 -252v-586h-258v1126h258v-153q113 184 352 184q198 0 313 -143.5t115 -390.5v-623h-258v604zM307 1561h230l108 -213l111 213h229l-180 -316h-318z" />
    <glyph glyph-name="uni0146.ss02" horiz-adv-x="1288" 
d="M907 604q0 154 -65 238t-185 84q-132 0 -202 -88t-70 -252v-586h-258v1126h258v-153q113 184 352 184q198 0 313 -143.5t115 -390.5v-623h-258v604zM496 -487l24 364h244l-119 -364h-149z" />
    <glyph glyph-name="uni1E45.ss02" horiz-adv-x="1288" 
d="M907 604q0 154 -65 238t-185 84q-132 0 -202 -88t-70 -252v-586h-258v1126h258v-153q113 184 352 184q198 0 313 -143.5t115 -390.5v-623h-258v604zM481 1407q0 66 47.5 111t116.5 45t117.5 -45t48.5 -111q0 -67 -48.5 -114.5t-117.5 -47.5t-116.5 47t-47.5 115z" />
    <glyph glyph-name="uni1E47.ss02" horiz-adv-x="1288" 
d="M907 604q0 154 -65 238t-185 84q-132 0 -202 -88t-70 -252v-586h-258v1126h258v-153q113 184 352 184q198 0 313 -143.5t115 -390.5v-623h-258v604zM481 -295q0 66 47.5 111t116.5 45t117.5 -45t48.5 -111q0 -67 -48.5 -114.5t-117.5 -47.5t-116.5 47t-47.5 115z" />
    <glyph glyph-name="uni1E49.ss02" horiz-adv-x="1288" 
d="M907 604q0 154 -65 238t-185 84q-132 0 -202 -88t-70 -252v-586h-258v1126h258v-153q113 184 352 184q198 0 313 -143.5t115 -390.5v-623h-258v604zM221 -430v192h811v-192h-811z" />
    <glyph glyph-name="ntilde.ss02" horiz-adv-x="1288" 
d="M907 604q0 154 -65 238t-185 84q-132 0 -202 -88t-70 -252v-586h-258v1126h258v-153q113 184 352 184q198 0 313 -143.5t115 -390.5v-623h-258v604zM285 1350q8 109 61 173t139 64q44 0 82.5 -18.5t66 -45t53.5 -53t56.5 -45t61.5 -18.5q51 0 87.5 40t43.5 107l74 -92
q-7 -109 -62 -172t-141 -63q-41 0 -78 18.5t-64.5 44.5t-54 52t-56.5 44.5t-60 18.5q-54 0 -91.5 -40.5t-44.5 -109.5z" />
    <glyph glyph-name="r.ss02" horiz-adv-x="757" 
d="M127 0v1126h258v-139q45 80 118.5 125t164.5 45q46 0 84 -12v-238q-29 11 -88 11q-133 0 -206 -105.5t-73 -296.5v-516h-258z" />
    <glyph glyph-name="racute.ss02" horiz-adv-x="757" 
d="M127 0v1126h258v-139q45 80 118.5 125t164.5 45q46 0 84 -12v-238q-29 11 -88 11q-133 0 -206 -105.5t-73 -296.5v-516h-258zM328 1255l192 328h299l-297 -328h-194z" />
    <glyph glyph-name="rcaron.ss02" horiz-adv-x="757" 
d="M127 0v1126h258v-139q45 80 118.5 125t164.5 45q46 0 84 -12v-238q-29 11 -88 11q-133 0 -206 -105.5t-73 -296.5v-516h-258zM80 1561h229l109 -213l110 213h230l-180 -316h-318z" />
    <glyph glyph-name="uni0157.ss02" horiz-adv-x="757" 
d="M127 0v1126h258v-139q45 80 118.5 125t164.5 45q46 0 84 -12v-238q-29 11 -88 11q-133 0 -206 -105.5t-73 -296.5v-516h-258zM123 -487l24 364h244l-119 -364h-149z" />
    <glyph glyph-name="uni1E5D.ss02" horiz-adv-x="757" 
d="M127 0v1126h258v-139q45 80 118.5 125t164.5 45q46 0 84 -12v-238q-29 11 -88 11q-133 0 -206 -105.5t-73 -296.5v-516h-258zM14 1251v193h811v-193h-811zM109 -295q0 66 47 111t116 45t117.5 -45t48.5 -111q0 -67 -48.5 -114.5t-117.5 -47.5t-116 47t-47 115z" />
    <glyph glyph-name="uni1E5F.ss02" horiz-adv-x="757" 
d="M127 0v1126h258v-139q45 80 118.5 125t164.5 45q46 0 84 -12v-238q-29 11 -88 11q-133 0 -206 -105.5t-73 -296.5v-516h-258zM-154 -430v192h811v-192h-811z" />
    <glyph glyph-name="t.ss02" horiz-adv-x="677" 
d="M358 358q0 -56 31 -88t84 -32h162v-238h-203q-161 0 -248.5 93t-87.5 263v1057h262v-287h287v-215h-287v-553z" />
    <glyph glyph-name="tbar.ss02" horiz-adv-x="677" 
d="M358 358q0 -56 31 -88t84 -32h162v-238h-203q-161 0 -248.5 93t-87.5 263v1057h262v-287h287v-215h-287v-211h287v-200h-287v-142z" />
    <glyph glyph-name="tcaron.ss02" horiz-adv-x="677" 
d="M358 358q0 -56 31 -88t84 -32h162v-238h-203q-161 0 -248.5 93t-87.5 263v1057h262v-287h287v-215h-287v-553zM471 1206l37 424h246l-133 -424h-150z" />
    <glyph glyph-name="uni0163.ss02" horiz-adv-x="677" 
d="M358 358q0 -56 31 -88t84 -32h162v-238h-178v-4q48 -34 71 -92.5t13 -120.5q-17 -91 -84.5 -133t-167.5 -23q-57 11 -104 40.5t-72 70.5l30 162q44 -54 111 -66q43 -6 72.5 11t38.5 55q6 37 -12.5 69t-55.5 51q-97 34 -149 120t-52 216v1057h262v-287h287v-215h-287v-553
z" />
    <glyph glyph-name="uni021B.ss02" horiz-adv-x="677" 
d="M358 358q0 -56 31 -88t84 -32h162v-238h-203q-161 0 -248.5 93t-87.5 263v1057h262v-287h287v-215h-287v-553zM233 -487l25 364h244l-119 -364h-150z" />
    <glyph glyph-name="uni1E97.ss02" horiz-adv-x="677" 
d="M358 358q0 -56 31 -88t84 -32h162v-238h-203q-161 0 -248.5 93t-87.5 263v1057h262v-287h287v-215h-287v-553zM-172 1716q0 66 47.5 111t116.5 45t117.5 -45t48.5 -111q0 -67 -48.5 -114.5t-117.5 -47.5t-116.5 47t-47.5 115zM295 1716q0 66 47.5 111t116.5 45t117.5 -45
t48.5 -111q0 -67 -48.5 -114.5t-117.5 -47.5t-116.5 47t-47.5 115z" />
    <glyph glyph-name="uni1E6D.ss02" horiz-adv-x="677" 
d="M358 358q0 -56 31 -88t84 -32h162v-238h-203q-161 0 -248.5 93t-87.5 263v1057h262v-287h287v-215h-287v-553zM219 -295q0 66 47.5 111t116.5 45t117.5 -45t48.5 -111q0 -67 -48.5 -114.5t-117.5 -47.5t-116.5 47t-47.5 115z" />
    <glyph glyph-name="uni1E6F.ss02" horiz-adv-x="677" 
d="M358 358q0 -56 31 -88t84 -32h162v-238h-203q-161 0 -248.5 93t-87.5 263v1057h262v-287h287v-215h-287v-553zM-41 -430v192h811v-192h-811z" />
    <glyph glyph-name="f_f_j" horiz-adv-x="2011" 
d="M193 1262q0 154 117 241.5t323 87.5q205 0 360 -96q120 96 334 96q218 0 375 -104v-211q-123 86 -342 86q-213 0 -213 -158v-78h735v-1314q0 -154 -90 -242t-225 -88q-72 0 -135.5 24t-96.5 62v209q66 -66 160 -66q57 0 92 35t35 104v1061h-475v-911h-260v911h-434v-911
h-260v911h-173v215h173v136zM453 1126h434v136q0 34 6 69q-96 31 -227 31q-213 0 -213 -158v-78z" />
    <glyph glyph-name="f_j" horiz-adv-x="1316" 
d="M193 1262q0 154 117 241.5t323 87.5q218 0 375 -104v-211q-123 86 -342 86q-213 0 -213 -158v-78h735v-1314q0 -154 -90.5 -242t-225.5 -88q-72 0 -135 24t-96 62v209q66 -66 160 -66q57 0 92 35t35 104v1061h-475v-911h-260v911h-173v215h173v136z" />
    <glyph glyph-name="f_t" horiz-adv-x="1488" 
d="M193 1262q0 152 125 240.5t333 88.5q120 0 251 -42t243 -136h22v-287h289v-215h-289v-551q0 -85 30.5 -122t100.5 -37q92 0 158 63v-207q-33 -38 -97 -63t-134 -25q-146 0 -231 89t-85 243v610h-456v-911h-260v911h-173v215h173v136zM453 1126h456v185q-95 51 -243 51
q-213 0 -213 -158v-78z" />
    <glyph glyph-name="zero.zero" horiz-adv-x="1472" 
d="M735 -33q-292 0 -463.5 218.5t-171.5 590.5q0 376 171.5 595.5t463.5 219.5q293 0 464 -217.5t171 -591.5q0 -375 -171 -595t-464 -220zM377 776q0 -276 108 -424l269 987h-19q-166 0 -262 -151.5t-96 -411.5zM698 223q12 -2 37 -2q166 0 263.5 151t97.5 410
q0 297 -125 447z" />
    <glyph glyph-name="zero.tf" horiz-adv-x="1454" 
d="M725 -31q-292 0 -463.5 217.5t-171.5 589.5q0 376 171.5 595.5t463.5 219.5q293 0 464 -217.5t171 -591.5q0 -375 -171 -594t-464 -219zM367 776q0 -257 96 -406t262 -149t263 151t97 410q0 256 -97 406.5t-263 150.5t-262 -151.5t-96 -411.5z" />
    <glyph glyph-name="one.tf" horiz-adv-x="1454" 
d="M487 0v1169q-107 -122 -292 -122h-64v262h57q138 0 218.5 65.5t80.5 177.5v9h275v-1561h-275z" />
    <glyph glyph-name="two.tf" horiz-adv-x="1454" 
d="M154 270q449 254 656.5 451.5t207.5 368.5q0 115 -77 181t-208 66q-138 0 -224.5 -80t-84.5 -206h-279q-2 150 75 274t212.5 195t300.5 71q249 0 406 -140t157 -361q0 -210 -185.5 -428t-528.5 -414h723v-248h-1151v270z" />
    <glyph glyph-name="three.tf" horiz-adv-x="1454" 
d="M711 -33q-270 0 -429 137t-157 367h274q1 -116 86.5 -184t227.5 -68q143 0 227 62.5t84 169.5q0 116 -115 183.5t-313 67.5v222q170 0 264 59.5t94 165.5q0 82 -69 137t-172 55q-122 0 -198.5 -58t-76.5 -150h-264q0 201 151 329.5t386 128.5q144 0 263 -57.5t187 -158
t68 -222.5q0 -110 -49 -191.5t-142 -127.5q122 -48 190 -148.5t68 -239.5q0 -220 -158.5 -349.5t-426.5 -129.5z" />
    <glyph glyph-name="four.tf" horiz-adv-x="1454" 
d="M98 287v241l453 1033h283l-459 -1026h424v383h272v-383h234v-248h-234v-287h-272v287h-701z" />
    <glyph glyph-name="five.tf" horiz-adv-x="1454" 
d="M709 -31q-168 0 -300 65.5t-204.5 182.5t-71.5 266h266q0 -121 86 -197.5t220 -76.5q138 0 224.5 88.5t86.5 226.5t-86.5 226t-224.5 88q-93 0 -172 -51t-119 -136l-264 49l133 861h888v-248h-682l-59 -355q121 115 326 115q232 0 379 -152t147 -395
q0 -246 -160.5 -401.5t-412.5 -155.5z" />
    <glyph glyph-name="six.tf" horiz-adv-x="1454" 
d="M707 -33q-277 0 -440 208.5t-163 563.5q0 411 161 632.5t456 219.5q218 -2 368.5 -124t184.5 -326h-268q-19 95 -96.5 151t-190.5 56q-149 0 -242.5 -110.5t-124.5 -324.5q66 75 162 116.5t211 41.5q244 0 397.5 -152.5t153.5 -396.5q0 -246 -158.5 -400.5t-410.5 -154.5
zM391 524q0 -138 86 -227.5t219 -89.5q138 0 227 89.5t89 227.5q0 135 -89 223.5t-227 88.5q-133 0 -219 -88.5t-86 -223.5z" />
    <glyph glyph-name="seven.tf" horiz-adv-x="1454" 
d="M369 0l573 1313h-776v248h1055v-218l-572 -1343h-280z" />
    <glyph glyph-name="eight.tf" horiz-adv-x="1454" 
d="M694 -31q-261 0 -427.5 142t-166.5 346q0 129 64 227.5t186 157.5q-89 56 -134.5 136.5t-45.5 176.5q0 122 68 221t188 155t268 56t268 -56t188.5 -155t68.5 -221q0 -95 -45.5 -176.5t-133.5 -136.5q121 -60 184.5 -158.5t63.5 -226.5q0 -204 -166.5 -346t-427.5 -142z
M367 461q0 -111 88.5 -180.5t238.5 -69.5q151 0 240.5 69.5t89.5 180.5q0 114 -88.5 184t-241.5 70q-152 0 -239.5 -70t-87.5 -184zM434 1153q0 -86 70.5 -144.5t189.5 -58.5t190.5 58.5t71.5 144.5t-70.5 140.5t-191.5 54.5q-119 0 -189.5 -57t-70.5 -138z" />
    <glyph glyph-name="nine.tf" horiz-adv-x="1454" 
d="M748 1593q277 0 439.5 -208.5t162.5 -563.5q0 -411 -161 -632.5t-456 -219.5q-218 1 -368.5 124t-184.5 327h269q19 -95 96 -151t190 -56q149 0 242.5 110.5t124.5 323.5q-66 -75 -162 -116.5t-211 -41.5q-244 0 -397.5 152.5t-153.5 396.5q0 246 159 400.5t411 154.5z
M442 1036q0 -135 89 -223t227 -88q133 0 219 88t86 223q0 138 -86 228t-219 90q-138 0 -227 -90t-89 -228z" />
    <glyph glyph-name="zero.tf.zero" horiz-adv-x="1472" 
d="M735 -33q-292 0 -463.5 218.5t-171.5 590.5q0 376 171.5 595.5t463.5 219.5q293 0 464 -217.5t171 -591.5q0 -375 -171 -595t-464 -220zM377 776q0 -276 108 -424l269 987h-19q-166 0 -262 -151.5t-96 -411.5zM698 223q12 -2 37 -2q166 0 263.5 151t97.5 410
q0 297 -125 447z" />
    <glyph glyph-name="zero.dnom" horiz-adv-x="745" 
d="M371 -31q-126 0 -213.5 91t-87.5 223t87.5 221.5t213.5 89.5q129 0 217 -89.5t88 -221.5t-88 -223t-217 -91zM236 283q0 -60 40.5 -102t98.5 -42t98.5 42t40.5 102q0 61 -41 103t-100 42q-57 0 -97 -42t-40 -103z" />
    <glyph glyph-name="zero.numr" horiz-adv-x="745" 
d="M371 967q-126 0 -213.5 90.5t-87.5 222.5q0 130 87.5 220.5t213.5 90.5q129 0 217 -90t88 -221q0 -132 -88 -222.5t-217 -90.5zM236 1280q0 -61 40 -103t99 -42t99 42t40 103q0 60 -41 101.5t-100 41.5q-57 0 -97 -41.5t-40 -101.5z" />
    <glyph glyph-name="asterisk.ss01" horiz-adv-x="1085" 
d="M276 752l-120 112l198 189h-274v164h276l-200 186l120 113l179 -191v272h174v-272l178 191l115 -113l-195 -186h277v-164h-275l193 -189l-115 -112l-266 268z" />
    <glyph glyph-name="uni20B9.bold" horiz-adv-x="1333" 
d="M1020 0q-67 197 -293.5 346.5t-544.5 208.5v244h285q123 0 200.5 71.5t77.5 186.5q0 117 -77.5 188.5t-200.5 71.5h-285v244h1149v-244h-387q68 -117 68 -260q0 -76 -23 -156h322v-246h-500q-72 -51 -172 -80q232 -50 415 -200.5t277 -374.5h-311z" />
    <glyph glyph-name="arrowup.ss01" horiz-adv-x="1443" 
d="M354 881l-180 180l555 545l510 -580l-164 -127l-315 391zM608 0v973h232v-973h-232z" />
    <glyph glyph-name="uni2197.ss01" horiz-adv-x="1492" 
d="M571 961v256l779 -9l-52 -770l-204 27l53 498zM127 158l688 688l164 -164l-688 -688z" />
    <glyph glyph-name="arrowright.ss01" horiz-adv-x="1890" 
d="M1008 979l180 180l545 -555l-580 -510l-127 164l391 315zM127 494v231h973v-231h-973z" />
    <glyph glyph-name="uni2198.ss01" horiz-adv-x="1490" 
d="M1094 778h254l-7 -776l-772 49l27 205l500 -53zM127 1059l164 164l688 -688l-164 -164z" />
    <glyph glyph-name="arrowdown.ss01" horiz-adv-x="1443" 
d="M1094 471l180 -180l-555 -545l-510 580l164 127l315 -392zM608 379v973h232v-973h-232z" />
    <glyph glyph-name="uni2199.ss01" horiz-adv-x="1492" 
d="M928 238v-256l-778 8l49 770l204 -27l-53 -497zM518 516l688 688l164 -164l-688 -688z" />
    <glyph glyph-name="arrowleft.ss01" horiz-adv-x="1890" 
d="M887 453l-180 -181l-545 555l579 510l127 -163l-391 -316zM795 707v231h972v-231h-972z" />
    <glyph glyph-name="uni2196.ss01" horiz-adv-x="1490" 
d="M403 379h-256l9 776l770 -49l-27 -205l-500 53zM518 623l164 163l688 -688l-164 -164z" />
    <glyph glyph-name="uni030C.alt" horiz-adv-x="0" 
d="M102 1235l37 424h246l-133 -424h-150z" />
    <glyph glyph-name="uni0326.loclMAH" horiz-adv-x="0" 
d="M102 -487l25 364h244l-119 -364h-150z" />
    </font>
</defs>
</svg>
